<svg width="49" height="48" viewBox="0 0 49 48" fill="none" xmlns="http://www.w3.org/2000/svg">
<rect x="0.25" width="48" height="48" rx="4" fill="#FFB076"/>
<path d="M24.1111 14.3906C25.0995 13.7316 26.3836 13.718 27.3858 14.3557L31.541 16.9999H33.2498C33.8021 16.9999 34.2498 17.4477 34.2498 17.9999V26.9999C34.2498 27.5522 33.8021 27.9999 33.2498 27.9999H31.7301C31.7896 28.9472 31.3433 29.9102 30.4455 30.4489L25.3521 33.505C24.7091 33.8907 23.9109 33.8817 23.2814 33.4974C22.5811 34.1167 21.5031 34.1849 20.721 33.5704L15.5803 29.5312C14.8139 28.9291 14.6201 27.9003 15.0158 27.0847C14.5325 26.7057 14.25 26.1254 14.25 25.5109V18C14.25 17.4477 14.6977 17 15.25 17H20.1969L24.1111 14.3906ZM16.4226 25.6452L17.1147 25.0397C18.3449 23.9632 20.2104 24.0698 21.31 25.2794L24.0122 28.2518C24.8817 29.2083 25.0403 30.6135 24.4079 31.739L29.4165 28.7339C29.6979 28.5651 29.7997 28.2276 29.6948 27.9433L25.2677 21.7455C25.019 21.3974 24.5764 21.246 24.1666 21.3689L21.6813 22.1145C20.6242 22.4316 19.4784 22.1427 18.698 21.3624L18.4052 21.0696C17.8372 20.5016 17.6903 19.6932 17.9293 19H16.25V25.5109L16.4226 25.6452ZM26.3121 16.0431C25.978 15.8305 25.55 15.835 25.2205 16.0547L19.8194 19.6554L20.1122 19.9481C20.3723 20.2083 20.7543 20.3046 21.1067 20.1989L23.5919 19.4533C24.8213 19.0845 26.1492 19.5386 26.8952 20.583L30.7644 25.9999H32.2498V18.9999H31.541C31.1606 18.9999 30.7881 18.8915 30.4672 18.6873L26.3121 16.0431ZM18.4317 26.5448L16.8159 27.9586L21.9567 31.9978L22.6606 30.7659C22.8756 30.3897 22.8238 29.9178 22.5323 29.5971L19.8301 26.6247C19.4636 26.2215 18.8418 26.186 18.4317 26.5448Z" fill="#8C5731"/>
</svg>
