<svg width="49" height="48" viewBox="0 0 49 48" fill="none" xmlns="http://www.w3.org/2000/svg">
<rect x="0.25" width="48" height="48" rx="4" fill="#BFFFA9"/>
<path d="M18.4851 18.4533C17.101 19.8915 16.25 21.8464 16.25 24C16.25 28.4183 19.8317 32 24.25 32C25.3308 32 26.3616 31.7857 27.3021 31.3972C27.4171 30.6467 27.1648 29.9266 27.0616 29.6746C26.832 29.115 26.0741 28.1582 24.8089 26.8308C24.4712 26.4758 24.4929 26.2035 24.6136 25.3943L24.6275 25.3029C24.7095 24.7486 24.8471 24.4209 26.7122 24.1248C27.6597 23.9746 27.9089 24.3533 28.2543 24.8777C28.2925 24.9358 28.3307 24.9928 28.3698 25.0499C28.6979 25.5297 28.941 25.6394 29.3082 25.8064C29.4727 25.881 29.678 25.9751 29.9531 26.1314C30.6051 26.504 30.6051 26.9247 30.6051 27.8472V27.9518C30.6051 28.3434 30.5668 28.6872 30.5066 28.9859C31.5978 27.6185 32.25 25.8854 32.25 24C32.25 20.7009 30.253 17.8682 27.4019 16.6448C26.8487 17.0181 26.0898 17.5473 25.825 17.91C25.6896 18.0954 25.4982 19.0417 24.8757 19.1198C24.7126 19.1402 24.4938 19.1259 24.262 19.111C23.6405 19.0706 22.7902 19.0161 22.518 19.755C22.3452 20.2232 22.3148 21.4944 22.8739 22.1543C22.9634 22.2597 22.9807 22.4547 22.9199 22.6735C22.84 22.9608 22.6786 23.1356 22.6283 23.1717C22.5319 23.1163 22.3396 22.8931 22.2094 22.7412C21.8955 22.3765 21.504 21.9223 20.998 21.7818C20.8139 21.7308 20.6117 21.6887 20.4155 21.6474C19.8664 21.5323 19.2444 21.4013 19.0999 21.093C18.9944 20.8672 18.9949 20.5562 18.9953 20.2276C18.9953 19.8112 18.9953 19.3403 18.7913 18.8826C18.7125 18.7054 18.6069 18.5645 18.4851 18.4533ZM24.25 34C18.7271 34 14.25 29.5228 14.25 24C14.25 18.4771 18.7271 14 24.25 14C29.7728 14 34.25 18.4771 34.25 24C34.25 29.5228 29.7728 34 24.25 34Z" fill="#296017"/>
</svg>
