<svg width="49" height="48" viewBox="0 0 49 48" fill="none" xmlns="http://www.w3.org/2000/svg">
<rect x="0.25" width="48" height="48" rx="4" fill="#F1C9FF"/>
<path d="M14.25 17L21.25 14L27.25 17L33.553 14.2987C33.8069 14.1899 34.1008 14.3075 34.2096 14.5613C34.2362 14.6236 34.25 14.6906 34.25 14.7583V31L27.25 34L21.25 31L14.947 33.7013C14.6931 33.8101 14.3992 33.6925 14.2904 33.4387C14.2638 33.3765 14.25 33.3094 14.25 33.2417V17ZM28.25 31.3955L32.25 29.6812V17.0331L28.25 18.7474V31.3955ZM26.25 31.2639V18.7361L22.25 16.7361V29.2639L26.25 31.2639ZM20.25 29.2526V16.6045L16.25 18.3188V30.9669L20.25 29.2526Z" fill="#6A2582"/>
</svg>
