<svg width="49" height="48" viewBox="0 0 49 48" fill="none" xmlns="http://www.w3.org/2000/svg">
<rect x="0.25" width="48" height="48" rx="4" fill="#B9A3F9"/>
<path d="M22.2231 30H23.25V25H25.25V30H26.2769C26.4089 28.7984 27.0221 27.8065 28.0176 26.7226C28.1297 26.6006 28.8488 25.8564 28.9341 25.7501C29.7818 24.6931 30.25 23.385 30.25 22C30.25 18.6863 27.5637 16 24.25 16C20.9363 16 18.25 18.6863 18.25 22C18.25 23.3843 18.7177 24.6917 19.5646 25.7484C19.65 25.855 20.3708 26.6012 20.4815 26.7218C21.4777 27.8064 22.091 28.7984 22.2231 30ZM22.25 32V33H26.25V32H22.25ZM18.004 26.9992C16.9065 25.6297 16.25 23.8915 16.25 22C16.25 17.5817 19.8317 14 24.25 14C28.6683 14 32.25 17.5817 32.25 22C32.25 23.8925 31.5928 25.6315 30.4943 27.0014C29.874 27.7748 28.25 29 28.25 30.5V33C28.25 34.1046 27.3546 35 26.25 35H22.25C21.1454 35 20.25 34.1046 20.25 33V30.5C20.25 29 18.6246 27.7736 18.004 26.9992Z" fill="#34158C"/>
</svg>
