<svg width="49" height="48" viewBox="0 0 49 48" fill="none" xmlns="http://www.w3.org/2000/svg">
<rect x="0.75" width="48" height="48" rx="4" fill="#BCE3FF"/>
<path d="M21.75 16C22.8546 16 23.75 16.8954 23.75 18V24.8271C22.8558 24.1373 21.716 23.7305 20.4144 23.5136L20.0856 25.4864C21.4662 25.7165 22.3474 26.1528 22.8902 26.7408C23.42 27.3147 23.75 28.167 23.75 29.5C23.75 30.8807 22.6307 32 21.25 32C19.8693 32 18.75 30.8807 18.75 29.5V29.1493C19.1801 29.2926 19.6263 29.4099 20.0856 29.4864L20.4144 27.5136C19.6715 27.3898 18.9252 27.1144 18.1791 26.7599C17.3316 26.3573 16.75 25.499 16.75 24.5C16.75 23.6653 16.9576 23.0085 17.3087 22.5257C17.6544 22.0504 18.1919 21.6703 18.9925 21.4701L19.75 21.2808V18C19.75 16.8954 20.6454 16 21.75 16ZM24.75 15.3542C24.0171 14.5238 22.9447 14 21.75 14C19.5409 14 17.75 15.7909 17.75 18V19.7742C16.899 20.1164 16.2014 20.6479 15.6913 21.3493C15.0424 22.2415 14.75 23.3347 14.75 24.5C14.75 26.0652 15.5457 27.4367 16.75 28.2422V29.5C16.75 31.9853 18.7647 34 21.25 34C22.6636 34 23.925 33.3482 24.75 32.3287C25.575 33.3482 26.8364 34 28.25 34C30.7353 34 32.75 31.9853 32.75 29.5V28.2422C33.9544 27.4367 34.75 26.0652 34.75 24.5C34.75 23.3347 34.4576 22.2415 33.8087 21.3493C33.2986 20.6479 32.6011 20.1164 31.75 19.7742V18C31.75 15.7909 29.9591 14 27.75 14C26.5553 14 25.4829 14.5238 24.75 15.3542ZM30.75 29.1493V29.5C30.75 30.8807 29.6307 32 28.25 32C26.8693 32 25.75 30.8807 25.75 29.5C25.75 28.167 26.08 27.3147 26.6098 26.7408C27.1526 26.1528 28.0338 25.7165 29.4144 25.4864L29.0856 23.5136C27.784 23.7305 26.6442 24.1373 25.75 24.8271V18C25.75 16.8954 26.6454 16 27.75 16C28.8546 16 29.75 16.8954 29.75 18V21.2808L30.5075 21.4701C31.3081 21.6703 31.8456 22.0504 32.1913 22.5257C32.5424 23.0085 32.75 23.6653 32.75 24.5C32.75 25.499 32.1684 26.3573 31.3209 26.7599C30.5748 27.1144 29.8285 27.3898 29.0856 27.5136L29.4144 29.4864C29.8737 29.4099 30.3199 29.2926 30.75 29.1493Z" fill="#165989"/>
</svg>
