<svg width="49" height="48" viewBox="0 0 49 48" fill="none" xmlns="http://www.w3.org/2000/svg">
<rect x="0.5" width="48" height="48" rx="4" fill="#FFDDDD"/>
<path d="M23.2577 23.8279L31.1066 15.979L32.5208 17.3932L31.1066 18.8074L33.5815 21.2823L32.1673 22.6965L29.6924 20.2216L28.2782 21.6359L30.3995 23.7572L28.9853 25.1714L26.864 23.0501L24.6719 25.2421C25.9581 27.1835 25.746 29.8249 24.0355 31.5354C22.0829 33.488 18.9171 33.488 16.9645 31.5354C15.0118 29.5827 15.0118 26.4169 16.9645 24.4643C18.6749 22.7538 21.3163 22.5417 23.2577 23.8279ZM22.6213 30.1211C23.7929 28.9496 23.7929 27.0501 22.6213 25.8785C21.4498 24.7069 19.5503 24.7069 18.3787 25.8785C17.2071 27.0501 17.2071 28.9496 18.3787 30.1211C19.5503 31.2927 21.4498 31.2927 22.6213 30.1211Z" fill="#E23535"/>
</svg>
