<svg width="32" height="32" viewBox="0 0 32 32" fill="none" xmlns="http://www.w3.org/2000/svg">
<rect width="32" height="32" rx="4" fill="#E23535"/>
<path d="M16 26.8639L9.63604 20.5C6.12132 16.9852 6.12132 11.2868 9.63604 7.77209C13.1508 4.25737 18.8492 4.25737 22.364 7.77209C25.8787 11.2868 25.8787 16.9852 22.364 20.5L16 26.8639ZM20.9497 19.0857C23.6834 16.3521 23.6834 11.92 20.9497 9.1863C18.2161 6.45263 13.7839 6.45263 11.0503 9.1863C8.31658 11.92 8.31658 16.3521 11.0503 19.0857L16 24.0355L20.9497 19.0857ZM16 16.136C14.8954 16.136 14 15.2406 14 14.136C14 13.0315 14.8954 12.136 16 12.136C17.1046 12.136 18 13.0315 18 14.136C18 15.2406 17.1046 16.136 16 16.136Z" fill="white"/>
</svg>
