<svg width="505" height="505" viewBox="0 0 505 505" fill="none" xmlns="http://www.w3.org/2000/svg">
<rect width="505" height="505" fill="#E23535"/>
<path d="M255.913 346.966C255.913 346.966 259.955 347.043 244.217 346.966C228.566 346.889 226.244 338.034 226.244 338.034C222.976 332.567 218.418 328.563 211.882 326.253C207.238 324.559 202.595 322.711 198.209 320.632C188.405 316.089 179.719 310.084 171.636 303.462C170.518 302.538 169.486 301.614 168.282 300.69C155.64 290.834 149.534 277.975 146.868 263.577C146.18 259.573 145.75 255.492 145.75 251.488C145.75 246.945 146.954 242.556 149.534 238.552C150.136 237.551 150.996 236.704 151.856 235.626C161.66 244.635 170.518 254.183 184.191 258.726C182.815 259.111 181.353 259.419 179.977 259.881C176.451 260.959 173.012 262.114 169.572 263.346C167.078 264.27 165.874 266.118 165.788 268.428C165.702 270.044 165.53 271.738 165.96 273.278C168.368 283.211 176.365 290.449 187.201 291.912C193.307 292.759 198.553 290.911 202.423 286.522C204.831 283.75 204.831 281.286 202.337 278.591C201.649 279.284 201.133 279.977 200.445 280.593C196.833 284.212 192.533 286.06 187.029 284.828C182.815 283.904 179.891 280.824 179.461 276.974C178.257 267.35 187.201 259.804 197.951 261.421C199.671 261.652 201.477 262.191 203.111 262.884C207.926 264.809 212.226 267.427 216.096 270.66C225.384 278.514 233.468 287.215 239.401 297.379C243.185 303.847 246.969 310.315 250.753 316.782C251.097 317.321 251.441 317.783 252.129 318.784C252.817 317.629 253.333 316.859 253.763 316.012C258.837 307.697 263.653 299.304 268.898 291.142C274.144 283.057 281.368 276.358 288.936 269.967C292.806 266.734 297.278 264.347 302.093 262.422C313.015 258.11 324.883 265.117 324.711 275.742C324.625 281.979 318.691 286.214 311.811 285.059C308.371 284.443 305.619 282.903 303.469 280.593C302.867 279.977 302.351 279.361 301.835 278.745C299.599 280.439 299.169 283.057 300.803 285.521C302.781 288.524 305.705 290.526 309.403 291.527C312.929 292.451 316.541 292.451 320.067 291.373C330.386 288.293 336.148 281.594 338.212 272.2C338.47 271.045 338.384 269.89 338.212 268.736C337.954 266.272 336.664 264.27 333.998 263.269C330.73 262.114 327.463 261.113 324.109 260.035C322.647 259.573 321.099 259.265 319.035 258.726C319.981 258.341 320.239 258.11 320.583 258.033C325.657 256.801 329.87 254.26 333.912 251.411C339.674 247.407 344.748 242.787 349.65 238.013C350.338 237.32 351.026 236.704 351.972 235.78C352.832 236.858 353.692 237.705 354.294 238.706C356.96 242.864 358.164 247.407 358.078 252.181C357.992 267.273 353.606 281.132 343.544 293.452C339.502 298.38 334.256 302.153 329.182 306.157C318.777 314.396 307.425 321.325 294.268 325.56C285.41 328.409 279.734 330.719 275.864 338.188C273.112 345.426 255.913 346.966 255.913 346.966ZM243.873 333.337C243.357 331.951 243.185 331.104 242.841 330.411C240.863 326.561 239.057 322.634 236.907 318.938C232.35 310.777 227.018 303.077 220.052 296.378C219.106 295.454 218.074 294.684 217.386 294.068C214.29 296.07 211.71 298.072 208.786 299.535C205.863 301.075 202.681 302.076 199.585 303.308C199.843 303.616 199.843 303.847 200.015 303.924C202.337 305.002 204.573 306.234 206.894 307.158C220.31 312.779 231.576 320.863 240.949 331.104C241.379 331.566 241.809 332.105 242.325 332.49C242.583 332.721 243.013 332.875 243.873 333.337ZM301.233 303.231C298.997 302.384 296.848 301.691 294.784 300.844C292.634 299.92 290.484 298.919 288.506 297.687C286.7 296.532 285.066 295.146 283.432 293.837C274.488 300.536 257.117 326.638 257.289 333.491C263.567 327.023 269.5 320.555 277.154 315.935C284.808 311.47 292.978 307.62 301.233 303.231Z" fill="#FFF7F7"/>
<path d="M303.211 224.769C306.909 225.924 310.177 225.231 313.273 223.769C316.197 222.383 318.691 220.458 320.497 217.994C323.335 214.067 326.001 210.063 328.58 205.982C330.3 203.21 331.676 200.207 333.224 197.358C333.74 196.434 334.428 195.664 335.288 194.432C335.804 195.356 336.32 195.818 336.406 196.357C337.61 204.75 338.04 213.143 335.374 221.382C332.192 231.314 325.055 237.628 313.875 240.4C309.661 241.401 305.705 242.941 301.491 244.096C298.997 244.789 296.332 245.405 293.752 245.636C290.398 245.867 288.592 244.404 288.678 241.401C288.85 234.471 285.754 228.696 281.282 223.307C275.09 215.915 269.07 208.523 262.965 201.131C257.203 194.201 255.913 186.27 257.031 177.955C258.751 165.25 264.513 153.854 271.392 142.766C272.596 140.764 274.316 138.993 276.036 137.299C279.82 133.681 285.668 132.757 290.742 134.681C291.086 134.835 291.43 134.989 291.774 135.143C294.268 136.452 296.074 138.3 296.074 141.072C295.988 143.69 294.268 145.538 291.774 146.693C290.656 147.232 289.452 147.694 288.162 147.925C284.636 148.464 280.766 152.853 280.68 156.626C280.68 157.935 280.766 159.244 280.938 160.63C281.54 166.713 281.196 172.642 279.046 178.494C278.874 178.956 278.788 179.494 278.702 180.11C281.11 181.804 283.604 181.958 285.84 180.495C287.646 179.34 289.28 177.801 290.484 176.184C293.494 172.257 295.128 167.791 296.504 163.248C296.934 161.708 297.363 160.091 298.137 158.705C300.029 155.471 304.415 154.47 307.769 156.318C310.951 158.089 311.983 161.862 310.005 164.711C308.973 166.251 307.425 167.098 305.447 167.483C304.673 167.637 303.899 167.714 303.125 168.022C302.007 168.484 301.577 169.408 301.663 170.409C301.663 171.333 302.265 171.795 303.211 172.103C304.501 172.488 305.791 173.027 307.081 173.489C310.607 174.952 313.875 176.8 316.541 179.264C320.153 182.574 322.303 186.424 322.733 191.044C322.991 193.585 323.077 196.126 322.905 198.667C322.647 202.979 320.411 206.675 317.057 209.678C314.993 211.603 312.585 213.22 310.435 214.991C308.543 216.608 306.565 218.302 304.845 220.073C303.899 221.305 303.125 222.768 303.211 224.769ZM288.764 205.828C293.494 207.137 296.848 207.214 299.685 206.367C301.663 205.828 303.211 204.75 304.071 203.056C305.963 199.591 304.415 191.814 301.061 188.58C299.169 195.51 295.128 201.131 288.764 205.828Z" fill="#FFF7F7"/>
<path d="M197.263 225C197.607 222.999 196.833 221.613 195.801 220.535C193.995 218.61 191.931 216.762 189.867 214.991C187.975 213.374 185.825 211.911 183.847 210.217C177.741 204.981 176.537 198.359 177.483 191.121C178.601 182.497 184.535 177.185 192.791 173.566C194.081 172.95 195.543 172.488 196.919 172.103C197.951 171.795 198.725 171.41 198.639 170.255C198.553 169.1 198.037 168.176 196.833 167.791C196.145 167.56 195.457 167.56 194.769 167.406C191.673 166.79 189.523 164.634 189.265 161.862C189.007 159.321 190.899 156.857 193.651 155.856C196.489 154.855 199.843 155.548 201.563 157.935C202.509 159.244 203.025 160.784 203.627 162.324C205.261 166.328 206.636 170.332 208.614 174.259C209.646 176.261 211.366 178.186 213.172 179.725C215.838 182.035 218.246 182.035 221.686 180.341C221.686 179.956 221.686 179.571 221.514 179.187C219.708 174.721 219.192 170.024 219.278 165.327C219.364 162.94 219.364 160.553 219.536 158.166C219.88 153.392 216.87 149.542 211.796 148.079C210.506 147.694 209.13 147.309 208.012 146.616C203.111 143.844 203.111 138.608 207.926 135.682C212.656 132.834 219.794 133.296 223.836 136.914C225.814 138.685 227.706 140.764 229.082 142.92C235.532 153.315 241.121 164.095 243.099 176.03C244.647 185.269 243.615 194.047 237.079 201.747C231.146 208.754 225.384 215.838 219.622 222.845C216.44 226.694 213.344 230.621 212.398 235.472C212.054 237.089 212.054 238.783 211.968 240.477C211.796 244.558 209.99 246.175 205.433 245.636C203.197 245.405 201.047 244.712 198.897 244.096C195.113 243.018 191.501 241.555 187.717 240.708C171.378 237.012 165.358 226.617 163.638 215.376C162.778 209.678 163.122 204.057 163.724 198.436C163.896 197.281 164.326 196.049 164.67 194.817C166.476 195.356 166.906 196.665 167.422 197.666C169.658 201.593 171.722 205.674 173.958 209.601C176.451 213.836 179.289 217.917 183.245 221.228C185.911 223.461 189.007 225.077 192.705 225.308C194.167 225.385 195.715 225.077 197.263 225ZM199.327 188.426C196.747 191.66 195.027 197.435 195.543 200.438C196.145 204.057 198.123 205.982 202.079 206.675C205.175 207.214 208.184 206.983 211.796 205.751C205.347 201.208 201.477 195.587 199.327 188.426Z" fill="#FFF7F7"/>
<path d="M254.021 299.843C254.193 296.994 254.623 294.145 254.623 291.296C254.623 283.211 254.537 275.126 254.193 266.965C253.935 259.881 253.247 252.797 252.731 245.713C252.215 239.091 251.527 232.469 250.839 225.77C250.839 225.539 250.667 225.308 250.495 225C249.549 226.54 248.001 239.707 247.571 249.794C247.141 258.033 246.453 266.349 246.023 274.587C245.593 282.903 245.593 291.296 246.625 299.612C246.453 299.689 246.195 299.689 246.023 299.766C245.507 298.919 244.991 298.149 244.561 297.302C242.067 292.374 239.659 287.446 236.993 282.595C235.102 279.13 232.866 275.819 230.544 272.508C228.394 269.428 225.814 266.734 221.772 265.348C219.708 264.655 219.364 262.961 219.622 261.267C219.966 259.265 220.31 257.109 221.17 255.261C223.234 250.718 225.384 246.098 227.878 241.709C241.981 217.07 245.249 216.531 246.711 214.683C247.743 213.451 248.861 212.296 250.151 210.833C251.269 211.988 252.301 212.912 253.161 213.99C260.643 222.845 267.264 232.238 272.854 242.094C275.434 246.637 277.67 251.411 279.648 256.185C280.508 258.11 280.508 260.42 280.68 262.499C280.766 263.731 280.078 264.809 278.702 265.271C274.574 266.657 271.908 269.429 269.758 272.662C267.006 276.82 264.341 281.132 261.933 285.444C259.783 289.294 257.891 293.298 255.913 297.225C255.483 298.149 254.967 298.996 254.451 299.843C254.365 299.92 254.193 299.843 254.021 299.843Z" fill="#FFF7F7"/>
<path d="M145.836 287.6C145.836 287.6 130.959 335.031 100 335.416L215.322 335.878L143.945 323.635C143.945 323.635 160.026 324.174 145.836 287.6Z" fill="#FFF7F7"/>
<path d="M358.163 287.6C358.163 287.6 373.041 335.031 404 335.416L288.678 335.878L360.055 323.635C359.969 323.635 343.888 324.174 358.163 287.6Z" fill="#FFF7F7"/>
<path d="M213.946 116.664L225.814 112.506C242.239 106.731 260.557 106.808 276.896 112.814L287.388 116.664L282.744 112.583C268.21 99.6473 257.031 84.0936 249.893 67C242.841 84.6326 231.49 100.725 216.784 114.046L213.946 116.664Z" fill="#FFF7F7"/>
<path d="M230.974 120.129C231.06 120.283 231.146 120.437 231.146 120.668C232.436 123.44 233.812 126.212 235.36 128.83C237.767 132.911 240.519 136.837 242.927 140.841C245.507 145.153 247.743 149.542 250.065 153.7C251.699 150.62 253.333 147.309 255.225 144.075C257.203 140.764 259.439 137.53 261.503 134.22C263.051 131.833 264.685 129.369 266.147 126.905C267.952 123.825 269.156 121.438 269.758 119.282C251.527 116.356 238.369 118.204 230.974 120.129Z" fill="#FFF7F7"/>
<path d="M125.099 370V371.136C123.975 371.363 123.113 371.76 122.514 372.328C121.952 372.896 121.577 373.786 121.39 374.997C121.203 376.171 121.109 377.837 121.109 379.994V410.205C120.547 410.129 119.929 410.091 119.255 410.091C118.618 410.091 117.925 410.129 117.176 410.205L92.2821 382.72V399.075C92.2821 401.611 92.3758 403.561 92.5631 404.924C92.7879 406.249 93.2936 407.214 94.0803 407.82C94.9045 408.388 96.1969 408.804 97.9576 409.069V410.205C97.2084 410.129 96.2344 410.091 95.0356 410.091C93.8368 410.054 92.7129 410.035 91.664 410.035C90.8398 410.035 89.997 410.054 89.1353 410.091C88.2737 410.091 87.5619 410.129 87 410.205V409.069C88.1613 408.804 89.0229 408.407 89.5849 407.877C90.1468 407.309 90.5214 406.419 90.7087 405.208C90.896 403.996 90.9897 402.331 90.9897 400.211V376.019C90.9897 374.619 90.896 373.596 90.7087 372.953C90.5214 372.271 90.1281 371.817 89.5287 371.59C88.9667 371.325 88.1239 371.174 87 371.136V370C87.5619 370.038 88.2737 370.076 89.1353 370.114C89.997 370.151 90.8398 370.17 91.664 370.17C92.6006 370.17 93.5184 370.151 94.4175 370.114C95.3165 370.076 96.122 370.038 96.8337 370L119.817 394.532V381.13C119.817 378.594 119.704 376.663 119.479 375.338C119.292 373.975 118.805 372.991 118.018 372.385C117.232 371.779 115.939 371.363 114.141 371.136V370C114.89 370.038 115.864 370.076 117.063 370.114C118.262 370.151 119.386 370.17 120.435 370.17C121.296 370.17 122.139 370.151 122.963 370.114C123.825 370.076 124.537 370.038 125.099 370Z" fill="#FFF7F7"/>
<path d="M154.701 380.108V404.015C154.701 405.719 154.926 406.987 155.375 407.82C155.862 408.615 156.686 409.012 157.848 409.012V410.205C156.686 410.091 155.525 410.035 154.364 410.035C152.491 410.035 150.749 410.091 149.138 410.205C147.527 410.319 146.01 410.527 144.586 410.83V406.741C143.687 408.255 142.47 409.353 140.934 410.035C139.435 410.678 137.675 411 135.652 411C133.928 411 132.561 410.773 131.55 410.319C130.576 409.902 129.826 409.372 129.302 408.729C128.74 408.047 128.328 407.139 128.066 406.003C127.803 404.867 127.672 403.334 127.672 401.403V386.922C127.672 385.219 127.447 383.97 126.998 383.175C126.548 382.342 125.724 381.925 124.525 381.925V380.733C125.724 380.846 126.886 380.903 128.009 380.903C129.882 380.903 131.624 380.846 133.235 380.733C134.884 380.581 136.401 380.373 137.787 380.108V404.47C137.787 405.265 137.881 405.927 138.068 406.457C138.255 406.987 138.555 407.385 138.967 407.65C139.379 407.915 139.904 408.047 140.54 408.047C141.252 408.047 141.908 407.877 142.507 407.536C143.107 407.195 143.594 406.722 143.968 406.116C144.38 405.473 144.586 404.753 144.586 403.958V386.922C144.586 385.219 144.361 383.97 143.912 383.175C143.462 382.342 142.638 381.925 141.439 381.925V380.733C142.638 380.846 143.8 380.903 144.923 380.903C146.797 380.903 148.538 380.846 150.149 380.733C151.798 380.581 153.315 380.373 154.701 380.108Z" fill="#FFF7F7"/>
<path d="M170.158 379.938C171.806 379.938 173.249 380.127 174.485 380.506C175.759 380.846 176.676 381.168 177.238 381.471C178.549 382.266 179.355 381.774 179.655 379.994H180.778C180.703 381.092 180.647 382.436 180.61 384.026C180.572 385.578 180.554 387.642 180.554 390.216H179.43C179.28 388.815 178.943 387.434 178.418 386.071C177.931 384.708 177.201 383.572 176.227 382.663C175.29 381.755 174.054 381.301 172.518 381.301C171.582 381.301 170.795 381.584 170.158 382.152C169.521 382.72 169.203 383.496 169.203 384.481C169.203 385.616 169.54 386.639 170.214 387.547C170.888 388.418 171.75 389.27 172.799 390.102C173.848 390.898 174.897 391.749 175.946 392.658C177.107 393.604 178.137 394.532 179.036 395.44C179.936 396.349 180.647 397.352 181.172 398.45C181.734 399.51 182.015 400.778 182.015 402.255C182.015 403.958 181.49 405.473 180.441 406.798C179.43 408.123 178.062 409.164 176.339 409.921C174.653 410.64 172.762 411 170.664 411C169.353 411 168.21 410.849 167.236 410.546C166.262 410.281 165.475 409.959 164.876 409.58C164.276 409.277 163.752 409.05 163.302 408.899C162.89 408.71 162.478 408.615 162.066 408.615C161.692 408.615 161.373 408.823 161.111 409.24C160.849 409.618 160.643 410.072 160.493 410.602H159.369C159.444 409.391 159.5 407.915 159.538 406.173C159.575 404.432 159.594 402.122 159.594 399.245H160.718C160.942 401.252 161.373 403.031 162.01 404.583C162.684 406.135 163.527 407.366 164.539 408.274C165.588 409.145 166.786 409.58 168.135 409.58C168.734 409.58 169.278 409.467 169.765 409.24C170.252 409.012 170.645 408.672 170.945 408.217C171.244 407.763 171.394 407.176 171.394 406.457C171.394 404.791 170.888 403.391 169.877 402.255C168.903 401.119 167.667 399.87 166.168 398.507C165.044 397.447 163.977 396.425 162.965 395.44C161.991 394.418 161.186 393.32 160.549 392.147C159.912 390.935 159.594 389.591 159.594 388.115C159.594 386.411 160.081 384.954 161.055 383.742C162.066 382.531 163.377 381.603 164.988 380.96C166.599 380.278 168.322 379.938 170.158 379.938Z" fill="#FFF7F7"/>
<path d="M190.763 410.602C189.002 410.602 187.56 410.262 186.436 409.58C185.312 408.899 184.488 408.009 183.963 406.911C183.476 405.813 183.233 404.659 183.233 403.447C183.233 401.857 183.589 400.57 184.301 399.586C185.012 398.564 185.93 397.75 187.054 397.144C188.215 396.5 189.433 395.97 190.707 395.554C191.98 395.138 193.179 394.74 194.303 394.361C195.464 393.945 196.401 393.472 197.113 392.942C197.824 392.374 198.18 391.655 198.18 390.784V385.73C198.18 385.124 198.068 384.462 197.843 383.742C197.656 383.023 197.281 382.398 196.719 381.868C196.157 381.338 195.314 381.073 194.19 381.073C193.591 381.073 193.01 381.168 192.449 381.357C191.924 381.509 191.456 381.736 191.044 382.039C192.355 382.531 193.31 383.231 193.91 384.14C194.509 385.011 194.809 385.976 194.809 387.036C194.809 388.55 194.284 389.743 193.235 390.614C192.186 391.484 190.95 391.92 189.526 391.92C188.028 391.92 186.867 391.446 186.043 390.5C185.218 389.554 184.806 388.38 184.806 386.979C184.806 385.806 185.087 384.821 185.649 384.026C186.249 383.193 187.129 382.436 188.29 381.755C189.414 381.111 190.763 380.657 192.336 380.392C193.91 380.089 195.558 379.938 197.281 379.938C199.117 379.938 200.821 380.127 202.395 380.506C203.968 380.846 205.317 381.603 206.441 382.777C207.227 383.61 207.733 384.651 207.958 385.9C208.183 387.15 208.295 388.759 208.295 390.727V405.946C208.295 406.892 208.351 407.536 208.463 407.877C208.613 408.217 208.857 408.388 209.194 408.388C209.494 408.388 209.775 408.293 210.037 408.104C210.337 407.915 210.618 407.725 210.88 407.536L211.442 408.501C210.618 409.221 209.587 409.751 208.351 410.091C207.152 410.432 205.879 410.602 204.53 410.602C202.919 410.602 201.664 410.413 200.765 410.035C199.903 409.618 199.285 409.088 198.911 408.445C198.574 407.763 198.386 407.044 198.349 406.287C197.562 407.536 196.569 408.577 195.371 409.41C194.209 410.205 192.673 410.602 190.763 410.602ZM196.101 406.06C196.513 406.06 196.869 406.003 197.169 405.889C197.506 405.738 197.843 405.473 198.18 405.094V393.112C197.918 393.604 197.562 394.096 197.113 394.589C196.7 395.043 196.27 395.516 195.82 396.008C195.371 396.5 194.94 397.03 194.528 397.598C194.153 398.166 193.835 398.829 193.572 399.586C193.348 400.305 193.235 401.157 193.235 402.141C193.235 403.58 193.497 404.602 194.022 405.208C194.584 405.776 195.277 406.06 196.101 406.06Z" fill="#FFF7F7"/>
<path d="M233.54 379.938C235.263 379.938 236.611 380.165 237.585 380.619C238.597 381.036 239.365 381.566 239.889 382.209C240.451 382.891 240.863 383.799 241.126 384.935C241.388 386.071 241.519 387.604 241.519 389.535V404.924C241.519 406.514 241.744 407.593 242.193 408.161C242.68 408.729 243.504 409.012 244.666 409.012V410.205C243.916 410.167 242.774 410.129 241.238 410.091C239.739 410.016 238.26 409.978 236.799 409.978C235.225 409.978 233.689 410.016 232.191 410.091C230.692 410.129 229.569 410.167 228.819 410.205V409.012C229.793 409.012 230.468 408.729 230.842 408.161C231.217 407.593 231.404 406.514 231.404 404.924V386.468C231.404 385.673 231.311 385.011 231.123 384.481C230.936 383.951 230.636 383.553 230.224 383.288C229.85 383.023 229.325 382.891 228.651 382.891C227.976 382.891 227.321 383.061 226.684 383.402C226.085 383.742 225.579 384.235 225.167 384.878C224.792 385.484 224.605 386.184 224.605 386.979V404.924C224.605 406.514 224.792 407.593 225.167 408.161C225.579 408.729 226.253 409.012 227.19 409.012V410.205C226.478 410.167 225.429 410.129 224.043 410.091C222.657 410.016 221.233 409.978 219.772 409.978C218.199 409.978 216.607 410.016 214.996 410.091C213.385 410.129 212.168 410.167 211.343 410.205V409.012C212.505 409.012 213.31 408.729 213.76 408.161C214.247 407.593 214.49 406.514 214.49 404.924V386.922C214.49 385.219 214.265 383.97 213.816 383.175C213.366 382.342 212.542 381.925 211.343 381.925V380.733C212.542 380.846 213.703 380.903 214.827 380.903C216.7 380.903 218.442 380.846 220.053 380.733C221.702 380.581 223.219 380.373 224.605 380.108V384.197C225.504 382.682 226.703 381.603 228.201 380.96C229.737 380.278 231.517 379.938 233.54 379.938Z" fill="#FFF7F7"/>
<path d="M257.759 371.533V380.733H263.266V381.868H257.759V405.435C257.759 406.154 257.89 406.684 258.152 407.025C258.414 407.328 258.845 407.479 259.444 407.479C259.857 407.479 260.344 407.366 260.905 407.139C261.467 406.873 261.992 406.438 262.479 405.832L263.322 406.514C262.535 407.877 261.486 408.975 260.175 409.807C258.901 410.602 257.29 411 255.342 411C254.106 411 252.982 410.83 251.971 410.489C250.997 410.186 250.191 409.713 249.555 409.069C248.73 408.236 248.206 407.214 247.981 406.003C247.756 404.753 247.644 403.145 247.644 401.176V381.868H243.373V380.733H247.644V374.032C249.629 374.032 251.428 373.843 253.038 373.464C254.687 373.048 256.26 372.404 257.759 371.533Z" fill="#FFF7F7"/>
<path d="M270.324 410.602C268.563 410.602 267.121 410.262 265.997 409.58C264.873 408.899 264.049 408.009 263.525 406.911C263.038 405.813 262.794 404.659 262.794 403.447C262.794 401.857 263.15 400.57 263.862 399.586C264.574 398.564 265.491 397.75 266.615 397.144C267.777 396.5 268.994 395.97 270.268 395.554C271.541 395.138 272.74 394.74 273.864 394.361C275.025 393.945 275.962 393.472 276.674 392.942C277.385 392.374 277.741 391.655 277.741 390.784V385.73C277.741 385.124 277.629 384.462 277.404 383.742C277.217 383.023 276.842 382.398 276.28 381.868C275.718 381.338 274.876 381.073 273.752 381.073C273.152 381.073 272.572 381.168 272.01 381.357C271.485 381.509 271.017 381.736 270.605 382.039C271.916 382.531 272.871 383.231 273.471 384.14C274.07 385.011 274.37 385.976 274.37 387.036C274.37 388.55 273.845 389.743 272.796 390.614C271.747 391.484 270.511 391.92 269.088 391.92C267.589 391.92 266.428 391.446 265.604 390.5C264.78 389.554 264.367 388.38 264.367 386.979C264.367 385.806 264.648 384.821 265.21 384.026C265.81 383.193 266.69 382.436 267.851 381.755C268.975 381.111 270.324 380.657 271.897 380.392C273.471 380.089 275.119 379.938 276.842 379.938C278.678 379.938 280.382 380.127 281.956 380.506C283.529 380.846 284.878 381.603 286.002 382.777C286.788 383.61 287.294 384.651 287.519 385.9C287.744 387.15 287.856 388.759 287.856 390.727V405.946C287.856 406.892 287.912 407.536 288.025 407.877C288.175 408.217 288.418 408.388 288.755 408.388C289.055 408.388 289.336 408.293 289.598 408.104C289.898 407.915 290.179 407.725 290.441 407.536L291.003 408.501C290.179 409.221 289.149 409.751 287.912 410.091C286.713 410.432 285.44 410.602 284.091 410.602C282.48 410.602 281.225 410.413 280.326 410.035C279.465 409.618 278.846 409.088 278.472 408.445C278.135 407.763 277.947 407.044 277.91 406.287C277.123 407.536 276.13 408.577 274.932 409.41C273.77 410.205 272.234 410.602 270.324 410.602ZM275.662 406.06C276.074 406.06 276.43 406.003 276.73 405.889C277.067 405.738 277.404 405.473 277.741 405.094V393.112C277.479 393.604 277.123 394.096 276.674 394.589C276.262 395.043 275.831 395.516 275.381 396.008C274.932 396.5 274.501 397.03 274.089 397.598C273.714 398.166 273.396 398.829 273.134 399.586C272.909 400.305 272.796 401.157 272.796 402.141C272.796 403.58 273.059 404.602 273.583 405.208C274.145 405.776 274.838 406.06 275.662 406.06Z" fill="#FFF7F7"/>
<path d="M311.415 379.938C312.764 379.938 313.812 380.241 314.562 380.846C315.311 381.414 315.835 382.152 316.135 383.061C316.435 383.932 316.585 384.802 316.585 385.673C316.585 387.377 316.098 388.74 315.124 389.762C314.187 390.746 312.951 391.238 311.415 391.238C309.767 391.238 308.512 390.86 307.65 390.102C306.826 389.345 306.414 388.361 306.414 387.15C306.414 385.862 306.676 384.802 307.2 383.97C307.762 383.137 308.455 382.436 309.28 381.868C308.605 381.868 308.006 382.001 307.481 382.266C307.032 382.455 306.601 382.72 306.189 383.061C305.777 383.402 305.421 383.799 305.121 384.253C304.822 384.67 304.578 385.143 304.391 385.673C304.241 386.203 304.166 386.752 304.166 387.32V404.356C304.166 406.173 304.541 407.404 305.29 408.047C306.039 408.691 307.275 409.012 308.999 409.012V410.205C308.137 410.167 306.845 410.129 305.121 410.091C303.436 410.016 301.694 409.978 299.895 409.978C298.21 409.978 296.505 410.016 294.782 410.091C293.059 410.129 291.766 410.167 290.905 410.205V409.012C292.066 409.012 292.871 408.729 293.321 408.161C293.808 407.593 294.051 406.514 294.051 404.924V386.922C294.051 385.219 293.827 383.97 293.377 383.175C292.927 382.342 292.103 381.925 290.905 381.925V380.733C292.103 380.846 293.265 380.903 294.389 380.903C296.262 380.903 298.004 380.846 299.614 380.733C301.263 380.581 302.78 380.373 304.166 380.108V384.197C304.653 383.212 305.252 382.417 305.964 381.812C306.676 381.168 307.481 380.695 308.381 380.392C309.317 380.089 310.329 379.938 311.415 379.938Z" fill="#FFF7F7"/>
<path d="M323.859 410.602C322.098 410.602 320.656 410.262 319.532 409.58C318.408 408.899 317.584 408.009 317.059 406.911C316.572 405.813 316.329 404.659 316.329 403.447C316.329 401.857 316.685 400.57 317.396 399.586C318.108 398.564 319.026 397.75 320.15 397.144C321.311 396.5 322.529 395.97 323.802 395.554C325.076 395.138 326.275 394.74 327.399 394.361C328.56 393.945 329.497 393.472 330.208 392.942C330.92 392.374 331.276 391.655 331.276 390.784V385.73C331.276 385.124 331.164 384.462 330.939 383.742C330.752 383.023 330.377 382.398 329.815 381.868C329.253 381.338 328.41 381.073 327.286 381.073C326.687 381.073 326.106 381.168 325.544 381.357C325.02 381.509 324.552 381.736 324.14 382.039C325.451 382.531 326.406 383.231 327.005 384.14C327.605 385.011 327.904 385.976 327.904 387.036C327.904 388.55 327.38 389.743 326.331 390.614C325.282 391.484 324.046 391.92 322.622 391.92C321.124 391.92 319.963 391.446 319.138 390.5C318.314 389.554 317.902 388.38 317.902 386.979C317.902 385.806 318.183 384.821 318.745 384.026C319.344 383.193 320.225 382.436 321.386 381.755C322.51 381.111 323.859 380.657 325.432 380.392C327.005 380.089 328.654 379.938 330.377 379.938C332.213 379.938 333.917 380.127 335.491 380.506C337.064 380.846 338.413 381.603 339.536 382.777C340.323 383.61 340.829 384.651 341.054 385.9C341.278 387.15 341.391 388.759 341.391 390.727V405.946C341.391 406.892 341.447 407.536 341.559 407.877C341.709 408.217 341.953 408.388 342.29 408.388C342.59 408.388 342.87 408.293 343.133 408.104C343.432 407.915 343.713 407.725 343.976 407.536L344.538 408.501C343.713 409.221 342.683 409.751 341.447 410.091C340.248 410.432 338.974 410.602 337.626 410.602C336.015 410.602 334.76 410.413 333.861 410.035C332.999 409.618 332.381 409.088 332.007 408.445C331.669 407.763 331.482 407.044 331.445 406.287C330.658 407.536 329.665 408.577 328.466 409.41C327.305 410.205 325.769 410.602 323.859 410.602ZM329.197 406.06C329.609 406.06 329.965 406.003 330.265 405.889C330.602 405.738 330.939 405.473 331.276 405.094V393.112C331.014 393.604 330.658 394.096 330.208 394.589C329.796 395.043 329.365 395.516 328.916 396.008C328.466 396.5 328.036 397.03 327.623 397.598C327.249 398.166 326.93 398.829 326.668 399.586C326.443 400.305 326.331 401.157 326.331 402.141C326.331 403.58 326.593 404.602 327.118 405.208C327.68 405.776 328.373 406.06 329.197 406.06Z" fill="#FFF7F7"/>
<path d="M384.786 370V371.079C383.512 371.42 382.088 372.044 380.515 372.953C378.979 373.861 377.331 375.319 375.57 377.325L365.231 389.194L369.782 383.175L383.1 405.605C383.587 406.4 384.074 407.063 384.561 407.593C385.048 408.123 385.704 408.615 386.528 409.069V410.205C384.954 410.129 383.268 410.091 381.47 410.091C379.71 410.054 378.024 410.035 376.413 410.035C375.551 410.035 374.484 410.054 373.21 410.091C371.936 410.091 370.325 410.129 368.377 410.205V409.069C370.138 408.994 371.15 408.785 371.412 408.445C371.711 408.104 371.58 407.46 371.018 406.514L362.87 392.601C362.496 391.92 362.159 391.409 361.859 391.068C361.559 390.727 361.26 390.481 360.96 390.33C360.698 390.178 360.342 390.084 359.892 390.046V388.853C361.541 388.777 363.095 388.229 364.556 387.206C366.017 386.146 367.778 384.443 369.838 382.096L371.749 379.938C373.322 378.158 374.147 376.625 374.221 375.338C374.334 374.013 373.94 372.991 373.041 372.271C372.18 371.514 371.037 371.117 369.614 371.079V370C370.663 370.038 371.637 370.076 372.536 370.114C373.472 370.114 374.446 370.133 375.458 370.17C376.507 370.17 377.724 370.17 379.11 370.17C380.309 370.17 381.358 370.151 382.257 370.114C383.194 370.076 384.036 370.038 384.786 370ZM364.219 370V371.136C363.095 371.174 362.234 371.325 361.634 371.59C361.072 371.817 360.698 372.271 360.51 372.953C360.323 373.596 360.229 374.619 360.229 376.019V404.186C360.229 405.548 360.323 406.571 360.51 407.252C360.735 407.934 361.129 408.388 361.69 408.615C362.252 408.842 363.095 408.994 364.219 409.069V410.205C363.133 410.129 361.728 410.091 360.005 410.091C358.319 410.054 356.596 410.035 354.835 410.035C352.812 410.035 350.901 410.054 349.103 410.091C347.343 410.091 345.919 410.129 344.833 410.205V409.069C345.994 408.994 346.856 408.842 347.417 408.615C347.979 408.388 348.354 407.934 348.541 407.252C348.729 406.571 348.822 405.548 348.822 404.186V376.019C348.822 374.619 348.729 373.596 348.541 372.953C348.354 372.271 347.961 371.817 347.361 371.59C346.799 371.325 345.956 371.174 344.833 371.136V370C345.919 370.038 347.343 370.076 349.103 370.114C350.901 370.151 352.812 370.17 354.835 370.17C356.596 370.17 358.319 370.151 360.005 370.114C361.728 370.076 363.133 370.038 364.219 370Z" fill="#FFF7F7"/>
<path d="M413.853 380.108V404.015C413.853 405.719 414.078 406.987 414.528 407.82C415.015 408.615 415.839 409.012 417 409.012V410.205C415.839 410.091 414.677 410.035 413.516 410.035C411.643 410.035 409.901 410.091 408.29 410.205C406.679 410.319 405.162 410.527 403.738 410.83V406.741C402.839 408.255 401.622 409.353 400.086 410.035C398.587 410.678 396.827 411 394.804 411C393.081 411 391.713 410.773 390.702 410.319C389.728 409.902 388.978 409.372 388.454 408.729C387.892 408.047 387.48 407.139 387.218 406.003C386.956 404.867 386.824 403.334 386.824 401.403V386.922C386.824 385.219 386.6 383.97 386.15 383.175C385.701 382.342 384.876 381.925 383.678 381.925V380.733C384.876 380.846 386.038 380.903 387.162 380.903C389.035 380.903 390.777 380.846 392.388 380.733C394.036 380.581 395.553 380.373 396.939 380.108V404.47C396.939 405.265 397.033 405.927 397.22 406.457C397.407 406.987 397.707 407.385 398.119 407.65C398.531 407.915 399.056 408.047 399.693 408.047C400.404 408.047 401.06 407.877 401.659 407.536C402.259 407.195 402.746 406.722 403.12 406.116C403.532 405.473 403.738 404.753 403.738 403.958V386.922C403.738 385.219 403.514 383.97 403.064 383.175C402.615 382.342 401.79 381.925 400.592 381.925V380.733C401.79 380.846 402.952 380.903 404.076 380.903C405.949 380.903 407.691 380.846 409.302 380.733C410.95 380.581 412.467 380.373 413.853 380.108Z" fill="#FFF7F7"/>
</svg>
