<svg width="1060" height="197" viewBox="0 0 1060 197" fill="none" xmlns="http://www.w3.org/2000/svg">
<path d="M82.5723 172.627C82.5723 172.627 84.7129 172.667 76.3782 172.627C68.0891 172.586 66.8594 167.896 66.8594 167.896C65.1287 165.001 62.7149 162.88 59.2535 161.657C56.7941 160.76 54.3347 159.781 52.0119 158.68C46.8198 156.274 42.2198 153.094 37.9386 149.587C37.3465 149.097 36.8 148.608 36.1624 148.119C29.4673 142.899 26.2337 136.089 24.8218 128.463C24.4574 126.343 24.2297 124.182 24.2297 122.061C24.2297 119.655 24.8673 117.331 26.2337 115.21C26.5525 114.68 27.0079 114.232 27.4634 113.661C32.6554 118.432 37.3465 123.488 44.5881 125.894C43.8594 126.098 43.0851 126.261 42.3564 126.506C40.4891 127.077 38.6673 127.688 36.8455 128.341C35.5248 128.83 34.8871 129.809 34.8416 131.032C34.796 131.889 34.7049 132.786 34.9327 133.601C36.2079 138.862 40.4436 142.695 46.1822 143.47C49.4158 143.918 52.1941 142.94 54.2436 140.615C55.5188 139.147 55.5188 137.842 54.198 136.415C53.8337 136.782 53.5604 137.149 53.196 137.475C51.2832 139.392 49.0059 140.371 46.0911 139.718C43.8594 139.229 42.3109 137.598 42.0832 135.559C41.4455 130.461 46.1822 126.465 51.8752 127.321C52.7861 127.444 53.7426 127.729 54.6079 128.096C57.1584 129.116 59.4356 130.502 61.4851 132.215C66.404 136.374 70.6852 140.982 73.8277 146.365C75.8317 149.791 77.8356 153.216 79.8396 156.641C80.0218 156.927 80.204 157.171 80.5683 157.702C80.9327 157.09 81.2059 156.682 81.4337 156.234C84.1208 151.829 86.6713 147.385 89.4495 143.062C92.2277 138.78 96.0535 135.233 100.061 131.848C102.111 130.135 104.479 128.871 107.03 127.852C112.814 125.568 119.099 129.279 119.008 134.906C118.962 138.209 115.82 140.452 112.176 139.841C110.354 139.514 108.897 138.699 107.758 137.475C107.44 137.149 107.166 136.823 106.893 136.497C105.709 137.394 105.481 138.78 106.347 140.085C107.394 141.676 108.943 142.736 110.901 143.266C112.768 143.755 114.681 143.755 116.549 143.184C122.014 141.553 125.065 138.005 126.158 133.03C126.295 132.419 126.249 131.807 126.158 131.195C126.022 129.891 125.339 128.83 123.927 128.3C122.196 127.688 120.465 127.158 118.689 126.587C117.915 126.343 117.095 126.18 116.002 125.894C116.503 125.69 116.64 125.568 116.822 125.527C119.509 124.875 121.741 123.529 123.881 122.02C126.933 119.9 129.62 117.453 132.216 114.925C132.58 114.558 132.945 114.232 133.446 113.742C133.901 114.313 134.356 114.762 134.675 115.292C136.087 117.494 136.725 119.9 136.679 122.428C136.634 130.421 134.311 137.761 128.982 144.285C126.842 146.895 124.063 148.893 121.376 151.014C115.865 155.377 109.853 159.047 102.885 161.29C98.1941 162.799 95.1881 164.022 93.1386 167.978C91.6812 171.811 82.5723 172.627 82.5723 172.627ZM76.196 165.409C75.9228 164.675 75.8317 164.226 75.6495 163.859C74.602 161.82 73.6455 159.741 72.5069 157.783C70.0931 153.461 67.2693 149.383 63.5802 145.835C63.0792 145.346 62.5327 144.938 62.1683 144.612C60.5287 145.672 59.1624 146.732 57.6139 147.507C56.0653 148.323 54.3802 148.853 52.7406 149.505C52.8772 149.668 52.8772 149.791 52.9683 149.831C54.198 150.402 55.3822 151.055 56.6119 151.544C63.7168 154.521 69.6832 158.803 74.6475 164.226C74.8752 164.471 75.103 164.756 75.3762 164.96C75.5129 165.083 75.7406 165.164 76.196 165.409ZM106.574 149.464C105.39 149.016 104.251 148.649 103.158 148.2C102.02 147.711 100.881 147.181 99.8337 146.528C98.8772 145.917 98.0119 145.183 97.1465 144.489C92.4099 148.037 83.2099 161.861 83.301 165.49C86.6257 162.065 89.7683 158.64 93.8218 156.193C97.8752 153.828 102.202 151.789 106.574 149.464Z" fill="#E23535"/>
<path d="M107.622 107.911C109.58 108.522 111.311 108.155 112.95 107.381C114.499 106.647 115.82 105.627 116.776 104.322C118.279 102.243 119.691 100.122 121.057 97.9608C121.968 96.4928 122.697 94.9024 123.517 93.3936C123.79 92.9043 124.154 92.4965 124.61 91.844C124.883 92.3334 125.156 92.578 125.202 92.8635C125.84 97.3084 126.067 101.753 124.655 106.117C122.97 111.377 119.19 114.721 113.269 116.189C111.038 116.719 108.943 117.535 106.711 118.146C105.39 118.513 103.978 118.84 102.612 118.962C100.836 119.084 99.8792 118.309 99.9247 116.719C100.016 113.049 98.3762 109.991 96.0079 107.136C92.7287 103.221 89.5406 99.3065 86.3069 95.3918C83.2554 91.7217 82.5723 87.5215 83.1644 83.1174C84.0752 76.3889 87.1267 70.3536 90.7703 64.4815C91.4079 63.4213 92.3188 62.4833 93.2297 61.5862C95.2337 59.6696 98.3307 59.1803 101.018 60.1997C101.2 60.2813 101.382 60.3629 101.564 60.4444C102.885 61.1376 103.842 62.1163 103.842 63.5844C103.796 64.9708 102.885 65.9495 101.564 66.5612C100.972 66.8467 100.335 67.0913 99.6515 67.2137C97.7842 67.4991 95.7347 69.8235 95.6891 71.8217C95.6891 72.5149 95.7346 73.2081 95.8257 73.9422C96.1445 77.1637 95.9624 80.3036 94.8238 83.4028C94.7327 83.6475 94.6871 83.9329 94.6416 84.2592C95.9168 85.1563 97.2376 85.2379 98.4218 84.4631C99.3782 83.8514 100.244 83.0358 100.881 82.1795C102.475 80.0997 103.341 77.7346 104.069 75.3286C104.297 74.5131 104.525 73.6567 104.935 72.9227C105.937 71.21 108.259 70.6799 110.036 71.6586C111.721 72.5965 112.267 74.5946 111.22 76.1034C110.673 76.919 109.853 77.3676 108.806 77.5715C108.396 77.653 107.986 77.6938 107.576 77.8569C106.984 78.1016 106.756 78.5909 106.802 79.1211C106.802 79.6104 107.121 79.8551 107.622 80.0182C108.305 80.2221 108.988 80.5075 109.671 80.7522C111.539 81.527 113.269 82.5057 114.681 83.8106C116.594 85.5641 117.733 87.603 117.96 90.0497C118.097 91.3954 118.143 92.7411 118.051 94.0868C117.915 96.3704 116.731 98.3278 114.954 99.9182C113.861 100.938 112.586 101.794 111.448 102.732C110.446 103.588 109.398 104.485 108.487 105.423C107.986 106.076 107.576 106.851 107.622 107.911ZM99.9703 97.8793C102.475 98.5725 104.251 98.6133 105.754 98.1647C106.802 97.8793 107.622 97.3083 108.077 96.4112C109.079 94.5762 108.259 90.4575 106.483 88.7448C105.481 92.4149 103.341 95.3918 99.9703 97.8793Z" fill="#E23535"/>
<path d="M51.5109 108.033C51.6931 106.973 51.2832 106.239 50.7366 105.668C49.7802 104.649 48.6871 103.67 47.5941 102.732C46.5921 101.876 45.4535 101.101 44.4059 100.204C41.1723 97.4307 40.5347 93.9237 41.0356 90.0905C41.6277 85.5233 44.7703 82.7096 49.1426 80.793C49.8257 80.4667 50.6 80.2221 51.3287 80.0182C51.8752 79.8551 52.2851 79.6512 52.2396 79.0395C52.1941 78.4278 51.9208 77.9385 51.2832 77.7346C50.9188 77.6122 50.5545 77.6122 50.1901 77.5307C48.5505 77.2044 47.4119 76.0626 47.2752 74.5946C47.1386 73.2489 48.1406 71.944 49.598 71.4139C51.101 70.8838 52.8772 71.2508 53.7881 72.5149C54.2891 73.2081 54.5624 74.0237 54.8812 74.8393C55.7465 76.9598 56.4753 79.0803 57.5228 81.16C58.0693 82.2202 58.9802 83.2397 59.9366 84.0553C61.3485 85.2786 62.6238 85.2786 64.4455 84.3815C64.4455 84.1776 64.4455 83.9737 64.3545 83.7698C63.398 81.4047 63.1247 78.9172 63.1703 76.4297C63.2158 75.1655 63.2158 73.9014 63.3069 72.6372C63.4891 70.109 61.895 68.07 59.2079 67.2952C58.5247 67.0913 57.796 66.8874 57.204 66.5204C54.6079 65.0524 54.6079 62.2794 57.1584 60.7299C59.6634 59.221 63.4436 59.4657 65.5842 61.3823C66.6317 62.3202 67.6337 63.4213 68.3624 64.5631C71.7782 70.0682 74.7386 75.7772 75.7861 82.0979C76.6059 86.9913 76.0594 91.6401 72.598 95.718C69.4554 99.4288 66.404 103.18 63.3525 106.891C61.6673 108.93 60.0277 111.01 59.5267 113.579C59.3446 114.435 59.3446 115.333 59.299 116.23C59.2079 118.391 58.2515 119.247 55.8376 118.962C54.6535 118.84 53.5149 118.472 52.3762 118.146C50.3723 117.575 48.4594 116.801 46.4554 116.352C37.802 114.395 34.6139 108.889 33.703 102.936C33.2475 99.9182 33.4297 96.9413 33.7485 93.9645C33.8396 93.3528 34.0673 92.7004 34.2495 92.0479C35.2059 92.3333 35.4337 93.0266 35.7069 93.5567C36.8911 95.6364 37.9842 97.7977 39.1683 99.8774C40.4891 102.12 41.9921 104.282 44.0871 106.035C45.499 107.218 47.1386 108.074 49.097 108.196C49.8713 108.237 50.6911 108.074 51.5109 108.033ZM52.604 88.6633C51.2376 90.376 50.3267 93.4344 50.6 95.0247C50.9188 96.9413 51.9663 97.9608 54.0614 98.3278C55.701 98.6133 57.295 98.4909 59.2079 97.8385C55.7921 95.4325 53.7426 92.4557 52.604 88.6633Z" fill="#E23535"/>
<path d="M81.5703 147.67C81.6614 146.161 81.8891 144.652 81.8891 143.144C81.8891 138.862 81.8436 134.58 81.6614 130.258C81.5247 126.506 81.1604 122.754 80.8871 119.003C80.6139 115.496 80.2495 111.989 79.8851 108.441C79.8851 108.319 79.794 108.196 79.703 108.033C79.202 108.849 78.3822 115.822 78.1544 121.164C77.9267 125.527 77.5624 129.931 77.3346 134.295C77.1069 138.699 77.1069 143.144 77.6535 147.548C77.5624 147.588 77.4257 147.588 77.3346 147.629C77.0614 147.181 76.7881 146.773 76.5604 146.324C75.2396 143.715 73.9643 141.105 72.5525 138.536C71.5505 136.701 70.3663 134.947 69.1366 133.194C67.998 131.562 66.6317 130.135 64.4911 129.401C63.398 129.034 63.2158 128.137 63.3525 127.24C63.5346 126.18 63.7168 125.038 64.1723 124.059C65.2653 121.653 66.4039 119.207 67.7247 116.882C75.194 103.833 76.9247 103.547 77.699 102.569C78.2455 101.916 78.8376 101.305 79.5208 100.53C80.1129 101.142 80.6594 101.631 81.1148 102.202C85.0772 106.891 88.5841 111.866 91.5445 117.086C92.9109 119.492 94.095 122.02 95.1426 124.549C95.598 125.568 95.598 126.791 95.6891 127.892C95.7346 128.545 95.3703 129.116 94.6416 129.36C92.4554 130.094 91.0435 131.562 89.9049 133.275C88.4475 135.477 87.0356 137.761 85.7604 140.044C84.6218 142.083 83.6198 144.204 82.5723 146.284C82.3445 146.773 82.0713 147.221 81.798 147.67C81.7525 147.711 81.6614 147.67 81.5703 147.67Z" fill="#E23535"/>
<path d="M24.2752 141.186C24.2752 141.186 16.396 166.306 0 166.51L61.0752 166.754L23.2733 160.271C23.2733 160.271 31.7901 160.556 24.2752 141.186Z" fill="#E23535"/>
<path d="M136.725 141.186C136.725 141.186 144.604 166.306 161 166.51L99.9247 166.754L137.727 160.271C137.681 160.271 129.164 160.556 136.725 141.186Z" fill="#E23535"/>
<path d="M60.3465 50.6575L66.6317 48.4555C75.3307 45.3971 85.0317 45.4378 93.6851 48.6186L99.2416 50.6575L96.7822 48.4963C89.0851 41.6454 83.1643 33.4081 79.3841 24.3553C75.6495 33.6936 69.6376 42.2163 61.8495 49.271L60.3465 50.6575Z" fill="#E23535"/>
<path d="M69.3644 52.4926C69.4099 52.5741 69.4554 52.6557 69.4554 52.778C70.1386 54.246 70.8673 55.7141 71.6871 57.1006C72.9624 59.2618 74.4198 61.3415 75.695 63.462C77.0614 65.7456 78.2455 68.07 79.4752 70.2721C80.3406 68.6409 81.2059 66.8874 82.2079 65.1747C83.2554 63.4213 84.4396 61.7086 85.5327 59.9551C86.3525 58.6909 87.2178 57.386 87.9921 56.0811C88.9485 54.4499 89.5861 53.1858 89.9049 52.044C80.2495 50.4944 73.2812 51.4731 69.3644 52.4926Z" fill="#E23535"/>
<path d="M287.784 55.216V58.176C284.824 58.768 282.555 59.804 280.976 61.284C279.496 62.764 278.509 65.0827 278.016 68.24C277.523 71.2987 277.276 75.64 277.276 81.264V160C275.796 159.803 274.168 159.704 272.392 159.704C270.715 159.704 268.889 159.803 266.916 160L201.352 88.368V130.992C201.352 137.603 201.599 142.684 202.092 146.236C202.684 149.689 204.016 152.205 206.088 153.784C208.259 155.264 211.663 156.349 216.3 157.04V160C214.327 159.803 211.761 159.704 208.604 159.704C205.447 159.605 202.487 159.556 199.724 159.556C197.553 159.556 195.333 159.605 193.064 159.704C190.795 159.704 188.92 159.803 187.44 160V157.04C190.499 156.349 192.768 155.313 194.248 153.932C195.728 152.452 196.715 150.133 197.208 146.976C197.701 143.819 197.948 139.477 197.948 133.952V70.904C197.948 67.2533 197.701 64.5893 197.208 62.912C196.715 61.136 195.679 59.952 194.1 59.36C192.62 58.6693 190.4 58.2747 187.44 58.176V55.216C188.92 55.3147 190.795 55.4133 193.064 55.512C195.333 55.6107 197.553 55.66 199.724 55.66C202.191 55.66 204.608 55.6107 206.976 55.512C209.344 55.4133 211.465 55.3147 213.34 55.216L273.872 119.152V84.224C273.872 77.6133 273.576 72.5813 272.984 69.128C272.491 65.576 271.208 63.0107 269.136 61.432C267.064 59.8533 263.66 58.768 258.924 58.176V55.216C260.897 55.3147 263.463 55.4133 266.62 55.512C269.777 55.6107 272.737 55.66 275.5 55.66C277.769 55.66 279.989 55.6107 282.16 55.512C284.429 55.4133 286.304 55.3147 287.784 55.216ZM365.75 81.56V143.868C365.75 148.308 366.342 151.613 367.526 153.784C368.809 155.856 370.979 156.892 374.038 156.892V160C370.979 159.704 367.921 159.556 364.862 159.556C359.929 159.556 355.341 159.704 351.098 160C346.855 160.296 342.859 160.839 339.11 161.628V150.972C336.742 154.919 333.535 157.78 329.49 159.556C325.543 161.233 320.906 162.072 315.578 162.072C311.039 162.072 307.438 161.48 304.774 160.296C302.209 159.211 300.235 157.829 298.854 156.152C297.374 154.376 296.289 152.008 295.598 149.048C294.907 146.088 294.562 142.092 294.562 137.06V99.32C294.562 94.88 293.97 91.624 292.786 89.552C291.602 87.3813 289.431 86.296 286.274 86.296V83.188C289.431 83.484 292.49 83.632 295.45 83.632C300.383 83.632 304.971 83.484 309.214 83.188C313.555 82.7933 317.551 82.2507 321.202 81.56V145.052C321.202 147.124 321.449 148.851 321.942 150.232C322.435 151.613 323.225 152.649 324.31 153.34C325.395 154.031 326.777 154.376 328.454 154.376C330.329 154.376 332.055 153.932 333.634 153.044C335.213 152.156 336.495 150.923 337.482 149.344C338.567 147.667 339.11 145.792 339.11 143.72V99.32C339.11 94.88 338.518 91.624 337.334 89.552C336.15 87.3813 333.979 86.296 330.822 86.296V83.188C333.979 83.484 337.038 83.632 339.998 83.632C344.931 83.632 349.519 83.484 353.762 83.188C358.103 82.7933 362.099 82.2507 365.75 81.56ZM406.46 81.116C410.802 81.116 414.6 81.6093 417.856 82.596C421.211 83.484 423.628 84.3227 425.108 85.112C428.562 87.184 430.683 85.9013 431.472 81.264H434.432C434.235 84.1253 434.087 87.628 433.988 91.772C433.89 95.8173 433.84 101.195 433.84 107.904H430.88C430.486 104.253 429.598 100.652 428.216 97.1C426.934 93.548 425.01 90.588 422.444 88.22C419.978 85.852 416.722 84.668 412.676 84.668C410.21 84.668 408.138 85.408 406.46 86.888C404.783 88.368 403.944 90.3907 403.944 92.956C403.944 95.916 404.832 98.58 406.608 100.948C408.384 103.217 410.654 105.437 413.416 107.608C416.179 109.68 418.942 111.9 421.704 114.268C424.763 116.735 427.476 119.152 429.844 121.52C432.212 123.888 434.087 126.503 435.468 129.364C436.948 132.127 437.688 135.432 437.688 139.28C437.688 143.72 436.307 147.667 433.544 151.12C430.88 154.573 427.279 157.287 422.74 159.26C418.3 161.135 413.318 162.072 407.792 162.072C404.339 162.072 401.33 161.677 398.764 160.888C396.199 160.197 394.127 159.359 392.548 158.372C390.97 157.583 389.588 156.991 388.404 156.596C387.319 156.103 386.234 155.856 385.148 155.856C384.162 155.856 383.323 156.399 382.632 157.484C381.942 158.471 381.399 159.655 381.004 161.036H378.044C378.242 157.879 378.39 154.031 378.488 149.492C378.587 144.953 378.636 138.935 378.636 131.436H381.596C382.188 136.665 383.323 141.303 385 145.348C386.776 149.393 388.996 152.6 391.66 154.968C394.423 157.237 397.58 158.372 401.132 158.372C402.711 158.372 404.142 158.076 405.424 157.484C406.707 156.892 407.743 156.004 408.532 154.82C409.322 153.636 409.716 152.107 409.716 150.232C409.716 145.891 408.384 142.24 405.72 139.28C403.155 136.32 399.899 133.064 395.952 129.512C392.992 126.749 390.18 124.085 387.516 121.52C384.951 118.856 382.83 115.995 381.152 112.936C379.475 109.779 378.636 106.276 378.636 102.428C378.636 97.988 379.919 94.1893 382.484 91.032C385.148 87.8747 388.602 85.4573 392.844 83.78C397.087 82.004 401.626 81.116 406.46 81.116ZM460.729 161.036C456.092 161.036 452.293 160.148 449.333 158.372C446.373 156.596 444.202 154.277 442.821 151.416C441.538 148.555 440.897 145.545 440.897 142.388C440.897 138.244 441.834 134.889 443.709 132.324C445.584 129.66 448.001 127.539 450.961 125.96C454.02 124.283 457.226 122.901 460.581 121.816C463.936 120.731 467.093 119.695 470.053 118.708C473.112 117.623 475.578 116.389 477.453 115.008C479.328 113.528 480.265 111.653 480.265 109.384V96.212C480.265 94.6333 479.969 92.9067 479.377 91.032C478.884 89.1573 477.897 87.5293 476.417 86.148C474.937 84.7667 472.717 84.076 469.757 84.076C468.178 84.076 466.649 84.3227 465.169 84.816C463.788 85.2107 462.554 85.8027 461.469 86.592C464.922 87.8747 467.438 89.7 469.017 92.068C470.596 94.3373 471.385 96.8533 471.385 99.616C471.385 103.563 470.004 106.671 467.241 108.94C464.478 111.209 461.222 112.344 457.473 112.344C453.526 112.344 450.468 111.111 448.297 108.644C446.126 106.177 445.041 103.119 445.041 99.468C445.041 96.4093 445.781 93.844 447.261 91.772C448.84 89.6013 451.158 87.628 454.217 85.852C457.177 84.1747 460.729 82.9907 464.873 82.3C469.017 81.5107 473.358 81.116 477.897 81.116C482.732 81.116 487.221 81.6093 491.365 82.596C495.509 83.484 499.061 85.4573 502.021 88.516C504.093 90.6867 505.425 93.4 506.017 96.656C506.609 99.912 506.905 104.105 506.905 109.236V148.9C506.905 151.367 507.053 153.044 507.349 153.932C507.744 154.82 508.385 155.264 509.273 155.264C510.062 155.264 510.802 155.017 511.493 154.524C512.282 154.031 513.022 153.537 513.713 153.044L515.193 155.56C513.022 157.435 510.309 158.816 507.053 159.704C503.896 160.592 500.541 161.036 496.989 161.036C492.746 161.036 489.441 160.543 487.073 159.556C484.804 158.471 483.176 157.089 482.189 155.412C481.301 153.636 480.808 151.761 480.709 149.788C478.637 153.044 476.022 155.757 472.865 157.928C469.806 160 465.761 161.036 460.729 161.036ZM474.789 149.196C475.874 149.196 476.812 149.048 477.601 148.752C478.489 148.357 479.377 147.667 480.265 146.68V115.452C479.574 116.735 478.637 118.017 477.453 119.3C476.368 120.484 475.233 121.717 474.049 123C472.865 124.283 471.73 125.664 470.645 127.144C469.658 128.624 468.82 130.351 468.129 132.324C467.537 134.199 467.241 136.419 467.241 138.984C467.241 142.733 467.932 145.397 469.313 146.976C470.793 148.456 472.618 149.196 474.789 149.196ZM573.394 81.116C577.933 81.116 581.485 81.708 584.05 82.892C586.714 83.9773 588.737 85.3587 590.118 87.036C591.598 88.812 592.683 91.18 593.374 94.14C594.065 97.1 594.41 101.096 594.41 106.128V146.236C594.41 150.38 595.002 153.192 596.186 154.672C597.469 156.152 599.639 156.892 602.698 156.892V160C600.725 159.901 597.715 159.803 593.67 159.704C589.723 159.507 585.826 159.408 581.978 159.408C577.834 159.408 573.789 159.507 569.842 159.704C565.895 159.803 562.935 159.901 560.962 160V156.892C563.527 156.892 565.303 156.152 566.29 154.672C567.277 153.192 567.77 150.38 567.77 146.236V98.136C567.77 96.064 567.523 94.3373 567.03 92.956C566.537 91.5747 565.747 90.5387 564.662 89.848C563.675 89.1573 562.294 88.812 560.518 88.812C558.742 88.812 557.015 89.256 555.338 90.144C553.759 91.032 552.427 92.3147 551.342 93.992C550.355 95.5707 549.862 97.396 549.862 99.468V146.236C549.862 150.38 550.355 153.192 551.342 154.672C552.427 156.152 554.203 156.892 556.67 156.892V160C554.795 159.901 552.033 159.803 548.382 159.704C544.731 159.507 540.982 159.408 537.134 159.408C532.99 159.408 528.797 159.507 524.554 159.704C520.311 159.803 517.105 159.901 514.934 160V156.892C517.993 156.892 520.114 156.152 521.298 154.672C522.581 153.192 523.222 150.38 523.222 146.236V99.32C523.222 94.88 522.63 91.624 521.446 89.552C520.262 87.3813 518.091 86.296 514.934 86.296V83.188C518.091 83.484 521.15 83.632 524.11 83.632C529.043 83.632 533.631 83.484 537.874 83.188C542.215 82.7933 546.211 82.2507 549.862 81.56V92.216C552.23 88.2693 555.387 85.4573 559.334 83.78C563.379 82.004 568.066 81.116 573.394 81.116ZM637.182 59.212V83.188H651.686V86.148H637.182V147.568C637.182 149.443 637.527 150.824 638.218 151.712C638.909 152.501 640.043 152.896 641.622 152.896C642.707 152.896 643.99 152.6 645.47 152.008C646.95 151.317 648.331 150.183 649.614 148.604L651.834 150.38C649.762 153.932 646.999 156.793 643.546 158.964C640.191 161.036 635.949 162.072 630.818 162.072C627.562 162.072 624.602 161.628 621.938 160.74C619.373 159.951 617.251 158.717 615.574 157.04C613.403 154.869 612.022 152.205 611.43 149.048C610.838 145.792 610.542 141.599 610.542 136.468V86.148H599.294V83.188H610.542V65.724C615.771 65.724 620.507 65.2307 624.75 64.244C629.091 63.1587 633.235 61.4813 637.182 59.212ZM670.276 161.036C665.639 161.036 661.84 160.148 658.88 158.372C655.92 156.596 653.749 154.277 652.368 151.416C651.085 148.555 650.444 145.545 650.444 142.388C650.444 138.244 651.381 134.889 653.256 132.324C655.131 129.66 657.548 127.539 660.508 125.96C663.567 124.283 666.773 122.901 670.128 121.816C673.483 120.731 676.64 119.695 679.6 118.708C682.659 117.623 685.125 116.389 687 115.008C688.875 113.528 689.812 111.653 689.812 109.384V96.212C689.812 94.6333 689.516 92.9067 688.924 91.032C688.431 89.1573 687.444 87.5293 685.964 86.148C684.484 84.7667 682.264 84.076 679.304 84.076C677.725 84.076 676.196 84.3227 674.716 84.816C673.335 85.2107 672.101 85.8027 671.016 86.592C674.469 87.8747 676.985 89.7 678.564 92.068C680.143 94.3373 680.932 96.8533 680.932 99.616C680.932 103.563 679.551 106.671 676.788 108.94C674.025 111.209 670.769 112.344 667.02 112.344C663.073 112.344 660.015 111.111 657.844 108.644C655.673 106.177 654.588 103.119 654.588 99.468C654.588 96.4093 655.328 93.844 656.808 91.772C658.387 89.6013 660.705 87.628 663.764 85.852C666.724 84.1747 670.276 82.9907 674.42 82.3C678.564 81.5107 682.905 81.116 687.444 81.116C692.279 81.116 696.768 81.6093 700.912 82.596C705.056 83.484 708.608 85.4573 711.568 88.516C713.64 90.6867 714.972 93.4 715.564 96.656C716.156 99.912 716.452 104.105 716.452 109.236V148.9C716.452 151.367 716.6 153.044 716.896 153.932C717.291 154.82 717.932 155.264 718.82 155.264C719.609 155.264 720.349 155.017 721.04 154.524C721.829 154.031 722.569 153.537 723.26 153.044L724.74 155.56C722.569 157.435 719.856 158.816 716.6 159.704C713.443 160.592 710.088 161.036 706.536 161.036C702.293 161.036 698.988 160.543 696.62 159.556C694.351 158.471 692.723 157.089 691.736 155.412C690.848 153.636 690.355 151.761 690.256 149.788C688.184 153.044 685.569 155.757 682.412 157.928C679.353 160 675.308 161.036 670.276 161.036ZM684.336 149.196C685.421 149.196 686.359 149.048 687.148 148.752C688.036 148.357 688.924 147.667 689.812 146.68V115.452C689.121 116.735 688.184 118.017 687 119.3C685.915 120.484 684.78 121.717 683.596 123C682.412 124.283 681.277 125.664 680.192 127.144C679.205 128.624 678.367 130.351 677.676 132.324C677.084 134.199 676.788 136.419 676.788 138.984C676.788 142.733 677.479 145.397 678.86 146.976C680.34 148.456 682.165 149.196 684.336 149.196ZM778.501 81.116C782.053 81.116 784.816 81.9053 786.789 83.484C788.762 84.964 790.144 86.888 790.933 89.256C791.722 91.5253 792.117 93.7947 792.117 96.064C792.117 100.504 790.834 104.056 788.269 106.72C785.802 109.285 782.546 110.568 778.501 110.568C774.16 110.568 770.854 109.581 768.585 107.608C766.414 105.635 765.329 103.069 765.329 99.912C765.329 96.5573 766.02 93.7947 767.401 91.624C768.881 89.4533 770.706 87.628 772.877 86.148C771.101 86.148 769.522 86.4933 768.141 87.184C766.957 87.6773 765.822 88.368 764.737 89.256C763.652 90.144 762.714 91.18 761.925 92.364C761.136 93.4493 760.494 94.6827 760.001 96.064C759.606 97.4453 759.409 98.876 759.409 100.356V144.756C759.409 149.492 760.396 152.699 762.369 154.376C764.342 156.053 767.598 156.892 772.137 156.892V160C769.868 159.901 766.464 159.803 761.925 159.704C757.485 159.507 752.897 159.408 748.161 159.408C743.721 159.408 739.232 159.507 734.693 159.704C730.154 159.803 726.75 159.901 724.481 160V156.892C727.54 156.892 729.661 156.152 730.845 154.672C732.128 153.192 732.769 150.38 732.769 146.236V99.32C732.769 94.88 732.177 91.624 730.993 89.552C729.809 87.3813 727.638 86.296 724.481 86.296V83.188C727.638 83.484 730.697 83.632 733.657 83.632C738.59 83.632 743.178 83.484 747.421 83.188C751.762 82.7933 755.758 82.2507 759.409 81.56V92.216C760.692 89.6507 762.27 87.5787 764.145 86C766.02 84.3227 768.141 83.0893 770.509 82.3C772.976 81.5107 775.64 81.116 778.501 81.116ZM811.275 161.036C806.638 161.036 802.839 160.148 799.879 158.372C796.919 156.596 794.748 154.277 793.367 151.416C792.084 148.555 791.443 145.545 791.443 142.388C791.443 138.244 792.38 134.889 794.255 132.324C796.13 129.66 798.547 127.539 801.507 125.96C804.566 124.283 807.772 122.901 811.127 121.816C814.482 120.731 817.639 119.695 820.599 118.708C823.658 117.623 826.124 116.389 827.999 115.008C829.874 113.528 830.811 111.653 830.811 109.384V96.212C830.811 94.6333 830.515 92.9067 829.923 91.032C829.43 89.1573 828.443 87.5293 826.963 86.148C825.483 84.7667 823.263 84.076 820.303 84.076C818.724 84.076 817.195 84.3227 815.715 84.816C814.334 85.2107 813.1 85.8027 812.015 86.592C815.468 87.8747 817.984 89.7 819.563 92.068C821.142 94.3373 821.931 96.8533 821.931 99.616C821.931 103.563 820.55 106.671 817.787 108.94C815.024 111.209 811.768 112.344 808.019 112.344C804.072 112.344 801.014 111.111 798.843 108.644C796.672 106.177 795.587 103.119 795.587 99.468C795.587 96.4093 796.327 93.844 797.807 91.772C799.386 89.6013 801.704 87.628 804.763 85.852C807.723 84.1747 811.275 82.9907 815.419 82.3C819.563 81.5107 823.904 81.116 828.443 81.116C833.278 81.116 837.767 81.6093 841.911 82.596C846.055 83.484 849.607 85.4573 852.567 88.516C854.639 90.6867 855.971 93.4 856.563 96.656C857.155 99.912 857.451 104.105 857.451 109.236V148.9C857.451 151.367 857.599 153.044 857.895 153.932C858.29 154.82 858.931 155.264 859.819 155.264C860.608 155.264 861.348 155.017 862.039 154.524C862.828 154.031 863.568 153.537 864.259 153.044L865.739 155.56C863.568 157.435 860.855 158.816 857.599 159.704C854.442 160.592 851.087 161.036 847.535 161.036C843.292 161.036 839.987 160.543 837.619 159.556C835.35 158.471 833.722 157.089 832.735 155.412C831.847 153.636 831.354 151.761 831.255 149.788C829.183 153.044 826.568 155.757 823.411 157.928C820.352 160 816.307 161.036 811.275 161.036ZM825.335 149.196C826.42 149.196 827.358 149.048 828.147 148.752C829.035 148.357 829.923 147.667 830.811 146.68V115.452C830.12 116.735 829.183 118.017 827.999 119.3C826.914 120.484 825.779 121.717 824.595 123C823.411 124.283 822.276 125.664 821.191 127.144C820.204 128.624 819.366 130.351 818.675 132.324C818.083 134.199 817.787 136.419 817.787 138.984C817.787 142.733 818.478 145.397 819.859 146.976C821.339 148.456 823.164 149.196 825.335 149.196Z" fill="black"/>
<path d="M971.744 55.216V58.028C968.389 58.916 964.64 60.544 960.496 62.912C956.451 65.28 952.109 69.0787 947.472 74.308L920.24 105.24L932.228 89.552L967.304 148.012C968.587 150.084 969.869 151.811 971.152 153.192C972.435 154.573 974.161 155.856 976.332 157.04V160C972.188 159.803 967.748 159.704 963.012 159.704C958.375 159.605 953.935 159.556 949.692 159.556C947.423 159.556 944.611 159.605 941.256 159.704C937.901 159.704 933.659 159.803 928.528 160V157.04C933.165 156.843 935.829 156.3 936.52 155.412C937.309 154.524 936.964 152.847 935.484 150.38L914.024 114.12C913.037 112.344 912.149 111.012 911.36 110.124C910.571 109.236 909.781 108.595 908.992 108.2C908.301 107.805 907.364 107.559 906.18 107.46V104.352C910.521 104.155 914.616 102.724 918.464 100.06C922.312 97.2973 926.949 92.8573 932.376 86.74L937.408 81.116C941.552 76.4787 943.723 72.4827 943.92 69.128C944.216 65.6747 943.18 63.0107 940.812 61.136C938.543 59.1627 935.533 58.1267 931.784 58.028V55.216C934.547 55.3147 937.112 55.4133 939.48 55.512C941.947 55.512 944.512 55.5613 947.176 55.66C949.939 55.66 953.145 55.66 956.796 55.66C959.953 55.66 962.716 55.6107 965.084 55.512C967.551 55.4133 969.771 55.3147 971.744 55.216ZM917.576 55.216V58.176C914.616 58.2747 912.347 58.6693 910.768 59.36C909.288 59.952 908.301 61.136 907.808 62.912C907.315 64.5893 907.068 67.2533 907.068 70.904V144.312C907.068 147.864 907.315 150.528 907.808 152.304C908.4 154.08 909.436 155.264 910.916 155.856C912.396 156.448 914.616 156.843 917.576 157.04V160C914.715 159.803 911.015 159.704 906.476 159.704C902.036 159.605 897.497 159.556 892.86 159.556C887.532 159.556 882.5 159.605 877.764 159.704C873.127 159.704 869.377 159.803 866.516 160V157.04C869.575 156.843 871.844 156.448 873.324 155.856C874.804 155.264 875.791 154.08 876.284 152.304C876.777 150.528 877.024 147.864 877.024 144.312V70.904C877.024 67.2533 876.777 64.5893 876.284 62.912C875.791 61.136 874.755 59.952 873.176 59.36C871.696 58.6693 869.476 58.2747 866.516 58.176V55.216C869.377 55.3147 873.127 55.4133 877.764 55.512C882.5 55.6107 887.532 55.66 892.86 55.66C897.497 55.66 902.036 55.6107 906.476 55.512C911.015 55.4133 914.715 55.3147 917.576 55.216ZM1048.3 81.56V143.868C1048.3 148.308 1048.89 151.613 1050.08 153.784C1051.36 155.856 1053.53 156.892 1056.59 156.892V160C1053.53 159.704 1050.47 159.556 1047.41 159.556C1042.48 159.556 1037.89 159.704 1033.65 160C1029.41 160.296 1025.41 160.839 1021.66 161.628V150.972C1019.29 154.919 1016.09 157.78 1012.04 159.556C1008.09 161.233 1003.46 162.072 998.13 162.072C993.591 162.072 989.99 161.48 987.326 160.296C984.76 159.211 982.787 157.829 981.406 156.152C979.926 154.376 978.84 152.008 978.15 149.048C977.459 146.088 977.114 142.092 977.114 137.06V99.32C977.114 94.88 976.522 91.624 975.338 89.552C974.154 87.3813 971.983 86.296 968.826 86.296V83.188C971.983 83.484 975.042 83.632 978.002 83.632C982.935 83.632 987.523 83.484 991.766 83.188C996.107 82.7933 1000.1 82.2507 1003.75 81.56V145.052C1003.75 147.124 1004 148.851 1004.49 150.232C1004.99 151.613 1005.78 152.649 1006.86 153.34C1007.95 154.031 1009.33 154.376 1011.01 154.376C1012.88 154.376 1014.61 153.932 1016.19 153.044C1017.76 152.156 1019.05 150.923 1020.03 149.344C1021.12 147.667 1021.66 145.792 1021.66 143.72V99.32C1021.66 94.88 1021.07 91.624 1019.89 89.552C1018.7 87.3813 1016.53 86.296 1013.37 86.296V83.188C1016.53 83.484 1019.59 83.632 1022.55 83.632C1027.48 83.632 1032.07 83.484 1036.31 83.188C1040.65 82.7933 1044.65 82.2507 1048.3 81.56Z" fill="#E23535"/>
</svg>
