<svg width="1060" height="197" viewBox="0 0 1060 197" fill="none" xmlns="http://www.w3.org/2000/svg">
<g clip-path="url(#clip0_216_308)">
<path d="M82.5957 181C82.5957 181 84.7369 181.045 76.3998 181C68.1084 180.955 66.8783 175.736 66.8783 175.736C65.1472 172.514 62.7326 170.154 59.2703 168.793C56.8101 167.795 54.35 166.705 52.0266 165.48C46.8331 162.803 42.2318 159.263 37.9494 155.361C37.3571 154.816 36.8104 154.271 36.1726 153.727C29.4757 147.918 26.2411 140.34 24.8288 131.854C24.4644 129.494 24.2366 127.089 24.2366 124.729C24.2366 122.052 24.8744 119.465 26.2411 117.106C26.56 116.516 27.0156 116.017 27.4712 115.381C32.6647 120.691 37.3571 126.318 44.6008 128.995C43.8718 129.222 43.0974 129.403 42.3684 129.676C40.5006 130.311 38.6783 130.992 36.856 131.718C35.5348 132.262 34.897 133.351 34.8515 134.713C34.8059 135.666 34.7148 136.664 34.9426 137.572C36.2182 143.426 40.455 147.691 46.1953 148.554C49.4298 149.053 52.2088 147.964 54.2589 145.377C55.5345 143.743 55.5345 142.291 54.2134 140.703C53.8489 141.111 53.5756 141.52 53.2111 141.883C51.2977 144.016 49.0198 145.105 46.1041 144.379C43.8718 143.834 42.3229 142.019 42.0951 139.75C41.4573 134.078 46.1953 129.63 51.8899 130.583C52.8011 130.719 53.7578 131.037 54.6234 131.446C57.1746 132.58 59.4525 134.123 61.5026 136.029C66.4228 140.658 70.7052 145.785 73.8486 151.776C75.8532 155.587 77.8577 159.399 79.8622 163.211C80.0444 163.529 80.2267 163.801 80.5911 164.391C80.9556 163.71 81.2289 163.257 81.4567 162.757C84.1446 157.856 86.6958 152.91 89.4748 148.1C92.2538 143.335 96.0807 139.387 100.09 135.62C102.14 133.715 104.509 132.308 107.06 131.173C112.846 128.632 119.133 132.762 119.042 139.024C118.996 142.7 115.853 145.196 112.208 144.515C110.386 144.152 108.928 143.244 107.789 141.883C107.47 141.52 107.197 141.157 106.923 140.794C105.739 141.792 105.511 143.335 106.377 144.787C107.424 146.557 108.973 147.737 110.932 148.327C112.8 148.871 114.714 148.871 116.582 148.236C122.048 146.421 125.101 142.473 126.194 136.936C126.331 136.256 126.285 135.575 126.194 134.894C126.057 133.442 125.374 132.262 123.962 131.672C122.231 130.992 120.499 130.402 118.723 129.767C117.948 129.494 117.128 129.313 116.035 128.995C116.536 128.768 116.673 128.632 116.855 128.587C119.543 127.861 121.775 126.363 123.916 124.684C126.969 122.324 129.656 119.601 132.253 116.788C132.618 116.38 132.982 116.017 133.483 115.472C133.939 116.107 134.394 116.606 134.713 117.196C136.126 119.647 136.763 122.324 136.718 125.138C136.672 134.032 134.349 142.201 129.019 149.461C126.878 152.366 124.098 154.589 121.411 156.949C115.898 161.804 109.885 165.889 102.914 168.384C98.2219 170.064 95.2151 171.425 93.165 175.827C91.7072 180.092 82.5957 181 82.5957 181ZM76.2176 172.968C75.9443 172.151 75.8532 171.652 75.6709 171.243C74.6231 168.974 73.6664 166.66 72.5275 164.482C70.1129 159.672 67.2884 155.134 63.5982 151.186C63.0971 150.641 62.5504 150.187 62.1859 149.824C60.5459 151.004 59.1791 152.184 57.6302 153.046C56.0812 153.954 54.3956 154.544 52.7555 155.27C52.8922 155.451 52.8922 155.587 52.9833 155.633C54.2134 156.268 55.3979 156.994 56.6279 157.539C63.7349 160.851 69.7029 165.616 74.6687 171.652C74.8965 171.924 75.1242 172.242 75.3976 172.469C75.5343 172.605 75.762 172.696 76.2176 172.968ZM106.604 155.224C105.42 154.725 104.281 154.317 103.188 153.818C102.049 153.273 100.91 152.683 99.8619 151.957C98.9052 151.276 98.0396 150.46 97.174 149.688C92.4361 153.636 83.2335 169.02 83.3246 173.059C86.6503 169.247 89.7937 165.435 93.8484 162.712C97.903 160.08 102.231 157.811 106.604 155.224Z" fill="#EF4136"/>
<path d="M107.652 108.983C109.611 109.663 111.342 109.255 112.982 108.393C114.531 107.576 115.853 106.441 116.809 104.989C118.313 102.675 119.725 100.315 121.092 97.9101C122.003 96.2764 122.732 94.5066 123.552 92.8276C123.825 92.283 124.19 91.8292 124.645 91.1031C124.919 91.6477 125.192 91.92 125.237 92.2376C125.875 97.184 126.103 102.13 124.691 106.986C123.005 112.84 119.224 116.561 113.301 118.195C111.069 118.785 108.973 119.692 106.741 120.373C105.42 120.781 104.008 121.144 102.641 121.281C100.864 121.417 99.9075 120.554 99.953 118.785C100.044 114.7 98.4041 111.297 96.0351 108.12C92.755 103.764 89.566 99.4076 86.3314 95.0511C83.279 90.967 82.5957 86.2929 83.1879 81.3919C84.0991 73.9043 87.1514 67.1881 90.796 60.6535C91.4338 59.4736 92.345 58.4299 93.2561 57.4315C95.2606 55.2987 98.3585 54.7541 101.046 55.8886C101.229 55.9794 101.411 56.0701 101.593 56.1609C102.914 56.9323 103.871 58.0214 103.871 59.6551C103.825 61.198 102.914 62.2871 101.593 62.9678C101.001 63.2855 100.363 63.5577 99.6797 63.6939C97.8119 64.0115 95.7618 66.5982 95.7162 68.8218C95.7162 69.5932 95.7618 70.3647 95.8529 71.1815C96.1718 74.7665 95.9896 78.2607 94.8506 81.7096C94.7595 81.9818 94.7139 82.2995 94.6684 82.6625C95.944 83.6609 97.2652 83.7516 98.4497 82.8894C99.4064 82.2087 100.272 81.3011 100.91 80.3482C102.504 78.0338 103.37 75.4018 104.099 72.7244C104.327 71.8168 104.554 70.8639 104.964 70.047C105.967 68.1411 108.29 67.5511 110.067 68.6403C111.752 69.684 112.299 71.9076 111.251 73.5866C110.705 74.4942 109.885 74.9934 108.837 75.2203C108.427 75.311 108.017 75.3564 107.607 75.5379C107.014 75.8102 106.787 76.3548 106.832 76.9447C106.832 77.4893 107.151 77.7615 107.652 77.9431C108.336 78.17 109.019 78.4876 109.702 78.7599C111.57 79.6221 113.301 80.7112 114.714 82.1634C116.627 84.1147 117.766 86.3837 117.994 89.1064C118.13 90.604 118.176 92.1015 118.085 93.599C117.948 96.1403 116.764 98.3185 114.987 100.088C113.894 101.223 112.618 102.176 111.479 103.219C110.477 104.172 109.429 105.171 108.518 106.215C108.017 106.941 107.607 107.803 107.652 108.983ZM99.9986 97.8193C102.504 98.5908 104.281 98.6361 105.784 98.137C106.832 97.8193 107.652 97.184 108.108 96.1856C109.11 94.1436 108.29 89.5602 106.513 87.6543C105.511 91.7384 103.37 95.0511 99.9986 97.8193Z" fill="#EF4136"/>
<path d="M51.5255 109.119C51.7077 107.939 51.2977 107.122 50.751 106.487C49.7943 105.352 48.7009 104.263 47.6075 103.219C46.6053 102.266 45.4663 101.404 44.4185 100.406C41.1839 97.3201 40.5461 93.4175 41.0472 89.1518C41.6395 84.0693 44.783 80.9381 49.1565 78.8053C49.8398 78.4422 50.6143 78.17 51.3432 77.9431C51.8899 77.7615 52.2999 77.5346 52.2544 76.854C52.2088 76.1733 51.9355 75.6287 51.2977 75.4018C50.9332 75.2657 50.5688 75.2657 50.2043 75.1749C48.5642 74.8119 47.4253 73.5412 47.2886 71.9076C47.1519 70.4101 48.1542 68.9579 49.612 68.368C51.1154 67.778 52.8922 68.1865 53.8033 69.5932C54.3045 70.3647 54.5778 71.2723 54.8967 72.1799C55.7623 74.5396 56.4912 76.8993 57.539 79.2137C58.0857 80.3936 58.9969 81.528 59.9536 82.4356C61.3659 83.797 62.6415 83.797 64.4638 82.7987C64.4638 82.5718 64.4638 82.3449 64.3727 82.118C63.416 79.486 63.1426 76.7178 63.1882 73.9497C63.2337 72.5429 63.2337 71.1361 63.3248 69.7294C63.5071 66.9158 61.9126 64.6469 59.2247 63.7846C58.5413 63.5577 57.8124 63.3309 57.2201 62.9224C54.6234 61.2888 54.6234 58.203 57.1746 56.4785C59.6802 54.7995 63.4615 55.0718 65.6027 57.2046C66.6505 58.2483 67.6528 59.4736 68.3817 60.7442C71.7985 66.8705 74.7598 73.2236 75.8076 80.2574C76.6276 85.703 76.0809 90.8762 72.6186 95.4142C69.4751 99.5437 66.4227 103.719 63.3704 107.848C61.6848 110.117 60.0447 112.432 59.5436 115.29C59.3613 116.243 59.3613 117.242 59.3158 118.24C59.2247 120.645 58.268 121.598 55.8534 121.281C54.6689 121.144 53.53 120.736 52.391 120.373C50.3865 119.738 48.4731 118.875 46.4686 118.376C37.8127 116.198 34.6236 110.072 33.7125 103.446C33.2569 100.088 33.4392 96.7756 33.7581 93.4629C33.8492 92.7822 34.077 92.0561 34.2592 91.33C35.2159 91.6477 35.4437 92.4191 35.717 93.0091C36.9015 95.3234 37.9949 97.7285 39.1794 100.043C40.5006 102.539 42.004 104.944 44.0996 106.895C45.5119 108.211 47.1519 109.164 49.1109 109.3C49.8854 109.346 50.7054 109.164 51.5255 109.119ZM52.6188 87.5635C51.2521 89.4695 50.341 92.8729 50.6143 94.6427C50.9332 96.7756 51.981 97.9101 54.0767 98.3185C55.7167 98.6361 57.3113 98.5 59.2247 97.7739C55.8079 95.0965 53.7578 91.7838 52.6188 87.5635Z" fill="#EF4136"/>
<path d="M81.5934 153.228C81.6845 151.549 81.9123 149.87 81.9123 148.191C81.9123 143.426 81.8667 138.661 81.6845 133.851C81.5478 129.676 81.1833 125.501 80.91 121.326C80.6367 117.423 80.2722 113.521 79.9077 109.573C79.9077 109.436 79.8166 109.3 79.7255 109.119C79.2244 110.026 78.4043 117.786 78.1766 123.731C77.9488 128.587 77.5843 133.488 77.3565 138.343C77.1287 143.244 77.1287 148.191 77.6754 153.092C77.5843 153.137 77.4476 153.137 77.3565 153.182C77.0832 152.683 76.8098 152.229 76.582 151.73C75.2609 148.826 73.9853 145.922 72.573 143.063C71.5707 141.021 70.3862 139.069 69.1562 137.118C68.0172 135.303 66.6505 133.715 64.5093 132.898C63.4159 132.489 63.2337 131.491 63.3704 130.493C63.5526 129.313 63.7348 128.042 64.1904 126.953C65.2838 124.276 66.4227 121.553 67.7439 118.966C75.2153 104.445 76.9465 104.127 77.721 103.038C78.2677 102.312 78.8599 101.631 79.5433 100.769C80.1355 101.45 80.6822 101.994 81.1378 102.63C85.1013 107.848 88.6092 113.384 91.5704 119.193C92.9372 121.87 94.1217 124.684 95.1695 127.498C95.625 128.632 95.6251 129.993 95.7162 131.219C95.7617 131.945 95.3973 132.58 94.6683 132.852C92.4816 133.669 91.0693 135.303 89.9304 137.209C88.4725 139.659 87.0603 142.201 85.7846 144.742C84.6457 147.011 83.6434 149.37 82.5956 151.685C82.3678 152.229 82.0945 152.729 81.8212 153.228C81.7756 153.273 81.6845 153.228 81.5934 153.228Z" fill="#EF4136"/>
<path d="M24.2821 146.012C24.2821 146.012 16.4007 173.966 0 174.193L61.0925 174.465L23.2799 167.25C23.2799 167.25 31.7991 167.568 24.2821 146.012Z" fill="#EF4136"/>
<path d="M136.763 146.012C136.763 146.012 144.645 173.966 161.046 174.193L99.953 174.465L137.766 167.25C137.72 167.25 129.201 167.568 136.763 146.012Z" fill="#EF4136"/>
<path d="M60.3636 45.2698L66.6505 42.8193C75.352 39.4158 85.0557 39.4612 93.7117 43.0008L99.2697 45.2698L96.8096 42.8647C89.1104 35.2409 83.1879 26.0743 79.4066 16C75.6709 26.3919 69.6573 35.8762 61.867 43.7269L60.3636 45.2698Z" fill="#EF4136"/>
<path d="M69.384 47.3119C69.4295 47.4026 69.4751 47.4934 69.4751 47.6295C70.1584 49.2632 70.8874 50.8969 71.7074 52.4398C72.983 54.8449 74.4408 57.1592 75.7165 59.519C77.0832 62.0602 78.2677 64.6469 79.4977 67.0974C80.3633 65.2822 81.2289 63.3309 82.2312 61.4249C83.279 59.4736 84.4635 57.5677 85.5569 55.6163C86.3769 54.2096 87.2425 52.7574 88.017 51.3053C88.9737 49.4901 89.6115 48.0833 89.9304 46.8127C80.2722 45.0883 73.3019 46.1774 69.384 47.3119Z" fill="#EF4136"/>
</g>
<path d="M287.784 55.216V58.176C284.824 58.768 282.555 59.804 280.976 61.284C279.496 62.764 278.509 65.0827 278.016 68.24C277.523 71.2987 277.276 75.64 277.276 81.264V160C275.796 159.803 274.168 159.704 272.392 159.704C270.715 159.704 268.889 159.803 266.916 160L201.352 88.368V130.992C201.352 137.603 201.599 142.684 202.092 146.236C202.684 149.689 204.016 152.205 206.088 153.784C208.259 155.264 211.663 156.349 216.3 157.04V160C214.327 159.803 211.761 159.704 208.604 159.704C205.447 159.605 202.487 159.556 199.724 159.556C197.553 159.556 195.333 159.605 193.064 159.704C190.795 159.704 188.92 159.803 187.44 160V157.04C190.499 156.349 192.768 155.313 194.248 153.932C195.728 152.452 196.715 150.133 197.208 146.976C197.701 143.819 197.948 139.477 197.948 133.952V70.904C197.948 67.2533 197.701 64.5893 197.208 62.912C196.715 61.136 195.679 59.952 194.1 59.36C192.62 58.6693 190.4 58.2747 187.44 58.176V55.216C188.92 55.3147 190.795 55.4133 193.064 55.512C195.333 55.6107 197.553 55.66 199.724 55.66C202.191 55.66 204.608 55.6107 206.976 55.512C209.344 55.4133 211.465 55.3147 213.34 55.216L273.872 119.152V84.224C273.872 77.6133 273.576 72.5813 272.984 69.128C272.491 65.576 271.208 63.0107 269.136 61.432C267.064 59.8533 263.66 58.768 258.924 58.176V55.216C260.897 55.3147 263.463 55.4133 266.62 55.512C269.777 55.6107 272.737 55.66 275.5 55.66C277.769 55.66 279.989 55.6107 282.16 55.512C284.429 55.4133 286.304 55.3147 287.784 55.216ZM365.75 81.56V143.868C365.75 148.308 366.342 151.613 367.526 153.784C368.809 155.856 370.979 156.892 374.038 156.892V160C370.979 159.704 367.921 159.556 364.862 159.556C359.929 159.556 355.341 159.704 351.098 160C346.855 160.296 342.859 160.839 339.11 161.628V150.972C336.742 154.919 333.535 157.78 329.49 159.556C325.543 161.233 320.906 162.072 315.578 162.072C311.039 162.072 307.438 161.48 304.774 160.296C302.209 159.211 300.235 157.829 298.854 156.152C297.374 154.376 296.289 152.008 295.598 149.048C294.907 146.088 294.562 142.092 294.562 137.06V99.32C294.562 94.88 293.97 91.624 292.786 89.552C291.602 87.3813 289.431 86.296 286.274 86.296V83.188C289.431 83.484 292.49 83.632 295.45 83.632C300.383 83.632 304.971 83.484 309.214 83.188C313.555 82.7933 317.551 82.2507 321.202 81.56V145.052C321.202 147.124 321.449 148.851 321.942 150.232C322.435 151.613 323.225 152.649 324.31 153.34C325.395 154.031 326.777 154.376 328.454 154.376C330.329 154.376 332.055 153.932 333.634 153.044C335.213 152.156 336.495 150.923 337.482 149.344C338.567 147.667 339.11 145.792 339.11 143.72V99.32C339.11 94.88 338.518 91.624 337.334 89.552C336.15 87.3813 333.979 86.296 330.822 86.296V83.188C333.979 83.484 337.038 83.632 339.998 83.632C344.931 83.632 349.519 83.484 353.762 83.188C358.103 82.7933 362.099 82.2507 365.75 81.56ZM406.46 81.116C410.802 81.116 414.6 81.6093 417.856 82.596C421.211 83.484 423.628 84.3227 425.108 85.112C428.562 87.184 430.683 85.9013 431.472 81.264H434.432C434.235 84.1253 434.087 87.628 433.988 91.772C433.89 95.8173 433.84 101.195 433.84 107.904H430.88C430.486 104.253 429.598 100.652 428.216 97.1C426.934 93.548 425.01 90.588 422.444 88.22C419.978 85.852 416.722 84.668 412.676 84.668C410.21 84.668 408.138 85.408 406.46 86.888C404.783 88.368 403.944 90.3907 403.944 92.956C403.944 95.916 404.832 98.58 406.608 100.948C408.384 103.217 410.654 105.437 413.416 107.608C416.179 109.68 418.942 111.9 421.704 114.268C424.763 116.735 427.476 119.152 429.844 121.52C432.212 123.888 434.087 126.503 435.468 129.364C436.948 132.127 437.688 135.432 437.688 139.28C437.688 143.72 436.307 147.667 433.544 151.12C430.88 154.573 427.279 157.287 422.74 159.26C418.3 161.135 413.318 162.072 407.792 162.072C404.339 162.072 401.33 161.677 398.764 160.888C396.199 160.197 394.127 159.359 392.548 158.372C390.97 157.583 389.588 156.991 388.404 156.596C387.319 156.103 386.234 155.856 385.148 155.856C384.162 155.856 383.323 156.399 382.632 157.484C381.942 158.471 381.399 159.655 381.004 161.036H378.044C378.242 157.879 378.39 154.031 378.488 149.492C378.587 144.953 378.636 138.935 378.636 131.436H381.596C382.188 136.665 383.323 141.303 385 145.348C386.776 149.393 388.996 152.6 391.66 154.968C394.423 157.237 397.58 158.372 401.132 158.372C402.711 158.372 404.142 158.076 405.424 157.484C406.707 156.892 407.743 156.004 408.532 154.82C409.322 153.636 409.716 152.107 409.716 150.232C409.716 145.891 408.384 142.24 405.72 139.28C403.155 136.32 399.899 133.064 395.952 129.512C392.992 126.749 390.18 124.085 387.516 121.52C384.951 118.856 382.83 115.995 381.152 112.936C379.475 109.779 378.636 106.276 378.636 102.428C378.636 97.988 379.919 94.1893 382.484 91.032C385.148 87.8747 388.602 85.4573 392.844 83.78C397.087 82.004 401.626 81.116 406.46 81.116ZM460.729 161.036C456.092 161.036 452.293 160.148 449.333 158.372C446.373 156.596 444.202 154.277 442.821 151.416C441.538 148.555 440.897 145.545 440.897 142.388C440.897 138.244 441.834 134.889 443.709 132.324C445.584 129.66 448.001 127.539 450.961 125.96C454.02 124.283 457.226 122.901 460.581 121.816C463.936 120.731 467.093 119.695 470.053 118.708C473.112 117.623 475.578 116.389 477.453 115.008C479.328 113.528 480.265 111.653 480.265 109.384V96.212C480.265 94.6333 479.969 92.9067 479.377 91.032C478.884 89.1573 477.897 87.5293 476.417 86.148C474.937 84.7667 472.717 84.076 469.757 84.076C468.178 84.076 466.649 84.3227 465.169 84.816C463.788 85.2107 462.554 85.8027 461.469 86.592C464.922 87.8747 467.438 89.7 469.017 92.068C470.596 94.3373 471.385 96.8533 471.385 99.616C471.385 103.563 470.004 106.671 467.241 108.94C464.478 111.209 461.222 112.344 457.473 112.344C453.526 112.344 450.468 111.111 448.297 108.644C446.126 106.177 445.041 103.119 445.041 99.468C445.041 96.4093 445.781 93.844 447.261 91.772C448.84 89.6013 451.158 87.628 454.217 85.852C457.177 84.1747 460.729 82.9907 464.873 82.3C469.017 81.5107 473.358 81.116 477.897 81.116C482.732 81.116 487.221 81.6093 491.365 82.596C495.509 83.484 499.061 85.4573 502.021 88.516C504.093 90.6867 505.425 93.4 506.017 96.656C506.609 99.912 506.905 104.105 506.905 109.236V148.9C506.905 151.367 507.053 153.044 507.349 153.932C507.744 154.82 508.385 155.264 509.273 155.264C510.062 155.264 510.802 155.017 511.493 154.524C512.282 154.031 513.022 153.537 513.713 153.044L515.193 155.56C513.022 157.435 510.309 158.816 507.053 159.704C503.896 160.592 500.541 161.036 496.989 161.036C492.746 161.036 489.441 160.543 487.073 159.556C484.804 158.471 483.176 157.089 482.189 155.412C481.301 153.636 480.808 151.761 480.709 149.788C478.637 153.044 476.022 155.757 472.865 157.928C469.806 160 465.761 161.036 460.729 161.036ZM474.789 149.196C475.874 149.196 476.812 149.048 477.601 148.752C478.489 148.357 479.377 147.667 480.265 146.68V115.452C479.574 116.735 478.637 118.017 477.453 119.3C476.368 120.484 475.233 121.717 474.049 123C472.865 124.283 471.73 125.664 470.645 127.144C469.658 128.624 468.82 130.351 468.129 132.324C467.537 134.199 467.241 136.419 467.241 138.984C467.241 142.733 467.932 145.397 469.313 146.976C470.793 148.456 472.618 149.196 474.789 149.196ZM573.394 81.116C577.933 81.116 581.485 81.708 584.05 82.892C586.714 83.9773 588.737 85.3587 590.118 87.036C591.598 88.812 592.683 91.18 593.374 94.14C594.065 97.1 594.41 101.096 594.41 106.128V146.236C594.41 150.38 595.002 153.192 596.186 154.672C597.469 156.152 599.639 156.892 602.698 156.892V160C600.725 159.901 597.715 159.803 593.67 159.704C589.723 159.507 585.826 159.408 581.978 159.408C577.834 159.408 573.789 159.507 569.842 159.704C565.895 159.803 562.935 159.901 560.962 160V156.892C563.527 156.892 565.303 156.152 566.29 154.672C567.277 153.192 567.77 150.38 567.77 146.236V98.136C567.77 96.064 567.523 94.3373 567.03 92.956C566.537 91.5747 565.747 90.5387 564.662 89.848C563.675 89.1573 562.294 88.812 560.518 88.812C558.742 88.812 557.015 89.256 555.338 90.144C553.759 91.032 552.427 92.3147 551.342 93.992C550.355 95.5707 549.862 97.396 549.862 99.468V146.236C549.862 150.38 550.355 153.192 551.342 154.672C552.427 156.152 554.203 156.892 556.67 156.892V160C554.795 159.901 552.033 159.803 548.382 159.704C544.731 159.507 540.982 159.408 537.134 159.408C532.99 159.408 528.797 159.507 524.554 159.704C520.311 159.803 517.105 159.901 514.934 160V156.892C517.993 156.892 520.114 156.152 521.298 154.672C522.581 153.192 523.222 150.38 523.222 146.236V99.32C523.222 94.88 522.63 91.624 521.446 89.552C520.262 87.3813 518.091 86.296 514.934 86.296V83.188C518.091 83.484 521.15 83.632 524.11 83.632C529.043 83.632 533.631 83.484 537.874 83.188C542.215 82.7933 546.211 82.2507 549.862 81.56V92.216C552.23 88.2693 555.387 85.4573 559.334 83.78C563.379 82.004 568.066 81.116 573.394 81.116ZM637.182 59.212V83.188H651.686V86.148H637.182V147.568C637.182 149.443 637.527 150.824 638.218 151.712C638.909 152.501 640.043 152.896 641.622 152.896C642.707 152.896 643.99 152.6 645.47 152.008C646.95 151.317 648.331 150.183 649.614 148.604L651.834 150.38C649.762 153.932 646.999 156.793 643.546 158.964C640.191 161.036 635.949 162.072 630.818 162.072C627.562 162.072 624.602 161.628 621.938 160.74C619.373 159.951 617.251 158.717 615.574 157.04C613.403 154.869 612.022 152.205 611.43 149.048C610.838 145.792 610.542 141.599 610.542 136.468V86.148H599.294V83.188H610.542V65.724C615.771 65.724 620.507 65.2307 624.75 64.244C629.091 63.1587 633.235 61.4813 637.182 59.212ZM670.276 161.036C665.639 161.036 661.84 160.148 658.88 158.372C655.92 156.596 653.749 154.277 652.368 151.416C651.085 148.555 650.444 145.545 650.444 142.388C650.444 138.244 651.381 134.889 653.256 132.324C655.131 129.66 657.548 127.539 660.508 125.96C663.567 124.283 666.773 122.901 670.128 121.816C673.483 120.731 676.64 119.695 679.6 118.708C682.659 117.623 685.125 116.389 687 115.008C688.875 113.528 689.812 111.653 689.812 109.384V96.212C689.812 94.6333 689.516 92.9067 688.924 91.032C688.431 89.1573 687.444 87.5293 685.964 86.148C684.484 84.7667 682.264 84.076 679.304 84.076C677.725 84.076 676.196 84.3227 674.716 84.816C673.335 85.2107 672.101 85.8027 671.016 86.592C674.469 87.8747 676.985 89.7 678.564 92.068C680.143 94.3373 680.932 96.8533 680.932 99.616C680.932 103.563 679.551 106.671 676.788 108.94C674.025 111.209 670.769 112.344 667.02 112.344C663.073 112.344 660.015 111.111 657.844 108.644C655.673 106.177 654.588 103.119 654.588 99.468C654.588 96.4093 655.328 93.844 656.808 91.772C658.387 89.6013 660.705 87.628 663.764 85.852C666.724 84.1747 670.276 82.9907 674.42 82.3C678.564 81.5107 682.905 81.116 687.444 81.116C692.279 81.116 696.768 81.6093 700.912 82.596C705.056 83.484 708.608 85.4573 711.568 88.516C713.64 90.6867 714.972 93.4 715.564 96.656C716.156 99.912 716.452 104.105 716.452 109.236V148.9C716.452 151.367 716.6 153.044 716.896 153.932C717.291 154.82 717.932 155.264 718.82 155.264C719.609 155.264 720.349 155.017 721.04 154.524C721.829 154.031 722.569 153.537 723.26 153.044L724.74 155.56C722.569 157.435 719.856 158.816 716.6 159.704C713.443 160.592 710.088 161.036 706.536 161.036C702.293 161.036 698.988 160.543 696.62 159.556C694.351 158.471 692.723 157.089 691.736 155.412C690.848 153.636 690.355 151.761 690.256 149.788C688.184 153.044 685.569 155.757 682.412 157.928C679.353 160 675.308 161.036 670.276 161.036ZM684.336 149.196C685.421 149.196 686.359 149.048 687.148 148.752C688.036 148.357 688.924 147.667 689.812 146.68V115.452C689.121 116.735 688.184 118.017 687 119.3C685.915 120.484 684.78 121.717 683.596 123C682.412 124.283 681.277 125.664 680.192 127.144C679.205 128.624 678.367 130.351 677.676 132.324C677.084 134.199 676.788 136.419 676.788 138.984C676.788 142.733 677.479 145.397 678.86 146.976C680.34 148.456 682.165 149.196 684.336 149.196ZM778.501 81.116C782.053 81.116 784.816 81.9053 786.789 83.484C788.762 84.964 790.144 86.888 790.933 89.256C791.722 91.5253 792.117 93.7947 792.117 96.064C792.117 100.504 790.834 104.056 788.269 106.72C785.802 109.285 782.546 110.568 778.501 110.568C774.16 110.568 770.854 109.581 768.585 107.608C766.414 105.635 765.329 103.069 765.329 99.912C765.329 96.5573 766.02 93.7947 767.401 91.624C768.881 89.4533 770.706 87.628 772.877 86.148C771.101 86.148 769.522 86.4933 768.141 87.184C766.957 87.6773 765.822 88.368 764.737 89.256C763.652 90.144 762.714 91.18 761.925 92.364C761.136 93.4493 760.494 94.6827 760.001 96.064C759.606 97.4453 759.409 98.876 759.409 100.356V144.756C759.409 149.492 760.396 152.699 762.369 154.376C764.342 156.053 767.598 156.892 772.137 156.892V160C769.868 159.901 766.464 159.803 761.925 159.704C757.485 159.507 752.897 159.408 748.161 159.408C743.721 159.408 739.232 159.507 734.693 159.704C730.154 159.803 726.75 159.901 724.481 160V156.892C727.54 156.892 729.661 156.152 730.845 154.672C732.128 153.192 732.769 150.38 732.769 146.236V99.32C732.769 94.88 732.177 91.624 730.993 89.552C729.809 87.3813 727.638 86.296 724.481 86.296V83.188C727.638 83.484 730.697 83.632 733.657 83.632C738.59 83.632 743.178 83.484 747.421 83.188C751.762 82.7933 755.758 82.2507 759.409 81.56V92.216C760.692 89.6507 762.27 87.5787 764.145 86C766.02 84.3227 768.141 83.0893 770.509 82.3C772.976 81.5107 775.64 81.116 778.501 81.116ZM811.275 161.036C806.638 161.036 802.839 160.148 799.879 158.372C796.919 156.596 794.748 154.277 793.367 151.416C792.084 148.555 791.443 145.545 791.443 142.388C791.443 138.244 792.38 134.889 794.255 132.324C796.13 129.66 798.547 127.539 801.507 125.96C804.566 124.283 807.772 122.901 811.127 121.816C814.482 120.731 817.639 119.695 820.599 118.708C823.658 117.623 826.124 116.389 827.999 115.008C829.874 113.528 830.811 111.653 830.811 109.384V96.212C830.811 94.6333 830.515 92.9067 829.923 91.032C829.43 89.1573 828.443 87.5293 826.963 86.148C825.483 84.7667 823.263 84.076 820.303 84.076C818.724 84.076 817.195 84.3227 815.715 84.816C814.334 85.2107 813.1 85.8027 812.015 86.592C815.468 87.8747 817.984 89.7 819.563 92.068C821.142 94.3373 821.931 96.8533 821.931 99.616C821.931 103.563 820.55 106.671 817.787 108.94C815.024 111.209 811.768 112.344 808.019 112.344C804.072 112.344 801.014 111.111 798.843 108.644C796.672 106.177 795.587 103.119 795.587 99.468C795.587 96.4093 796.327 93.844 797.807 91.772C799.386 89.6013 801.704 87.628 804.763 85.852C807.723 84.1747 811.275 82.9907 815.419 82.3C819.563 81.5107 823.904 81.116 828.443 81.116C833.278 81.116 837.767 81.6093 841.911 82.596C846.055 83.484 849.607 85.4573 852.567 88.516C854.639 90.6867 855.971 93.4 856.563 96.656C857.155 99.912 857.451 104.105 857.451 109.236V148.9C857.451 151.367 857.599 153.044 857.895 153.932C858.29 154.82 858.931 155.264 859.819 155.264C860.608 155.264 861.348 155.017 862.039 154.524C862.828 154.031 863.568 153.537 864.259 153.044L865.739 155.56C863.568 157.435 860.855 158.816 857.599 159.704C854.442 160.592 851.087 161.036 847.535 161.036C843.292 161.036 839.987 160.543 837.619 159.556C835.35 158.471 833.722 157.089 832.735 155.412C831.847 153.636 831.354 151.761 831.255 149.788C829.183 153.044 826.568 155.757 823.411 157.928C820.352 160 816.307 161.036 811.275 161.036ZM825.335 149.196C826.42 149.196 827.358 149.048 828.147 148.752C829.035 148.357 829.923 147.667 830.811 146.68V115.452C830.12 116.735 829.183 118.017 827.999 119.3C826.914 120.484 825.779 121.717 824.595 123C823.411 124.283 822.276 125.664 821.191 127.144C820.204 128.624 819.366 130.351 818.675 132.324C818.083 134.199 817.787 136.419 817.787 138.984C817.787 142.733 818.478 145.397 819.859 146.976C821.339 148.456 823.164 149.196 825.335 149.196Z" fill="black"/>
<path d="M971.744 55.216V58.028C968.389 58.916 964.64 60.544 960.496 62.912C956.451 65.28 952.109 69.0787 947.472 74.308L920.24 105.24L932.228 89.552L967.304 148.012C968.587 150.084 969.869 151.811 971.152 153.192C972.435 154.573 974.161 155.856 976.332 157.04V160C972.188 159.803 967.748 159.704 963.012 159.704C958.375 159.605 953.935 159.556 949.692 159.556C947.423 159.556 944.611 159.605 941.256 159.704C937.901 159.704 933.659 159.803 928.528 160V157.04C933.165 156.843 935.829 156.3 936.52 155.412C937.309 154.524 936.964 152.847 935.484 150.38L914.024 114.12C913.037 112.344 912.149 111.012 911.36 110.124C910.571 109.236 909.781 108.595 908.992 108.2C908.301 107.805 907.364 107.559 906.18 107.46V104.352C910.521 104.155 914.616 102.724 918.464 100.06C922.312 97.2973 926.949 92.8573 932.376 86.74L937.408 81.116C941.552 76.4787 943.723 72.4827 943.92 69.128C944.216 65.6747 943.18 63.0107 940.812 61.136C938.543 59.1627 935.533 58.1267 931.784 58.028V55.216C934.547 55.3147 937.112 55.4133 939.48 55.512C941.947 55.512 944.512 55.5613 947.176 55.66C949.939 55.66 953.145 55.66 956.796 55.66C959.953 55.66 962.716 55.6107 965.084 55.512C967.551 55.4133 969.771 55.3147 971.744 55.216ZM917.576 55.216V58.176C914.616 58.2747 912.347 58.6693 910.768 59.36C909.288 59.952 908.301 61.136 907.808 62.912C907.315 64.5893 907.068 67.2533 907.068 70.904V144.312C907.068 147.864 907.315 150.528 907.808 152.304C908.4 154.08 909.436 155.264 910.916 155.856C912.396 156.448 914.616 156.843 917.576 157.04V160C914.715 159.803 911.015 159.704 906.476 159.704C902.036 159.605 897.497 159.556 892.86 159.556C887.532 159.556 882.5 159.605 877.764 159.704C873.127 159.704 869.377 159.803 866.516 160V157.04C869.575 156.843 871.844 156.448 873.324 155.856C874.804 155.264 875.791 154.08 876.284 152.304C876.777 150.528 877.024 147.864 877.024 144.312V70.904C877.024 67.2533 876.777 64.5893 876.284 62.912C875.791 61.136 874.755 59.952 873.176 59.36C871.696 58.6693 869.476 58.2747 866.516 58.176V55.216C869.377 55.3147 873.127 55.4133 877.764 55.512C882.5 55.6107 887.532 55.66 892.86 55.66C897.497 55.66 902.036 55.6107 906.476 55.512C911.015 55.4133 914.715 55.3147 917.576 55.216ZM1048.3 81.56V143.868C1048.3 148.308 1048.89 151.613 1050.08 153.784C1051.36 155.856 1053.53 156.892 1056.59 156.892V160C1053.53 159.704 1050.47 159.556 1047.41 159.556C1042.48 159.556 1037.89 159.704 1033.65 160C1029.41 160.296 1025.41 160.839 1021.66 161.628V150.972C1019.29 154.919 1016.09 157.78 1012.04 159.556C1008.09 161.233 1003.46 162.072 998.13 162.072C993.591 162.072 989.99 161.48 987.326 160.296C984.76 159.211 982.787 157.829 981.406 156.152C979.926 154.376 978.84 152.008 978.15 149.048C977.459 146.088 977.114 142.092 977.114 137.06V99.32C977.114 94.88 976.522 91.624 975.338 89.552C974.154 87.3813 971.983 86.296 968.826 86.296V83.188C971.983 83.484 975.042 83.632 978.002 83.632C982.935 83.632 987.523 83.484 991.766 83.188C996.107 82.7933 1000.1 82.2507 1003.75 81.56V145.052C1003.75 147.124 1004 148.851 1004.49 150.232C1004.99 151.613 1005.78 152.649 1006.86 153.34C1007.95 154.031 1009.33 154.376 1011.01 154.376C1012.88 154.376 1014.61 153.932 1016.19 153.044C1017.76 152.156 1019.05 150.923 1020.03 149.344C1021.12 147.667 1021.66 145.792 1021.66 143.72V99.32C1021.66 94.88 1021.07 91.624 1019.89 89.552C1018.7 87.3813 1016.53 86.296 1013.37 86.296V83.188C1016.53 83.484 1019.59 83.632 1022.55 83.632C1027.48 83.632 1032.07 83.484 1036.31 83.188C1040.65 82.7933 1044.65 82.2507 1048.3 81.56Z" fill="#E23535"/>
<defs>
<clipPath id="clip0_216_308">
<rect width="161" height="165" fill="white" transform="translate(0 16)"/>
</clipPath>
</defs>
</svg>
