<svg width="209" height="33" viewBox="0 0 209 33" fill="none" xmlns="http://www.w3.org/2000/svg">
<mask id="path-1-outside-1_310_395" maskUnits="userSpaceOnUse" x="-2" y="-2" width="212" height="36" fill="black">
<rect fill="white" x="-2" y="-2" width="212" height="36"/>
<path d="M5.88 26.76C5.16 27.7733 4.84 28.6 4.92 29.24C5 29.8533 5.37333 30.32 6.04 30.64C6.73333 30.9333 7.58667 31.12 8.6 31.2L8.44 32C7.05333 31.9467 5.94667 31.92 5.12 31.92C4.29333 31.8933 3.50667 31.88 2.76 31.88C2.2 31.88 1.73333 31.8933 1.36 31.92C0.986667 31.92 0.586667 31.9467 0.16 32L0.32 31.2C0.853333 31.04 1.34667 30.8 1.8 30.48C2.22667 30.16 2.70667 29.68 3.24 29.04C3.77333 28.3733 4.42667 27.5067 5.2 26.44L21.52 3.48C22 3.53333 22.5067 3.56 23.04 3.56C23.6 3.56 24.0933 3.53333 24.52 3.48L26.12 28.64C26.2 29.6 26.44 30.2667 26.84 30.64C27.2667 30.9867 27.68 31.1733 28.08 31.2L27.92 32C27.1467 31.9467 26.1067 31.92 24.8 31.92C23.4933 31.8933 22.28 31.88 21.16 31.88C19.8 31.88 18.5067 31.8933 17.28 31.92C16.0533 31.92 15.08 31.9467 14.36 32L14.52 31.2C15.8 31.1467 16.7067 30.92 17.24 30.52C17.8 30.0933 18.04 29.2 17.96 27.84L17.04 10.32L19.16 8L5.88 26.76ZM9.96 20.48H21.64L21.32 21.28H9.24L9.96 20.48ZM37.5178 28.6C37.3311 29.24 37.3311 29.68 37.5178 29.92C37.7045 30.16 37.9178 30.28 38.1578 30.28C38.2911 30.28 38.5578 30.16 38.9578 29.92C39.3578 29.6533 39.7711 28.9333 40.1978 27.76L41.0378 25.52H41.7978L40.7978 28.44C40.3978 29.5867 39.8645 30.4533 39.1978 31.04C38.5578 31.6267 37.8778 32.0267 37.1578 32.24C36.4378 32.4533 35.7578 32.56 35.1178 32.56C34.2645 32.56 33.5178 32.4133 32.8778 32.12C32.2645 31.8267 31.7845 31.4 31.4378 30.84C31.0911 30.2533 30.9045 29.5333 30.8778 28.68C30.8511 27.8267 31.0111 26.8267 31.3578 25.68L37.4778 5.32C37.7445 4.41333 37.7178 3.74667 37.3978 3.32C37.0778 2.89333 36.2645 2.68 34.9578 2.68L35.2378 1.84C37.4245 1.81333 39.3578 1.66666 41.0378 1.4C42.7445 1.10667 44.3845 0.706666 45.9578 0.199999L37.5178 28.6ZM51.5741 29.84C51.8407 29.84 52.1207 29.7333 52.4141 29.52C52.7074 29.3067 53.0141 28.9467 53.3341 28.44C53.6541 27.9067 54.0007 27.1733 54.3741 26.24C54.7474 25.3067 55.1474 24.1067 55.5741 22.64L54.5341 27C54.1074 28.4133 53.5607 29.5333 52.8941 30.36C52.2541 31.16 51.5207 31.72 50.6941 32.04C49.8941 32.3867 49.0274 32.56 48.0941 32.56C46.4141 32.56 45.1607 32.1333 44.3341 31.28C43.5341 30.4 43.1341 29.16 43.1341 27.56C43.1341 26.0133 43.3874 24.44 43.8941 22.84C44.4274 21.24 45.1341 19.72 46.0141 18.28C46.9207 16.8133 47.9207 15.52 49.0141 14.4C50.1341 13.2533 51.2941 12.3467 52.4941 11.68C53.6941 11.0133 54.8541 10.68 55.9741 10.68C56.8274 10.68 57.4807 10.9467 57.9341 11.48C58.4141 12.0133 58.5874 12.96 58.4541 14.32L58.0141 14.56C58.1474 13.8933 58.1474 13.4133 58.0141 13.12C57.8807 12.8 57.6541 12.64 57.3341 12.64C56.8807 12.64 56.3607 12.9333 55.7741 13.52C55.2141 14.08 54.6274 14.8667 54.0141 15.88C53.4274 16.8667 52.8674 18.0133 52.3341 19.32C51.8274 20.6 51.4141 21.96 51.0941 23.4C50.8007 24.84 50.6541 26.28 50.6541 27.72C50.6541 28.4667 50.7207 29.0133 50.8541 29.36C50.9874 29.68 51.2274 29.84 51.5741 29.84ZM58.9741 11.28C60.4407 11.2533 61.7341 11.2 62.8541 11.12C64.0007 11.0133 65.1207 10.8667 66.2141 10.68L60.8141 28.6C60.6807 29.0267 60.6141 29.3733 60.6141 29.64C60.6407 29.88 60.7074 30.0533 60.8141 30.16C60.9474 30.24 61.1074 30.28 61.2941 30.28C61.5341 30.28 61.8407 30.1467 62.2141 29.88C62.5874 29.5867 62.9874 28.88 63.4141 27.76L64.2541 25.52H65.0141L64.0141 28.44C63.6407 29.56 63.1341 30.4133 62.4941 31C61.8807 31.5867 61.2007 31.9867 60.4541 32.2C59.7341 32.44 59.0141 32.56 58.2941 32.56C56.6674 32.56 55.5074 32.0933 54.8141 31.16C54.4141 30.6 54.1874 29.8667 54.1341 28.96C54.1074 28.0533 54.2807 26.96 54.6541 25.68L58.9741 11.28ZM83.4953 11.24L83.3753 12.04H68.5353L68.7353 11.24H83.4953ZM74.4153 28.6C74.2553 29.16 74.242 29.5867 74.3753 29.88C74.5353 30.1467 74.7886 30.28 75.1353 30.28C75.6686 30.28 76.202 29.9867 76.7353 29.4C77.2686 28.8133 77.6953 28.0933 78.0153 27.24L78.6553 25.52H79.4153L78.6553 27.72C78.1486 29.24 77.3486 30.4267 76.2553 31.28C75.162 32.1333 73.842 32.56 72.2953 32.56C70.962 32.56 69.9353 32.2533 69.2153 31.64C68.4953 31 68.0686 30.16 67.9353 29.12C67.802 28.08 67.9086 26.9333 68.2553 25.68L74.0953 5.36C75.562 5.33333 76.8686 5.28 78.0153 5.2C79.162 5.12 80.282 4.98667 81.3753 4.8L74.4153 28.6ZM121.418 3.8H125.338C126.751 3.8 128.085 3.78667 129.338 3.76C130.618 3.73333 131.751 3.70667 132.738 3.68L132.538 4.48C131.631 4.50667 130.925 4.61333 130.418 4.8C129.911 4.96 129.511 5.28 129.218 5.76C128.951 6.21333 128.685 6.93333 128.418 7.92L123.138 27.76C122.898 28.72 122.791 29.44 122.818 29.92C122.871 30.4 123.111 30.72 123.538 30.88C123.965 31.04 124.618 31.1467 125.498 31.2L125.338 32C124.351 31.9467 123.231 31.92 121.978 31.92C120.725 31.8933 119.391 31.88 117.978 31.88C116.538 31.88 115.165 31.8933 113.858 31.92C112.578 31.92 111.551 31.9467 110.778 32L110.938 31.2C111.871 31.1467 112.578 31.04 113.058 30.88C113.565 30.72 113.965 30.4 114.258 29.92C114.551 29.44 114.818 28.72 115.058 27.76L120.858 6.2L104.258 32.2H103.378L99.8181 8.84L95.1781 26.52C94.9915 27.2667 94.8981 28 94.8981 28.72C94.9248 29.4133 95.1915 29.9867 95.6981 30.44C96.2048 30.8933 97.1115 31.1467 98.4181 31.2L98.2581 32C97.9381 31.9733 97.4848 31.96 96.8981 31.96C96.3381 31.9333 95.7515 31.92 95.1381 31.92C94.5248 31.8933 93.9781 31.88 93.4981 31.88C92.8048 31.88 92.1115 31.8933 91.4181 31.92C90.7248 31.92 90.1515 31.9467 89.6981 32L89.8581 31.2C90.7915 31.1467 91.5381 30.8933 92.0981 30.44C92.6848 29.9867 93.1515 29.4133 93.4981 28.72C93.8448 28 94.1115 27.2667 94.2981 26.52L99.2581 7.92C99.5248 6.93333 99.6315 6.21333 99.5781 5.76C99.5248 5.28 99.2848 4.96 98.8581 4.8C98.4581 4.61333 97.8048 4.50667 96.8981 4.48L97.0981 3.68C97.8448 3.70667 98.8181 3.73333 100.018 3.76C101.245 3.78667 102.525 3.8 103.858 3.8C104.525 3.8 105.178 3.78667 105.818 3.76C106.458 3.73333 107.031 3.70667 107.538 3.68L109.858 21.92L121.418 3.8ZM145.187 17.84C144.147 20.96 143.174 23.4933 142.267 25.44C141.36 27.36 140.467 28.84 139.587 29.88C138.734 30.8933 137.84 31.6 136.907 32C136 32.3733 135.014 32.56 133.947 32.56C132.88 32.56 132.027 32.3333 131.387 31.88C130.747 31.4267 130.36 30.76 130.227 29.88C130.12 28.9733 130.28 27.8533 130.707 26.52L134.587 14.64C134.854 13.8667 134.88 13.4 134.667 13.24C134.48 13.0533 134.294 12.96 134.107 12.96C133.867 12.96 133.56 13.1067 133.187 13.4C132.814 13.6667 132.414 14.36 131.987 15.48L131.147 17.72H130.387L131.387 14.8C131.787 13.68 132.294 12.8267 132.907 12.24C133.547 11.6533 134.227 11.2533 134.947 11.04C135.694 10.8 136.414 10.68 137.107 10.68C138.307 10.68 139.267 10.9333 139.987 11.44C140.707 11.92 141.147 12.6667 141.307 13.68C141.467 14.6933 141.28 15.9867 140.747 17.56L137.307 27.92C136.827 29.36 136.854 30.08 137.387 30.08C137.814 30.08 138.32 29.72 138.907 29C139.494 28.28 140.12 27.2933 140.787 26.04C141.454 24.7867 142.12 23.36 142.787 21.76C143.454 20.1333 144.094 18.44 144.707 16.68C145.32 14.8933 145.854 13.12 146.307 11.36L145.187 17.84ZM148.507 28.6C148.32 29.2133 148.24 29.6533 148.267 29.92C148.32 30.16 148.52 30.28 148.867 30.28C149.267 30.28 149.64 30.1067 149.987 29.76C150.36 29.3867 150.72 28.72 151.067 27.76L151.987 25.32H152.747L151.627 28.44C151.28 29.4267 150.8 30.2267 150.187 30.84C149.6 31.4533 148.934 31.8933 148.187 32.16C147.467 32.4267 146.707 32.56 145.907 32.56C144.974 32.56 144.214 32.4133 143.627 32.12C143.067 31.8533 142.64 31.48 142.347 31C142.027 30.4667 141.867 29.8533 141.867 29.16C141.894 28.44 142 27.7067 142.187 26.96L146.307 11.24C147.694 11.2133 148.987 11.16 150.187 11.08C151.387 11 152.507 10.8667 153.547 10.68L148.507 28.6ZM157.594 31.44C157.808 31.5467 158.021 31.6267 158.234 31.68C158.474 31.7067 158.728 31.72 158.994 31.72C159.821 31.72 160.501 31.4533 161.034 30.92C161.594 30.36 161.874 29.6133 161.874 28.68C161.874 27.7733 161.661 26.8267 161.234 25.84C160.808 24.8533 160.248 23.8133 159.554 22.72C158.914 21.68 158.354 20.7067 157.874 19.8C157.394 18.8667 157.154 17.84 157.154 16.72C157.154 15.5733 157.448 14.5467 158.034 13.64C158.621 12.7333 159.501 12.0133 160.674 11.48C161.848 10.9467 163.328 10.68 165.114 10.68C166.234 10.68 167.314 10.8133 168.354 11.08C169.421 11.3467 170.288 11.8133 170.954 12.48C171.648 13.12 171.994 14.0533 171.994 15.28C171.994 15.8133 171.888 16.36 171.674 16.92C171.461 17.48 171.141 17.9467 170.714 18.32C170.314 18.6667 169.794 18.84 169.154 18.84C168.354 18.84 167.728 18.5333 167.274 17.92C166.821 17.28 166.594 16.4667 166.594 15.48C166.594 14.6267 166.728 13.8667 166.994 13.2C167.288 12.5333 167.581 12.04 167.874 11.72C167.661 11.6133 167.328 11.56 166.874 11.56C165.941 11.56 165.234 11.8267 164.754 12.36C164.301 12.8933 164.061 13.6667 164.034 14.68C164.034 15.2667 164.141 15.8667 164.354 16.48C164.594 17.0667 164.901 17.6667 165.274 18.28C165.648 18.8667 166.021 19.48 166.394 20.12C167.274 21.6133 167.888 22.84 168.234 23.8C168.608 24.7333 168.794 25.6533 168.794 26.56C168.794 27.6533 168.488 28.6533 167.874 29.56C167.288 30.4667 166.394 31.2 165.194 31.76C164.021 32.2933 162.554 32.56 160.794 32.56C159.541 32.56 158.341 32.4 157.194 32.08C156.074 31.7867 155.154 31.2667 154.434 30.52C153.741 29.7733 153.394 28.7467 153.394 27.44C153.394 26.4533 153.648 25.6133 154.154 24.92C154.634 24.2267 155.288 23.88 156.114 23.88C156.888 23.88 157.514 24.2 157.994 24.84C158.474 25.48 158.714 26.3333 158.714 27.4C158.714 28.2533 158.568 29.04 158.274 29.76C158.008 30.48 157.781 31.04 157.594 31.44ZM178.846 4.96C178.846 3.52 179.313 2.45333 180.246 1.76C181.179 1.06666 182.339 0.719997 183.726 0.719997C184.899 0.719997 185.779 0.946664 186.366 1.4C186.979 1.85333 187.286 2.53333 187.286 3.44C187.286 4.69333 186.806 5.70667 185.846 6.48C184.913 7.22667 183.753 7.6 182.366 7.6C181.219 7.6 180.339 7.37333 179.726 6.92C179.139 6.46666 178.846 5.81333 178.846 4.96ZM177.166 14.64C177.539 13.52 177.419 12.96 176.806 12.96C176.406 12.96 176.033 13.1467 175.686 13.52C175.339 13.8667 174.979 14.52 174.606 15.48L173.686 17.92H172.926L174.046 14.8C174.419 13.7867 174.886 12.9867 175.446 12.4C176.033 11.7867 176.713 11.3467 177.486 11.08C178.259 10.8133 179.099 10.68 180.006 10.68C181.019 10.68 181.833 10.8533 182.446 11.2C183.059 11.5467 183.499 12 183.766 12.56C184.033 13.0933 184.166 13.6933 184.166 14.36C184.166 15 184.059 15.64 183.846 16.28L179.686 28.6C179.473 29.2667 179.433 29.72 179.566 29.96C179.699 30.1733 179.899 30.28 180.166 30.28C180.406 30.28 180.713 30.1467 181.086 29.88C181.459 29.5867 181.859 28.88 182.286 27.76L183.126 25.52H183.886L182.886 28.44C182.486 29.56 181.979 30.4133 181.366 31C180.753 31.5867 180.073 31.9867 179.326 32.2C178.606 32.44 177.886 32.56 177.166 32.56C175.993 32.56 175.033 32.32 174.286 31.84C173.566 31.3333 173.126 30.5733 172.966 29.56C172.806 28.52 172.979 27.2267 173.486 25.68L177.166 14.64ZM191.643 32H184.563L192.483 5.32C192.75 4.41333 192.723 3.74667 192.403 3.32C192.083 2.89333 191.27 2.68 189.963 2.68L190.243 1.84C192.43 1.81333 194.363 1.66666 196.043 1.4C197.75 1.10667 199.39 0.706666 200.963 0.199999L191.643 32ZM202.803 28.6C202.67 29.2667 202.657 29.72 202.763 29.96C202.87 30.1733 203.043 30.28 203.283 30.28C203.523 30.28 203.83 30.1467 204.203 29.88C204.577 29.5867 204.977 28.88 205.403 27.76L206.243 25.52H207.003L206.003 28.44C205.603 29.56 205.043 30.4133 204.323 31C203.63 31.5867 202.87 31.9867 202.043 32.2C201.217 32.44 200.403 32.56 199.603 32.56C197.977 32.56 196.87 32.1067 196.283 31.2C195.697 30.2933 195.577 29.0267 195.923 27.4L196.603 24.56C196.977 23.2 196.963 22.24 196.563 21.68C196.163 21.0933 195.297 20.72 193.963 20.56V20.4C195.243 20.32 196.497 20.3333 197.723 20.44C198.95 20.52 200.03 20.76 200.963 21.16C201.923 21.56 202.617 22.1733 203.043 23C203.497 23.8267 203.577 24.92 203.283 26.28L202.803 28.6ZM203.563 11.44C203.19 11.44 202.857 11.4933 202.563 11.6C202.27 11.7067 201.99 11.8667 201.723 12.08C201.27 12.4533 200.91 12.9867 200.643 13.68C200.377 14.3733 200.11 15.12 199.843 15.92C199.577 16.6933 199.243 17.44 198.843 18.16C198.443 18.8533 197.897 19.4267 197.203 19.88C196.51 20.3333 195.59 20.5467 194.443 20.52L194.043 20.56L194.123 20.12C195.243 20.04 196.123 19.7733 196.763 19.32C197.403 18.84 197.91 18.2667 198.283 17.6C198.657 16.9067 198.963 16.1867 199.203 15.44C199.443 14.6667 199.697 13.9467 199.963 13.28C200.23 12.5867 200.617 12.0267 201.123 11.6C201.523 11.2533 201.963 11.0133 202.443 10.88C202.923 10.7467 203.337 10.68 203.683 10.68C205.23 10.68 206.377 11.1333 207.123 12.04C207.897 12.9467 208.283 14.0133 208.283 15.24C208.283 16.0933 208.097 16.8267 207.723 17.44C207.377 18.0533 206.897 18.52 206.283 18.84C205.67 19.1333 204.99 19.28 204.243 19.28C203.203 19.28 202.403 19.0133 201.843 18.48C201.283 17.92 201.003 17.2667 201.003 16.52C201.003 15.4267 201.363 14.4933 202.083 13.72C202.83 12.9467 203.657 12.36 204.563 11.96C204.457 11.8 204.31 11.68 204.123 11.6C203.937 11.4933 203.75 11.44 203.563 11.44Z"/>
</mask>
<path d="M5.88 26.76L6.69518 27.3392L6.6962 27.3378L5.88 26.76ZM4.92 29.24L3.92771 29.364L3.9284 29.3693L4.92 29.24ZM6.04 30.64L5.60727 31.5415L5.62858 31.5518L5.65036 31.561L6.04 30.64ZM8.6 31.2L9.58058 31.3961L9.80146 30.2917L8.6787 30.2031L8.6 31.2ZM8.44 32L8.40157 32.9993L9.2534 33.032L9.42058 32.1961L8.44 32ZM5.12 31.92L5.08776 32.9195L5.10388 32.92H5.12V31.92ZM1.36 31.92V32.92H1.39567L1.43125 32.9175L1.36 31.92ZM0.16 32L-0.820581 31.8039L-1.09268 33.1644L0.284035 32.9923L0.16 32ZM0.32 31.2L0.0326519 30.2422L-0.542764 30.4148L-0.660581 31.0039L0.32 31.2ZM1.8 30.48L2.37668 31.297L2.38846 31.2887L2.4 31.28L1.8 30.48ZM3.24 29.04L4.00822 29.6802L4.01462 29.6725L4.02087 29.6647L3.24 29.04ZM5.2 26.44L6.00965 27.027L6.01507 27.0194L5.2 26.44ZM21.52 3.48L21.6304 2.48611L21.0458 2.42115L20.7049 2.90064L21.52 3.48ZM24.52 3.48L25.518 3.41653L25.4505 2.3559L24.396 2.48772L24.52 3.48ZM26.12 28.64L25.122 28.7035L25.1226 28.7133L25.1235 28.723L26.12 28.64ZM26.84 30.64L26.1577 31.3711L26.1828 31.3945L26.2094 31.4161L26.84 30.64ZM28.08 31.2L29.0606 31.3961L29.2842 30.2781L28.1465 30.2022L28.08 31.2ZM27.92 32L27.8512 32.9976L28.7282 33.0581L28.9006 32.1961L27.92 32ZM24.8 31.92L24.7796 32.9198L24.7898 32.92H24.8V31.92ZM17.28 31.92V32.92H17.2909L17.3017 32.9198L17.28 31.92ZM14.36 32L13.3794 31.8039L13.1213 33.0945L14.4339 32.9973L14.36 32ZM14.52 31.2L14.4784 30.2009L13.6935 30.2336L13.5394 31.0039L14.52 31.2ZM17.24 30.52L17.84 31.32L17.846 31.3154L17.24 30.52ZM17.96 27.84L16.9614 27.8924L16.9617 27.8987L17.96 27.84ZM17.04 10.32L16.3018 9.64543L16.0194 9.95443L16.0414 10.3724L17.04 10.32ZM19.16 8L19.9762 8.57777L18.4218 7.32543L19.16 8ZM9.96 20.48V19.48H9.51464L9.21671 19.811L9.96 20.48ZM21.64 20.48L22.5685 20.8514L23.117 19.48H21.64V20.48ZM21.32 21.28V22.28H21.997L22.2485 21.6514L21.32 21.28ZM9.24 21.28L8.49671 20.611L6.99464 22.28H9.24V21.28ZM5.06482 26.1808C4.31724 27.2329 3.7984 28.3295 3.92772 29.364L5.91228 29.116C5.8816 28.8705 6.00276 28.3137 6.69518 27.3392L5.06482 26.1808ZM3.9284 29.3693C4.06118 30.3873 4.70461 31.1082 5.60727 31.5415L6.47273 29.7385C6.04205 29.5318 5.93882 29.3193 5.9116 29.1107L3.9284 29.3693ZM5.65036 31.561C6.4704 31.9079 7.43586 32.1112 8.5213 32.1969L8.6787 30.2031C7.73747 30.1288 6.99627 29.9588 6.42964 29.719L5.65036 31.561ZM7.61942 31.0039L7.45942 31.8039L9.42058 32.1961L9.58058 31.3961L7.61942 31.0039ZM8.47843 31.0007C7.08627 30.9472 5.96515 30.92 5.12 30.92V32.92C5.92818 32.92 7.02039 32.9461 8.40157 32.9993L8.47843 31.0007ZM5.15224 30.9205C4.31596 30.8935 3.51849 30.88 2.76 30.88V32.88C3.49485 32.88 4.27071 32.8931 5.08776 32.9195L5.15224 30.9205ZM2.76 30.88C2.18663 30.88 1.6943 30.8936 1.28875 30.9225L1.43125 32.9175C1.77237 32.8931 2.21337 32.88 2.76 32.88V30.88ZM1.36 30.92C0.939543 30.92 0.497751 30.95 0.0359652 31.0077L0.284035 32.9923C0.675582 32.9433 1.03379 32.92 1.36 32.92V30.92ZM1.14058 32.1961L1.30058 31.3961L-0.660581 31.0039L-0.820581 31.8039L1.14058 32.1961ZM0.607347 32.1578C1.24373 31.9669 1.83483 31.6795 2.37668 31.297L1.22332 29.663C0.858502 29.9205 0.462933 30.1131 0.0326519 30.2422L0.607347 32.1578ZM2.4 31.28C2.91324 30.8951 3.44963 30.3505 4.00822 29.6802L2.47178 28.3998C1.9637 29.0095 1.54009 29.4249 1.2 29.68L2.4 31.28ZM4.02087 29.6647C4.56785 28.981 5.23139 28.1004 6.00961 27.027L4.39039 25.853C3.62195 26.913 2.97882 27.7657 2.45913 28.4153L4.02087 29.6647ZM6.01507 27.0194L22.3351 4.05935L20.7049 2.90064L4.38493 25.8606L6.01507 27.0194ZM21.4096 4.47388C21.9298 4.53168 22.4735 4.56 23.04 4.56V2.56C22.5398 2.56 22.0702 2.53498 21.6304 2.48611L21.4096 4.47388ZM23.04 4.56C23.6298 4.56 24.1661 4.53202 24.644 4.47228L24.396 2.48772C24.0206 2.53465 23.5702 2.56 23.04 2.56V4.56ZM23.522 3.54346L25.122 28.7035L27.118 28.5765L25.518 3.41653L23.522 3.54346ZM25.1235 28.723C25.2098 29.7593 25.4808 30.7393 26.1577 31.3711L27.5223 29.9089C27.3992 29.7941 27.1902 29.4407 27.1165 28.557L25.1235 28.723ZM26.2094 31.4161C26.7384 31.8459 27.3431 32.1531 28.0135 32.1978L28.1465 30.2022C28.0169 30.1936 27.7949 30.1274 27.4706 29.8639L26.2094 31.4161ZM27.0994 31.0039L26.9394 31.8039L28.9006 32.1961L29.0606 31.3961L27.0994 31.0039ZM27.9888 31.0024C27.1824 30.9468 26.1164 30.92 24.8 30.92V32.92C26.0969 32.92 27.111 32.9466 27.8512 32.9976L27.9888 31.0024ZM24.8204 30.9202C23.508 30.8934 22.2878 30.88 21.16 30.88V32.88C22.2722 32.88 23.4786 32.8932 24.7796 32.9198L24.8204 30.9202ZM21.16 30.88C19.7935 30.88 18.4929 30.8934 17.2583 30.9202L17.3017 32.9198C18.5204 32.8933 19.8065 32.88 21.16 32.88V30.88ZM17.28 30.92C16.0431 30.92 15.0418 30.9468 14.2861 31.0027L14.4339 32.9973C15.1182 32.9466 16.0635 32.92 17.28 32.92V30.92ZM15.3406 32.1961L15.5006 31.3961L13.5394 31.0039L13.3794 31.8039L15.3406 32.1961ZM14.5616 32.1991C15.8863 32.1439 17.0532 31.9101 17.84 31.32L16.64 29.72C16.3601 29.9299 15.7137 30.1494 14.4784 30.2009L14.5616 32.1991ZM17.846 31.3154C18.8399 30.5582 19.0406 29.1815 18.9583 27.7813L16.9617 27.8987C17.0394 29.2185 16.7601 29.6285 16.634 29.7246L17.846 31.3154ZM18.9586 27.7876L18.0386 10.2676L16.0414 10.3724L16.9614 27.8924L18.9586 27.7876ZM17.7782 10.9946L19.8982 8.67457L18.4218 7.32543L16.3018 9.64543L17.7782 10.9946ZM18.3438 7.42222L5.0638 26.1822L6.6962 27.3378L19.9762 8.57777L18.3438 7.42222ZM9.96 21.48H21.64V19.48H9.96V21.48ZM20.7115 20.1086L20.3915 20.9086L22.2485 21.6514L22.5685 20.8514L20.7115 20.1086ZM21.32 20.28H9.24V22.28H21.32V20.28ZM9.98329 21.949L10.7033 21.149L9.21671 19.811L8.49671 20.611L9.98329 21.949ZM37.5178 28.6L36.5592 28.3151L36.5578 28.32L37.5178 28.6ZM37.5178 29.92L38.3072 29.3061L38.3072 29.3061L37.5178 29.92ZM38.9578 29.92L39.4723 30.7775L39.4927 30.7652L39.5125 30.7521L38.9578 29.92ZM40.1978 27.76L39.2614 27.4089L39.258 27.4183L40.1978 27.76ZM41.0378 25.52V24.52H40.3448L40.1015 25.1689L41.0378 25.52ZM41.7978 25.52L42.7439 25.844L43.1973 24.52H41.7978V25.52ZM40.7978 28.44L41.742 28.7694L41.7439 28.764L40.7978 28.44ZM39.1978 31.04L38.5372 30.2893L38.5296 30.296L38.5221 30.3028L39.1978 31.04ZM37.1578 32.24L37.4419 33.1988L37.4419 33.1988L37.1578 32.24ZM32.8778 32.12L32.4464 33.0221L32.4537 33.0257L32.4612 33.0291L32.8778 32.12ZM31.4378 30.84L30.5769 31.3487L30.5821 31.3576L30.5875 31.3664L31.4378 30.84ZM30.8778 28.68L29.8783 28.7112L30.8778 28.68ZM31.3578 25.68L32.315 25.9694L32.3155 25.9679L31.3578 25.68ZM37.4778 5.32L38.4355 5.60787L38.4372 5.60216L37.4778 5.32ZM37.3978 3.32L36.5978 3.92L36.5978 3.92L37.3978 3.32ZM34.9578 2.68L34.0091 2.36377L33.5704 3.68H34.9578V2.68ZM35.2378 1.84L35.2256 0.840074L34.5141 0.848751L34.2891 1.52377L35.2378 1.84ZM41.0378 1.4L41.1946 2.38771L41.2072 2.38555L41.0378 1.4ZM45.9578 0.199999L46.9164 0.484869L47.4567 -1.33327L45.6513 -0.751861L45.9578 0.199999ZM36.5578 28.32C36.4501 28.6893 36.3778 29.0599 36.3778 29.41C36.3778 29.7561 36.4494 30.1751 36.7285 30.5339L38.3072 29.3061C38.3996 29.4249 38.3778 29.5039 38.3778 29.41C38.3778 29.3201 38.3989 29.1507 38.4778 28.88L36.5578 28.32ZM36.7285 30.5339C37.0491 30.9462 37.5289 31.28 38.1578 31.28V29.28C38.1821 29.28 38.2099 29.2832 38.2387 29.2908C38.2674 29.2984 38.2909 29.3087 38.3081 29.3184C38.3416 29.3373 38.338 29.3458 38.3072 29.3061L36.7285 30.5339ZM38.1578 31.28C38.4546 31.28 38.7238 31.1669 38.8682 31.1019C39.0518 31.0193 39.2559 30.9073 39.4723 30.7775L38.4433 29.0625C38.2597 29.1727 38.1305 29.2407 38.0474 29.2781C38.0062 29.2966 37.9906 29.3011 37.9955 29.2997C37.9987 29.2987 38.0132 29.2945 38.0369 29.2902C38.0597 29.2861 38.1017 29.28 38.1578 29.28V31.28ZM39.5125 30.7521C39.9029 30.4918 40.1998 30.0878 40.4351 29.6779C40.6808 29.2499 40.9134 28.7184 41.1376 28.1017L39.258 27.4183C39.0556 27.975 38.8682 28.3901 38.7006 28.6821C38.6174 28.827 38.5459 28.9295 38.4887 28.9989C38.4301 29.07 38.3998 29.0902 38.4031 29.0879L39.5125 30.7521ZM41.1341 28.1111L41.9741 25.8711L40.1015 25.1689L39.2615 27.4089L41.1341 28.1111ZM41.0378 26.52H41.7978V24.52H41.0378V26.52ZM40.8518 25.196L39.8518 28.116L41.7439 28.764L42.7439 25.844L40.8518 25.196ZM39.8536 28.1106C39.4904 29.1519 39.0358 29.8505 38.5372 30.2893L39.8584 31.7907C40.6932 31.0561 41.3052 30.0214 41.742 28.7694L39.8536 28.1106ZM38.5221 30.3028C37.9766 30.8029 37.4269 31.1173 36.8737 31.2812L37.4419 33.1988C38.3287 32.936 39.139 32.4505 39.8735 31.7772L38.5221 30.3028ZM36.8737 31.2812C36.2304 31.4718 35.6467 31.56 35.1178 31.56V33.56C35.869 33.56 36.6452 33.4349 37.4419 33.1988L36.8737 31.2812ZM35.1178 31.56C34.3784 31.56 33.779 31.433 33.2945 31.2109L32.4612 33.0291C33.2566 33.3936 34.1506 33.56 35.1178 33.56V31.56ZM33.3093 31.2179C32.8627 31.0043 32.5306 30.7054 32.2881 30.3136L30.5875 31.3664C31.0383 32.0946 31.6662 32.649 32.4464 33.0221L33.3093 31.2179ZM32.2987 30.3313C32.0568 29.9218 31.9 29.3756 31.8773 28.6488L29.8783 28.7112C29.9089 29.691 30.1255 30.5849 30.5769 31.3487L32.2987 30.3313ZM31.8773 28.6488C31.8551 27.9379 31.9881 27.0507 32.315 25.9694L30.4006 25.3906C30.0342 26.6026 29.8472 27.7154 29.8783 28.7112L31.8773 28.6488ZM32.3155 25.9679L38.4355 5.60786L36.5201 5.03213L30.4001 25.3921L32.3155 25.9679ZM38.4372 5.60216C38.7266 4.6181 38.8138 3.54126 38.1978 2.72L36.5978 3.92C36.6219 3.95207 36.7623 4.20857 36.5184 5.03783L38.4372 5.60216ZM38.1978 2.72C37.8439 2.24807 37.3084 2.00568 36.8015 1.87272C36.2796 1.73582 35.6551 1.68 34.9578 1.68V3.68C35.5672 3.68 36.0027 3.73084 36.2941 3.80728C36.6005 3.88765 36.6318 3.96526 36.5978 3.92L38.1978 2.72ZM35.9065 2.99623L36.1865 2.15623L34.2891 1.52377L34.0091 2.36377L35.9065 2.99623ZM35.25 2.83993C37.4722 2.81282 39.4555 2.66368 41.1946 2.38763L40.881 0.412363C39.2601 0.669651 37.3768 0.813839 35.2256 0.840074L35.25 2.83993ZM41.2072 2.38555C42.9581 2.08461 44.6441 1.67364 46.2643 1.15186L45.6513 -0.751861C44.1249 -0.260309 42.5308 0.128723 40.8684 0.414449L41.2072 2.38555ZM44.9992 -0.0848704L36.5592 28.3151L38.4764 28.8849L46.9164 0.484869L44.9992 -0.0848704ZM52.4141 29.52L51.8259 28.7113L51.8259 28.7113L52.4141 29.52ZM53.3341 28.44L54.1796 28.974L54.1857 28.9643L54.1916 28.9545L53.3341 28.44ZM54.3741 26.24L53.4456 25.8686L53.4456 25.8686L54.3741 26.24ZM55.5741 22.64L56.5468 22.872L54.6139 22.3607L55.5741 22.64ZM54.5341 27L55.4914 27.289L55.4999 27.2607L55.5068 27.232L54.5341 27ZM52.8941 30.36L52.1156 29.7322L52.1132 29.7353L52.8941 30.36ZM50.6941 32.04L50.3331 31.1074L50.3146 31.1146L50.2965 31.1224L50.6941 32.04ZM44.3341 31.28L43.5941 31.9527L43.6048 31.9644L43.6158 31.9758L44.3341 31.28ZM43.8941 22.84L42.9454 22.5238L42.943 22.5309L42.9407 22.5381L43.8941 22.84ZM46.0141 18.28L45.1635 17.7542L45.1608 17.7585L46.0141 18.28ZM49.0141 14.4L48.2987 13.7013L48.2985 13.7015L49.0141 14.4ZM52.4941 11.68L52.9797 12.5542L52.9797 12.5542L52.4941 11.68ZM57.9341 11.48L57.1721 12.1276L57.1813 12.1384L57.1908 12.149L57.9341 11.48ZM58.4541 14.32L58.9329 15.1979L59.3976 14.9444L59.4493 14.4176L58.4541 14.32ZM58.0141 14.56L57.0335 14.3639L56.6137 16.4629L58.4929 15.4379L58.0141 14.56ZM58.0141 13.12L57.091 13.5046L57.0971 13.5193L57.1037 13.5338L58.0141 13.12ZM54.0141 15.88L53.1585 15.3622L53.1545 15.3689L54.0141 15.88ZM52.3341 19.32L51.4082 18.9421L51.4043 18.952L52.3341 19.32ZM51.0941 23.4L50.1179 23.1831L50.116 23.1917L50.1142 23.2004L51.0941 23.4ZM50.8541 29.36L49.9207 29.719L49.9257 29.7319L49.931 29.7446L50.8541 29.36ZM58.9741 11.28L58.9559 10.2802L58.226 10.2934L58.0162 10.9927L58.9741 11.28ZM62.8541 11.12L62.9253 12.1175L62.936 12.1167L62.9467 12.1157L62.8541 11.12ZM66.2141 10.68L67.1715 10.9685L67.6374 9.42252L66.0458 9.69426L66.2141 10.68ZM60.8141 28.6L61.7686 28.8983L61.7715 28.8885L60.8141 28.6ZM60.6141 29.64H59.6141V29.6954L59.6202 29.7504L60.6141 29.64ZM60.8141 30.16L60.107 30.8671L60.194 30.9542L60.2996 31.0175L60.8141 30.16ZM62.2141 29.88L62.7953 30.6937L62.8139 30.6804L62.8319 30.6663L62.2141 29.88ZM63.4141 27.76L64.3486 28.116L64.3504 28.1111L63.4141 27.76ZM64.2541 25.52V24.52H63.5611L63.3177 25.1689L64.2541 25.52ZM65.0141 25.52L65.9601 25.844L66.4135 24.52H65.0141V25.52ZM64.0141 28.44L63.068 28.116L63.0654 28.1238L64.0141 28.44ZM62.4941 31L61.8183 30.2628L61.8105 30.27L61.8028 30.2774L62.4941 31ZM60.4541 32.2L60.1793 31.2385L60.1584 31.2444L60.1378 31.2513L60.4541 32.2ZM54.8141 31.16L54.0003 31.7412L54.0058 31.7488L54.0113 31.7563L54.8141 31.16ZM54.1341 28.96L53.1345 28.9894L53.1349 29.0041L53.1358 29.0187L54.1341 28.96ZM54.6541 25.68L53.6962 25.3926L53.6941 25.4L54.6541 25.68ZM51.5741 30.84C52.1163 30.84 52.5985 30.6224 53.0022 30.3287L51.8259 28.7113C51.7363 28.7764 51.6703 28.8094 51.6281 28.8255C51.6075 28.8334 51.5933 28.8369 51.5851 28.8385C51.5809 28.8393 51.5781 28.8397 51.5764 28.8398C51.5756 28.8399 51.575 28.84 51.5746 28.84C51.5744 28.84 51.5743 28.84 51.5742 28.84C51.5741 28.84 51.5741 28.84 51.5741 28.84C51.5741 28.84 51.5741 28.84 51.5741 28.84C51.5741 28.84 51.5741 28.84 51.5741 28.84C51.5739 28.84 51.5742 28.84 51.5741 28.84C51.5739 28.84 51.5742 28.84 51.5741 28.84V30.84ZM53.0022 30.3287C53.4433 30.008 53.8303 29.527 54.1796 28.974L52.4886 27.906C52.1979 28.3663 51.9715 28.6054 51.8259 28.7113L53.0022 30.3287ZM54.1916 28.9545C54.5505 28.3563 54.9199 27.568 55.3025 26.6114L53.4456 25.8686C53.0816 26.7786 52.7577 27.457 52.4766 27.9255L54.1916 28.9545ZM55.3025 26.6114C55.6924 25.6367 56.1027 24.403 56.5343 22.9193L54.6139 22.3607C54.1921 23.8104 53.8024 24.9766 53.4456 25.8686L55.3025 26.6114ZM54.6014 22.408L53.5614 26.768L55.5068 27.232L56.5468 22.872L54.6014 22.408ZM53.5767 26.711C53.1738 28.0457 52.6765 29.0368 52.1157 29.7322L53.6725 30.9878C54.445 30.0298 55.041 28.7809 55.4914 27.289L53.5767 26.711ZM52.1132 29.7353C51.5661 30.4192 50.9709 30.8605 50.3331 31.1074L51.0551 32.9726C52.0706 32.5795 52.942 31.9008 53.6749 30.9847L52.1132 29.7353ZM50.2965 31.1224C49.6306 31.411 48.9004 31.56 48.0941 31.56V33.56C49.1544 33.56 50.1575 33.3624 51.0917 32.9576L50.2965 31.1224ZM48.0941 31.56C46.5709 31.56 45.6239 31.1742 45.0523 30.5842L43.6158 31.9758C44.6976 33.0925 46.2572 33.56 48.0941 33.56V31.56ZM45.074 30.6073C44.492 29.9671 44.1341 28.9985 44.1341 27.56H42.1341C42.1341 29.3215 42.5762 30.8329 43.5941 31.9527L45.074 30.6073ZM44.1341 27.56C44.1341 26.1241 44.369 24.6525 44.8474 23.1419L42.9407 22.5381C42.4058 24.2275 42.1341 25.9026 42.1341 27.56H44.1341ZM44.8427 23.1562C45.3521 21.6281 46.0268 20.1769 46.8673 18.8014L45.1608 17.7585C44.2413 19.2631 43.5027 20.8519 42.9454 22.5238L44.8427 23.1562ZM46.8647 18.8058C47.7366 17.3953 48.6924 16.1611 49.7296 15.0985L48.2985 13.7015C47.1491 14.8789 46.1048 16.2314 45.1635 17.7542L46.8647 18.8058ZM49.7294 15.0987C50.7928 14.0101 51.8772 13.1667 52.9797 12.5542L52.0084 10.8058C50.711 11.5267 49.4753 12.4966 48.2987 13.7013L49.7294 15.0987ZM52.9797 12.5542C54.0644 11.9516 55.0584 11.68 55.9741 11.68V9.68C54.6498 9.68 53.3238 10.0751 52.0084 10.8058L52.9797 12.5542ZM55.9741 11.68C56.6043 11.68 56.95 11.8664 57.1721 12.1276L58.696 10.8324C58.0114 10.027 57.0505 9.68 55.9741 9.68V11.68ZM57.1908 12.149C57.3708 12.349 57.5871 12.9141 57.4588 14.2224L59.4493 14.4176C59.5877 13.0059 59.4573 11.6777 58.6774 10.811L57.1908 12.149ZM57.9752 13.4421L57.5352 13.6821L58.4929 15.4379L58.9329 15.1979L57.9752 13.4421ZM58.9946 14.7561C59.1321 14.0689 59.199 13.3104 58.9244 12.7062L57.1037 13.5338C57.0896 13.5028 57.1141 13.539 57.1141 13.7C57.1141 13.8533 57.0921 14.0708 57.0335 14.3639L58.9946 14.7561ZM58.9371 12.7354C58.816 12.4447 58.6222 12.1558 58.3207 11.943C58.0138 11.7264 57.6678 11.64 57.3341 11.64V13.64C57.3306 13.64 57.309 13.6395 57.2757 13.6297C57.2411 13.6196 57.2032 13.6022 57.1674 13.577C57.0926 13.5242 57.0788 13.4753 57.091 13.5046L58.9371 12.7354ZM57.3341 11.64C56.4669 11.64 55.7001 12.1798 55.067 12.8129L56.4812 14.2271C57.0214 13.6869 57.2946 13.64 57.3341 13.64V11.64ZM55.067 12.8129C54.4295 13.4504 53.7952 14.3104 53.1586 15.3622L54.8696 16.3978C55.4596 15.4229 55.9986 14.7096 56.4812 14.2271L55.067 12.8129ZM53.1545 15.3689C52.5375 16.4066 51.9562 17.5995 51.4082 18.9421L53.2599 19.6979C53.7786 18.4272 54.3173 17.3267 54.8736 16.3911L53.1545 15.3689ZM51.4043 18.952C50.8768 20.2844 50.4485 21.6952 50.1179 23.1831L52.0702 23.6169C52.3796 22.2248 52.778 20.9156 53.2639 19.688L51.4043 18.952ZM50.1142 23.2004C49.8077 24.7047 49.6541 26.2116 49.6541 27.72H51.6541C51.6541 26.3484 51.7937 24.9753 52.0739 23.5996L50.1142 23.2004ZM49.6541 27.72C49.6541 28.4909 49.7181 29.1922 49.9207 29.719L51.7874 29.001C51.7233 28.8344 51.6541 28.4424 51.6541 27.72H49.6541ZM49.931 29.7446C50.058 30.0495 50.2644 30.3421 50.5794 30.5521C50.8943 30.762 51.2437 30.84 51.5741 30.84V28.84C51.5577 28.84 51.6138 28.838 51.6888 28.8879C51.7637 28.9379 51.7834 28.9905 51.7771 28.9754L49.931 29.7446ZM58.9922 12.2798C60.4716 12.2529 61.7833 12.199 62.9253 12.1175L62.7828 10.1225C61.6849 10.201 60.4099 10.2537 58.9559 10.2802L58.9922 12.2798ZM62.9467 12.1157C64.1177 12.0068 65.263 11.8568 66.3824 11.6657L66.0458 9.69426C64.9785 9.87649 63.8837 10.0199 62.7614 10.1243L62.9467 12.1157ZM65.2566 10.3915L59.8566 28.3115L61.7715 28.8885L67.1715 10.9685L65.2566 10.3915ZM59.8596 28.3017C59.7135 28.7691 59.6141 29.2268 59.6141 29.64H61.6141C61.6141 29.5199 61.6479 29.2843 61.7685 28.8983L59.8596 28.3017ZM59.6202 29.7504C59.6579 30.0896 59.7683 30.5285 60.107 30.8671L61.5212 29.4529C61.5869 29.5186 61.6118 29.5765 61.6174 29.591C61.6224 29.604 61.6145 29.5884 61.6079 29.5296L59.6202 29.7504ZM60.2996 31.0175C60.6169 31.2079 60.9626 31.28 61.2941 31.28V29.28C61.2719 29.28 61.2677 29.2776 61.2766 29.2799C61.2865 29.2823 61.3056 29.2888 61.3286 29.3025L60.2996 31.0175ZM61.2941 31.28C61.8604 31.28 62.3839 30.9876 62.7953 30.6937L61.6328 29.0663C61.4838 29.1727 61.3756 29.2324 61.3053 29.2629C61.2316 29.295 61.2342 29.28 61.2941 29.28V31.28ZM62.8319 30.6663C63.169 30.4014 63.4392 30.0203 63.6643 29.6226C63.8978 29.2101 64.1249 28.7032 64.3486 28.116L62.4796 27.404C62.2766 27.9368 62.0903 28.3432 61.9238 28.6374C61.7489 28.9464 61.6325 29.0652 61.5962 29.0937L62.8319 30.6663ZM64.3504 28.1111L65.1904 25.8711L63.3177 25.1689L62.4777 27.4089L64.3504 28.1111ZM64.2541 26.52H65.0141V24.52H64.2541V26.52ZM64.068 25.196L63.068 28.116L64.9601 28.764L65.9601 25.844L64.068 25.196ZM63.0654 28.1238C62.7273 29.1381 62.296 29.825 61.8183 30.2628L63.1698 31.7372C63.9721 31.0017 64.5542 29.9819 64.9627 28.7562L63.0654 28.1238ZM61.8028 30.2774C61.2957 30.7624 60.7557 31.0738 60.1793 31.2385L60.7288 33.1615C61.6458 32.8995 62.4657 32.4109 63.1853 31.7226L61.8028 30.2774ZM60.1378 31.2513C59.5143 31.4592 58.9009 31.56 58.2941 31.56V33.56C59.1272 33.56 59.9539 33.4208 60.7703 33.1487L60.1378 31.2513ZM58.2941 31.56C56.849 31.56 56.0535 31.1515 55.6168 30.5637L54.0113 31.7563C54.9613 33.0352 56.4858 33.56 58.2941 33.56V31.56ZM55.6278 30.5788C55.3671 30.2138 55.1781 29.6787 55.1323 28.9013L53.1358 29.0187C53.1967 30.0547 53.461 30.9862 54.0003 31.7412L55.6278 30.5788ZM55.1336 28.9306C55.1111 28.1652 55.2576 27.1822 55.6141 25.96L53.6941 25.4C53.3039 26.7378 53.1037 27.9415 53.1345 28.9894L55.1336 28.9306ZM55.6119 25.9673L59.9319 11.5673L58.0162 10.9927L53.6962 25.3927L55.6119 25.9673ZM83.4953 11.24L84.4842 11.3883L84.6565 10.24H83.4953V11.24ZM83.3753 12.04V13.04H84.2365L84.3642 12.1883L83.3753 12.04ZM68.5353 12.04L67.5652 11.7975L67.2545 13.04H68.5353V12.04ZM68.7353 11.24V10.24H67.9545L67.7652 10.9975L68.7353 11.24ZM74.4153 28.6L73.4555 28.3193L73.4538 28.3253L74.4153 28.6ZM74.3753 29.88L73.4649 30.2938L73.4885 30.3457L73.5178 30.3945L74.3753 29.88ZM76.7353 29.4L75.9954 28.7273L75.9954 28.7273L76.7353 29.4ZM78.0153 27.24L78.9516 27.5911L78.9525 27.5887L78.0153 27.24ZM78.6553 25.52V24.52H77.9604L77.7181 25.1713L78.6553 25.52ZM79.4153 25.52L80.3605 25.8465L80.8188 24.52H79.4153V25.52ZM78.6553 27.72L77.7101 27.3935L77.7066 27.4038L78.6553 27.72ZM76.2553 31.28L75.64 30.4917L75.64 30.4917L76.2553 31.28ZM69.2153 31.64L68.5509 32.3874L68.5588 32.3944L68.5668 32.4012L69.2153 31.64ZM68.2553 25.68L67.2942 25.4038L67.2915 25.4134L68.2553 25.68ZM74.0953 5.36L74.0771 4.36016L73.3383 4.3736L73.1342 5.08378L74.0953 5.36ZM78.0153 5.2L78.0849 6.19757L78.0849 6.19757L78.0153 5.2ZM81.3753 4.8L82.3351 5.08068L82.7842 3.54499L81.207 3.81426L81.3753 4.8ZM82.5064 11.0917L82.3864 11.8917L84.3642 12.1883L84.4842 11.3883L82.5064 11.0917ZM83.3753 11.04H68.5353V13.04H83.3753V11.04ZM69.5055 12.2825L69.7055 11.4825L67.7652 10.9975L67.5652 11.7975L69.5055 12.2825ZM68.7353 12.24H83.4953V10.24H68.7353V12.24ZM73.4538 28.3253C73.2755 28.9493 73.1804 29.6678 73.4649 30.2938L75.2857 29.4662C75.2996 29.4968 75.2815 29.479 75.2848 29.3712C75.2882 29.264 75.3119 29.1021 75.3768 28.8747L73.4538 28.3253ZM73.5178 30.3945C73.8821 31.0016 74.4857 31.28 75.1353 31.28V29.28C75.0904 29.28 75.1068 29.2718 75.1511 29.2951C75.1722 29.3062 75.1919 29.3206 75.2082 29.3364C75.2241 29.3518 75.2315 29.3634 75.2328 29.3655L73.5178 30.3945ZM75.1353 31.28C76.0639 31.28 76.8452 30.7657 77.4753 30.0727L75.9954 28.7273C75.5587 29.2076 75.2734 29.28 75.1353 29.28V31.28ZM77.4753 30.0727C78.1056 29.3793 78.5937 28.5456 78.9516 27.5911L77.079 26.8889C76.7969 27.6411 76.4317 28.2474 75.9954 28.7273L77.4753 30.0727ZM78.9525 27.5887L79.5925 25.8687L77.7181 25.1713L77.0781 26.8913L78.9525 27.5887ZM78.6553 26.52H79.4153V24.52H78.6553V26.52ZM78.4701 25.1935L77.7101 27.3935L79.6005 28.0465L80.3605 25.8465L78.4701 25.1935ZM77.7066 27.4038C77.2523 28.7668 76.5552 29.7774 75.64 30.4917L76.8706 32.0683C78.1421 31.0759 79.045 29.7132 79.604 28.0362L77.7066 27.4038ZM75.64 30.4917C74.7427 31.192 73.6462 31.56 72.2953 31.56V33.56C74.0378 33.56 75.5812 33.0746 76.8706 32.0683L75.64 30.4917ZM72.2953 31.56C71.1033 31.56 70.341 31.2853 69.8638 30.8788L68.5668 32.4012C69.5296 33.2214 70.8206 33.56 72.2953 33.56V31.56ZM69.8797 30.8926C69.3567 30.4277 69.0328 29.8162 68.9272 28.9928L66.9434 29.2472C67.1045 30.5038 67.634 31.5723 68.5509 32.3874L69.8797 30.8926ZM68.9272 28.9928C68.8143 28.1122 68.8996 27.1016 69.2191 25.9466L67.2915 25.4134C66.9177 26.765 66.7897 28.0478 66.9434 29.2472L68.9272 28.9928ZM69.2164 25.9562L75.0564 5.63622L73.1342 5.08378L67.2942 25.4038L69.2164 25.9562ZM74.1135 6.35983C75.5929 6.33293 76.9172 6.27904 78.0849 6.19757L77.9457 4.20242C76.8201 4.28096 75.5311 4.33373 74.0771 4.36016L74.1135 6.35983ZM78.0849 6.19757C79.2635 6.11535 80.4164 5.97818 81.5436 5.78574L81.207 3.81426C80.1475 3.99515 79.0605 4.12465 77.9457 4.20242L78.0849 6.19757ZM80.4155 4.51932L73.4555 28.3193L75.3751 28.8807L82.3351 5.08068L80.4155 4.51932ZM121.418 3.8V2.8H120.87L120.575 3.26216L121.418 3.8ZM129.338 3.76L129.317 2.76022L129.317 2.76023L129.338 3.76ZM132.738 3.68L133.708 3.92254L134.028 2.64478L132.711 2.68036L132.738 3.68ZM132.538 4.48L132.568 5.47957L133.325 5.4573L133.508 4.72253L132.538 4.48ZM130.418 4.8L130.719 5.75358L130.742 5.74649L130.764 5.73834L130.418 4.8ZM129.218 5.76L128.365 5.23855L128.36 5.24573L128.356 5.25298L129.218 5.76ZM128.418 7.92L127.453 7.65909L127.452 7.66282L128.418 7.92ZM123.138 27.76L122.172 27.5028L122.17 27.5101L122.168 27.5175L123.138 27.76ZM122.818 29.92L121.82 29.9755L121.821 30.003L121.824 30.0304L122.818 29.92ZM123.538 30.88L123.187 31.8163L123.187 31.8163L123.538 30.88ZM125.498 31.2L126.479 31.3961L126.704 30.2712L125.559 30.2018L125.498 31.2ZM125.338 32L125.284 32.9985L126.149 33.0453L126.319 32.1961L125.338 32ZM121.978 31.92L121.957 32.9198L121.967 32.92H121.978V31.92ZM113.858 31.92V32.92H113.868L113.879 32.9198L113.858 31.92ZM110.778 32L109.798 31.8039L109.541 33.0877L110.847 32.9976L110.778 32ZM110.938 31.2L110.881 30.2016L110.109 30.2457L109.958 31.0039L110.938 31.2ZM113.058 30.88L112.757 29.9264L112.749 29.9288L112.742 29.9313L113.058 30.88ZM114.258 29.92L113.405 29.3986L114.258 29.92ZM115.058 27.76L114.092 27.5002L114.09 27.5088L114.088 27.5175L115.058 27.76ZM120.858 6.2L121.824 6.45978L120.015 5.66186L120.858 6.2ZM104.258 32.2V33.2H104.806L105.101 32.7381L104.258 32.2ZM103.378 32.2L102.39 32.3507L102.519 33.2H103.378V32.2ZM99.8181 8.84L100.807 8.68934L98.8509 8.58615L99.8181 8.84ZM95.1781 26.52L94.2108 26.2661L94.208 26.2775L95.1781 26.52ZM94.8981 28.72H93.8981V28.7392L93.8989 28.7584L94.8981 28.72ZM95.6981 30.44L95.0313 31.1852L95.0313 31.1852L95.6981 30.44ZM98.4181 31.2L99.3987 31.3961L99.6282 30.2486L98.4589 30.2008L98.4181 31.2ZM98.2581 32L98.1751 32.9965L99.0638 33.0706L99.2387 32.1961L98.2581 32ZM96.8981 31.96L96.8506 32.9589L96.8743 32.96H96.8981V31.96ZM95.1381 31.92L95.0947 32.9191L95.1164 32.92H95.1381V31.92ZM91.4181 31.92V32.92H91.4373L91.4566 32.9193L91.4181 31.92ZM89.6981 32L88.7175 31.8039L88.4475 33.154L89.815 32.9932L89.6981 32ZM89.8581 31.2L89.8011 30.2016L89.0292 30.2457L88.8775 31.0039L89.8581 31.2ZM92.0981 30.44L91.4867 29.6487L91.4777 29.6556L91.4689 29.6628L92.0981 30.44ZM93.4981 28.72L94.3926 29.1672L94.3959 29.1605L94.3991 29.1538L93.4981 28.72ZM94.2981 26.52L93.3319 26.2623L93.3299 26.2699L93.328 26.2775L94.2981 26.52ZM99.2581 7.92L98.2928 7.65909L98.2919 7.66234L99.2581 7.92ZM99.5781 5.76L98.5842 5.87043L98.585 5.87684L99.5781 5.76ZM98.8581 4.8L98.4352 5.70618L98.4705 5.72265L98.507 5.73633L98.8581 4.8ZM96.8981 4.48L95.928 4.23746L95.6266 5.44303L96.8687 5.47957L96.8981 4.48ZM97.0981 3.68L97.1338 2.68064L96.3244 2.65173L96.128 3.43746L97.0981 3.68ZM100.018 3.76L99.9959 4.75975L99.9964 4.75976L100.018 3.76ZM105.818 3.76L105.776 2.76087L105.776 2.76087L105.818 3.76ZM107.538 3.68L108.53 3.55382L108.413 2.63257L107.486 2.68138L107.538 3.68ZM109.858 21.92L108.866 22.0462L109.215 24.7877L110.701 22.4578L109.858 21.92ZM121.418 4.8H125.338V2.8H121.418V4.8ZM125.338 4.8C126.758 4.8 128.098 4.78661 129.359 4.75977L129.317 2.76023C128.071 2.78672 126.745 2.8 125.338 2.8V4.8ZM129.359 4.75978C130.64 4.73308 131.776 4.70637 132.765 4.67963L132.711 2.68036C131.727 2.70696 130.596 2.73358 129.317 2.76022L129.359 4.75978ZM131.768 3.43746L131.568 4.23746L133.508 4.72253L133.708 3.92254L131.768 3.43746ZM132.509 3.48043C131.557 3.50842 130.726 3.62075 130.072 3.86166L130.764 5.73834C131.123 5.60592 131.706 5.50491 132.568 5.47957L132.509 3.48043ZM130.117 3.84642C129.366 4.08361 128.776 4.56574 128.365 5.23855L130.071 6.28145C130.247 5.99425 130.457 5.83638 130.719 5.75358L130.117 3.84642ZM128.356 5.25298C128.019 5.82536 127.725 6.65111 127.453 7.65909L129.383 8.18091C129.644 7.21555 129.883 6.60131 130.08 6.26702L128.356 5.25298ZM127.452 7.66282L122.172 27.5028L124.104 28.0172L129.384 8.17718L127.452 7.66282ZM122.168 27.5175C121.924 28.4945 121.784 29.337 121.82 29.9755L123.817 29.8645C123.799 29.543 123.873 28.9455 124.108 28.0025L122.168 27.5175ZM121.824 30.0304C121.867 30.4112 121.991 30.7901 122.238 31.12C122.488 31.4531 122.821 31.6789 123.187 31.8163L123.889 29.9437C123.857 29.9314 123.842 29.9214 123.837 29.9185C123.834 29.916 123.836 29.9168 123.838 29.92C123.846 29.9299 123.823 29.9088 123.812 29.8096L121.824 30.0304ZM123.187 31.8163C123.758 32.0303 124.533 32.1433 125.438 32.1982L125.559 30.2018C124.703 30.15 124.172 30.0497 123.889 29.9437L123.187 31.8163ZM124.518 31.0039L124.358 31.8039L126.319 32.1961L126.479 31.3961L124.518 31.0039ZM125.392 31.0015C124.383 30.9469 123.245 30.92 121.978 30.92V32.92C123.218 32.92 124.319 32.9464 125.284 32.9985L125.392 31.0015ZM121.999 30.9202C120.738 30.8934 119.398 30.88 117.978 30.88V32.88C119.385 32.88 120.711 32.8933 121.957 32.9198L121.999 30.9202ZM117.978 30.88C116.532 30.88 115.152 30.8934 113.838 30.9202L113.879 32.9198C115.178 32.8933 116.544 32.88 117.978 32.88V30.88ZM113.858 30.92C112.568 30.92 111.515 30.9468 110.709 31.0024L110.847 32.9976C111.587 32.9466 112.588 32.92 113.858 32.92V30.92ZM111.759 32.1961L111.919 31.3961L109.958 31.0039L109.798 31.8039L111.759 32.1961ZM110.995 32.1984C111.956 32.1435 112.768 32.031 113.374 31.8287L112.742 29.9313C112.389 30.049 111.787 30.1498 110.881 30.2016L110.995 32.1984ZM113.359 31.8336C114.11 31.5964 114.7 31.1143 115.111 30.4414L113.405 29.3986C113.229 29.6857 113.019 29.8436 112.757 29.9264L113.359 31.8336ZM115.111 30.4414C115.483 29.8332 115.779 28.9983 116.028 28.0025L114.088 27.5175C113.857 28.4417 113.62 29.0468 113.405 29.3986L115.111 30.4414ZM116.024 28.0198L121.824 6.45978L119.892 5.94022L114.092 27.5002L116.024 28.0198ZM120.015 5.66186L103.415 31.6619L105.101 32.7381L121.701 6.73813L120.015 5.66186ZM104.258 31.2H103.378V33.2H104.258V31.2ZM104.367 32.0493L100.807 8.68934L98.8295 8.99066L102.39 32.3507L104.367 32.0493ZM98.8509 8.58615L94.2109 26.2662L96.1454 26.7738L100.785 9.09384L98.8509 8.58615ZM94.208 26.2775C94.0028 27.098 93.8981 27.9128 93.8981 28.72H95.8981C95.8981 28.0872 95.9801 27.4353 96.1483 26.7625L94.208 26.2775ZM93.8989 28.7584C93.9357 29.7164 94.318 30.547 95.0313 31.1852L96.3649 29.6948C96.0649 29.4264 95.9139 29.1102 95.8974 28.6816L93.8989 28.7584ZM95.0313 31.1852C95.8111 31.8829 97.0234 32.1439 98.3773 32.1992L98.4589 30.2008C97.1995 30.1494 96.5985 29.9037 96.3649 29.6948L95.0313 31.1852ZM97.4375 31.0039L97.2775 31.8039L99.2387 32.1961L99.3987 31.3961L97.4375 31.0039ZM98.3412 31.0035C97.9797 30.9733 97.4939 30.96 96.8981 30.96V32.96C97.4757 32.96 97.8965 32.9733 98.1751 32.9965L98.3412 31.0035ZM96.9457 30.9611C96.3685 30.9336 95.7659 30.92 95.1381 30.92V32.92C95.7371 32.92 96.3078 32.933 96.8506 32.9589L96.9457 30.9611ZM95.1816 30.9209C94.5575 30.8938 93.9959 30.88 93.4981 30.88V32.88C93.9603 32.88 94.4921 32.8929 95.0947 32.9191L95.1816 30.9209ZM93.4981 30.88C92.792 30.88 92.0858 30.8936 91.3797 30.9207L91.4566 32.9193C92.1371 32.8931 92.8176 32.88 93.4981 32.88V30.88ZM91.4181 30.92C90.7035 30.92 90.0878 30.9473 89.5813 31.0068L89.815 32.9932C90.2152 32.9461 90.746 32.92 91.4181 32.92V30.92ZM90.6787 32.1961L90.8387 31.3961L88.8775 31.0039L88.7175 31.8039L90.6787 32.1961ZM89.9152 32.1984C90.9956 32.1366 91.962 31.8368 92.7273 31.2172L91.4689 29.6628C91.1142 29.9499 90.5873 30.1567 89.8011 30.2016L89.9152 32.1984ZM92.7096 31.2313C93.4207 30.6818 93.9818 29.9888 94.3926 29.1672L92.6037 28.2728C92.3211 28.8379 91.9489 29.2915 91.4867 29.6487L92.7096 31.2313ZM94.3991 29.1538C94.7742 28.3749 95.0645 27.5776 95.2683 26.7625L93.328 26.2775C93.1584 26.9557 92.9154 27.6251 92.5971 28.2862L94.3991 29.1538ZM95.2644 26.7777L100.224 8.17766L98.2919 7.66234L93.3319 26.2623L95.2644 26.7777ZM100.223 8.18091C100.492 7.18613 100.649 6.30331 100.571 5.64316L98.585 5.87684C98.614 6.12335 98.5572 6.68053 98.2928 7.65909L100.223 8.18091ZM100.572 5.64957C100.53 5.26885 100.406 4.88995 100.158 4.56C99.9083 4.22693 99.5757 4.00109 99.2092 3.86367L98.507 5.73633C98.5397 5.74859 98.5547 5.75857 98.5588 5.76153C98.5622 5.76396 98.5605 5.7632 98.5581 5.76C98.5507 5.75005 98.5732 5.77115 98.5842 5.87043L100.572 5.64957ZM99.281 3.89382C98.685 3.61566 97.8569 3.50776 96.9275 3.48043L96.8687 5.47957C97.7527 5.50557 98.2313 5.611 98.4352 5.70618L99.281 3.89382ZM97.8683 4.72254L98.0683 3.92254L96.128 3.43746L95.928 4.23746L97.8683 4.72254ZM97.0624 4.67936C97.8154 4.70626 98.7938 4.73304 99.9959 4.75975L100.04 2.76025C98.8425 2.73363 97.8741 2.70708 97.1338 2.68064L97.0624 4.67936ZM99.9964 4.75976C101.231 4.7866 102.518 4.8 103.858 4.8V2.8C102.531 2.8 101.259 2.78673 100.04 2.76024L99.9964 4.75976ZM103.858 4.8C104.538 4.8 105.205 4.7864 105.86 4.75913L105.776 2.76087C105.151 2.78693 104.511 2.8 103.858 2.8V4.8ZM105.86 4.75913C106.503 4.73235 107.08 4.70552 107.591 4.67862L107.486 2.68138C106.983 2.70781 106.414 2.73431 105.776 2.76087L105.86 4.75913ZM106.546 3.80618L108.866 22.0462L110.85 21.7938L108.53 3.55382L106.546 3.80618ZM110.701 22.4578L122.261 4.33784L120.575 3.26216L109.015 21.3822L110.701 22.4578ZM145.187 17.84L146.136 18.1562L146.159 18.0847L146.172 18.0103L145.187 17.84ZM142.267 25.44L143.171 25.867L143.173 25.8622L142.267 25.44ZM139.587 29.88L138.823 29.2341L138.822 29.2359L139.587 29.88ZM136.907 32L137.288 32.9247L137.294 32.922L137.301 32.9191L136.907 32ZM131.387 31.88L131.965 31.064L131.965 31.064L131.387 31.88ZM130.227 29.88L129.234 29.9968L129.236 30.0134L129.238 30.0298L130.227 29.88ZM130.707 26.52L129.756 26.2095L129.754 26.2152L130.707 26.52ZM134.587 14.64L133.642 14.314L133.639 14.3218L133.636 14.3295L134.587 14.64ZM134.667 13.24L133.96 13.9471L134.01 13.9974L134.067 14.04L134.667 13.24ZM133.187 13.4L133.768 14.2137L133.787 14.2004L133.805 14.1863L133.187 13.4ZM131.987 15.48L131.052 15.124L131.051 15.1289L131.987 15.48ZM131.147 17.72V18.72H131.84L132.083 18.0711L131.147 17.72ZM130.387 17.72L129.441 17.396L128.987 18.72H130.387V17.72ZM131.387 14.8L130.445 14.4636L130.441 14.476L131.387 14.8ZM132.907 12.24L132.231 11.5028L132.223 11.51L132.216 11.5174L132.907 12.24ZM134.947 11.04L135.231 11.9988L135.242 11.9955L135.253 11.992L134.947 11.04ZM139.987 11.44L139.411 12.2578L139.422 12.2651L139.432 12.2721L139.987 11.44ZM141.307 13.68L140.319 13.836L140.319 13.836L141.307 13.68ZM140.747 17.56L139.8 17.239L139.798 17.2449L140.747 17.56ZM137.307 27.92L138.256 28.2362L138.256 28.2351L137.307 27.92ZM140.787 26.04L141.67 26.5096L141.67 26.5096L140.787 26.04ZM142.787 21.76L143.71 22.1446L143.712 22.1392L142.787 21.76ZM144.707 16.68L145.651 17.0091L145.653 17.0047L144.707 16.68ZM146.307 11.36L147.292 11.5303L145.338 11.1106L146.307 11.36ZM148.507 28.6L149.464 28.8912L149.467 28.881L149.47 28.8707L148.507 28.6ZM148.267 29.92L147.272 30.0195L147.278 30.0788L147.291 30.1369L148.267 29.92ZM149.987 29.76L150.694 30.4671L150.694 30.4671L149.987 29.76ZM151.067 27.76L150.131 27.4072L150.126 27.4204L151.067 27.76ZM151.987 25.32V24.32H151.295L151.051 24.9672L151.987 25.32ZM152.747 25.32L153.688 25.6579L154.168 24.32H152.747V25.32ZM151.627 28.44L150.686 28.1021L150.683 28.1085L151.627 28.44ZM150.187 30.84L149.48 30.1329L149.472 30.1407L149.464 30.1488L150.187 30.84ZM148.187 32.16L147.851 31.2182L147.84 31.2223L148.187 32.16ZM143.627 32.12L144.074 31.2256L144.065 31.2213L144.057 31.2171L143.627 32.12ZM142.347 31L141.489 31.5145L141.494 31.5215L142.347 31ZM141.867 29.16L140.868 29.123L140.867 29.1415V29.16H141.867ZM142.187 26.96L141.219 26.7065L141.217 26.7175L142.187 26.96ZM146.307 11.24L146.288 10.2402L145.531 10.2547L145.34 10.9865L146.307 11.24ZM150.187 11.08L150.253 12.0778L150.253 12.0778L150.187 11.08ZM153.547 10.68L154.51 10.9507L154.942 9.41364L153.37 9.69573L153.547 10.68ZM144.238 17.5238C143.205 20.6245 142.245 23.1186 141.36 25.0178L143.173 25.8622C144.102 23.868 145.089 21.2955 146.136 18.1562L144.238 17.5238ZM141.363 25.013C140.475 26.8928 139.625 28.2868 138.823 29.2341L140.35 30.5259C141.309 29.3932 142.245 27.8272 143.171 25.867L141.363 25.013ZM138.822 29.2359C138.04 30.1649 137.266 30.7581 136.513 31.0809L137.301 32.9191C138.414 32.4419 139.427 31.6218 140.352 30.5241L138.822 29.2359ZM136.526 31.0753C135.75 31.3947 134.894 31.56 133.947 31.56V33.56C135.133 33.56 136.25 33.352 137.288 32.9247L136.526 31.0753ZM133.947 31.56C133.014 31.56 132.385 31.3614 131.965 31.064L130.809 32.696C131.669 33.3053 132.746 33.56 133.947 33.56V31.56ZM131.965 31.064C131.577 30.7895 131.314 30.3812 131.216 29.7302L129.238 30.0298C129.406 31.1388 129.916 32.0639 130.809 32.696L131.965 31.064ZM131.22 29.7632C131.137 29.0536 131.255 28.0876 131.659 26.8248L129.754 26.2152C129.305 27.6191 129.104 28.8931 129.234 29.9968L131.22 29.7632ZM131.657 26.8305L135.537 14.9505L133.636 14.3295L129.756 26.2095L131.657 26.8305ZM135.532 14.966C135.677 14.5471 135.784 14.1358 135.805 13.767C135.823 13.4483 135.793 12.8347 135.267 12.44L134.067 14.04C133.913 13.9246 133.847 13.7828 133.823 13.703C133.803 13.6337 133.811 13.6064 133.809 13.6529C133.803 13.7509 133.764 13.9596 133.642 14.314L135.532 14.966ZM135.374 12.5329C135.078 12.2372 134.652 11.96 134.107 11.96V13.96C134.027 13.96 133.969 13.9389 133.94 13.9244C133.915 13.9122 133.923 13.9106 133.96 13.9471L135.374 12.5329ZM134.107 11.96C133.51 11.96 132.973 12.2964 132.569 12.6137L133.805 14.1863C133.955 14.0686 134.061 14.0041 134.128 13.9721C134.199 13.9382 134.185 13.96 134.107 13.96V11.96ZM132.606 12.5863C132.246 12.843 131.967 13.2286 131.741 13.6203C131.505 14.0295 131.276 14.5362 131.052 15.124L132.921 15.836C133.124 15.3038 133.309 14.9038 133.473 14.6197C133.554 14.4787 133.624 14.3773 133.681 14.3073C133.738 14.2356 133.769 14.213 133.768 14.2137L132.606 12.5863ZM131.051 15.1289L130.211 17.3689L132.083 18.0711L132.923 15.8311L131.051 15.1289ZM131.147 16.72H130.387V18.72H131.147V16.72ZM131.333 18.044L132.333 15.124L130.441 14.476L129.441 17.396L131.333 18.044ZM132.329 15.1363C132.696 14.1076 133.133 13.4075 133.598 12.9626L132.216 11.5174C131.454 12.2458 130.878 13.2524 130.445 14.4637L132.329 15.1363ZM133.583 12.9772C134.128 12.4771 134.678 12.1627 135.231 11.9988L134.663 10.0812C133.776 10.344 132.966 10.8295 132.231 11.5028L133.583 12.9772ZM135.253 11.992C135.913 11.7797 136.53 11.68 137.107 11.68V9.68C136.297 9.68 135.474 9.82029 134.641 10.088L135.253 11.992ZM137.107 11.68C138.174 11.68 138.911 11.9058 139.411 12.2578L140.562 10.6222C139.623 9.96087 138.44 9.68 137.107 9.68V11.68ZM139.432 12.2721C139.877 12.5683 140.194 13.0429 140.319 13.836L142.295 13.524C142.1 12.2905 141.537 11.2717 140.542 10.6079L139.432 12.2721ZM140.319 13.836C140.443 14.6197 140.31 15.7344 139.8 17.239L141.694 17.881C142.251 16.239 142.491 14.7669 142.295 13.524L140.319 13.836ZM139.798 17.2449L136.358 27.6049L138.256 28.2351L141.696 17.8751L139.798 17.2449ZM136.358 27.6038C136.113 28.3399 135.947 29.0254 135.968 29.577C135.978 29.854 136.039 30.2324 136.293 30.5589C136.585 30.9355 137.004 31.08 137.387 31.08V29.08C137.503 29.08 137.718 29.1345 137.871 29.3311C137.985 29.4776 137.969 29.586 137.966 29.503C137.96 29.3346 138.021 28.9401 138.256 28.2362L136.358 27.6038ZM137.387 31.08C137.883 31.08 138.317 30.8729 138.666 30.6252C139.019 30.3743 139.357 30.0306 139.682 29.6317L138.132 28.3683C137.87 28.6894 137.661 28.8857 137.508 28.9948C137.35 29.1071 137.317 29.08 137.387 29.08V31.08ZM139.682 29.6317C140.325 28.8423 140.987 27.7937 141.67 26.5096L139.904 25.5704C139.254 26.793 138.662 27.7177 138.132 28.3683L139.682 29.6317ZM141.67 26.5096C142.354 25.2233 143.034 23.7675 143.71 22.1446L141.864 21.3754C141.207 22.9525 140.553 24.35 139.904 25.5704L141.67 26.5096ZM143.712 22.1392C144.386 20.4951 145.032 18.785 145.651 17.0091L143.763 16.3509C143.155 18.095 142.521 19.7716 141.862 21.3808L143.712 22.1392ZM145.653 17.0047C146.274 15.1942 146.815 13.3958 147.275 11.6094L145.338 11.1106C144.892 12.8442 144.366 14.5925 143.761 16.3553L145.653 17.0047ZM145.321 11.1897L144.201 17.6697L146.172 18.0103L147.292 11.5303L145.321 11.1897ZM147.55 28.3088C147.364 28.9202 147.223 29.5333 147.272 30.0195L149.262 29.8205C149.262 29.8213 149.258 29.7496 149.291 29.5689C149.322 29.3991 149.377 29.1753 149.464 28.8912L147.55 28.3088ZM147.291 30.1369C147.373 30.5085 147.593 30.838 147.942 31.0475C148.256 31.2355 148.594 31.28 148.867 31.28V29.28C148.793 29.28 148.858 29.2645 148.971 29.3325C149.034 29.3699 149.099 29.4261 149.152 29.502C149.205 29.5769 149.231 29.6493 149.243 29.7031L147.291 30.1369ZM148.867 31.28C149.59 31.28 150.205 30.9563 150.694 30.4671L149.28 29.0529C149.076 29.257 148.944 29.28 148.867 29.28V31.28ZM150.694 30.4671C151.229 29.9324 151.649 29.0924 152.007 28.0996L150.126 27.4204C149.791 28.3476 149.492 28.8409 149.28 29.0529L150.694 30.4671ZM152.003 28.1128L152.923 25.6728L151.051 24.9672L150.131 27.4072L152.003 28.1128ZM151.987 26.32H152.747V24.32H151.987V26.32ZM151.806 24.9821L150.686 28.1021L152.568 28.7779L153.688 25.6579L151.806 24.9821ZM150.683 28.1085C150.376 28.9825 149.968 29.645 149.48 30.1329L150.894 31.5471C151.633 30.8083 152.184 29.8708 152.57 28.7715L150.683 28.1085ZM149.464 30.1488C148.977 30.6578 148.44 31.0076 147.851 31.2183L148.523 33.1017C149.427 32.7791 150.223 32.2489 150.91 31.5312L149.464 30.1488ZM147.84 31.2223C147.235 31.446 146.593 31.56 145.907 31.56V33.56C146.82 33.56 147.698 33.4073 148.534 33.0977L147.84 31.2223ZM145.907 31.56C145.067 31.56 144.476 31.4265 144.074 31.2256L143.18 33.0144C143.951 33.4002 144.88 33.56 145.907 33.56V31.56ZM144.057 31.2171C143.653 31.025 143.382 30.7763 143.2 30.4785L141.494 31.5215C141.898 32.1837 142.48 32.6817 143.197 33.0229L144.057 31.2171ZM143.204 30.4855C142.988 30.1249 142.867 29.6934 142.867 29.16H140.867C140.867 30.0132 141.066 30.8084 141.489 31.5145L143.204 30.4855ZM142.866 29.197C142.89 28.5509 142.986 27.8864 143.157 27.2025L141.217 26.7175C141.014 27.5269 140.897 28.3291 140.868 29.123L142.866 29.197ZM143.154 27.2135L147.274 11.4935L145.34 10.9865L141.22 26.7065L143.154 27.2135ZM146.326 12.2398C147.726 12.2129 149.035 12.159 150.253 12.0778L150.12 10.0822C148.938 10.161 147.661 10.2138 146.288 10.2402L146.326 12.2398ZM150.253 12.0778C151.485 11.9957 152.643 11.8583 153.724 11.6643L153.37 9.69573C152.371 9.87503 151.288 10.0043 150.12 10.0822L150.253 12.0778ZM152.584 10.4093L147.544 28.3293L149.47 28.8707L154.51 10.9507L152.584 10.4093ZM157.594 31.44L156.688 31.0171L156.277 31.8991L157.147 32.3344L157.594 31.44ZM158.234 31.68L157.992 32.6501L158.057 32.6665L158.124 32.6739L158.234 31.68ZM161.034 30.92L160.327 30.2129L160.327 30.2129L161.034 30.92ZM161.234 25.84L162.152 25.4431L162.152 25.4431L161.234 25.84ZM159.554 22.72L158.703 23.2441L158.71 23.2555L159.554 22.72ZM157.874 19.8L156.985 20.2574L156.991 20.2679L157.874 19.8ZM160.674 11.48L161.088 12.3904L161.088 12.3904L160.674 11.48ZM168.354 11.08L168.106 12.0487L168.112 12.0501L168.354 11.08ZM170.954 12.48L170.247 13.1871L170.261 13.2012L170.276 13.2148L170.954 12.48ZM171.674 16.92L170.74 16.564L170.74 16.564L171.674 16.92ZM170.714 18.32L171.369 19.0757L171.373 19.0726L170.714 18.32ZM167.274 17.92L166.458 18.498L166.464 18.5063L166.47 18.5144L167.274 17.92ZM166.994 13.2L166.079 12.7973L166.072 12.8128L166.066 12.8286L166.994 13.2ZM167.874 11.72L168.612 12.3957L169.507 11.4185L168.322 10.8256L167.874 11.72ZM164.754 12.36L164.011 11.691L164.002 11.7016L163.992 11.7124L164.754 12.36ZM164.034 14.68L163.035 14.6537L163.034 14.6668V14.68H164.034ZM164.354 16.48L163.41 16.8085L163.419 16.8338L163.429 16.8586L164.354 16.48ZM165.274 18.28L164.42 18.7999L164.425 18.8085L164.431 18.8169L165.274 18.28ZM166.394 20.12L165.531 20.6239L165.533 20.6277L166.394 20.12ZM168.234 23.8L167.294 24.1396L167.3 24.1556L167.306 24.1714L168.234 23.8ZM167.874 29.56L167.046 28.9997L167.04 29.0082L167.035 29.0167L167.874 29.56ZM165.194 31.76L165.608 32.6704L165.617 32.6662L165.194 31.76ZM157.194 32.08L157.463 31.1168L157.455 31.1147L157.448 31.1126L157.194 32.08ZM154.434 30.52L153.702 31.2005L153.708 31.2074L153.715 31.2141L154.434 30.52ZM154.154 24.92L154.962 25.51L154.969 25.4997L154.977 25.4892L154.154 24.92ZM158.274 29.76L157.348 29.3827L157.342 29.3976L157.337 29.4127L158.274 29.76ZM157.147 32.3344C157.42 32.471 157.702 32.5777 157.992 32.6501L158.477 30.7099C158.34 30.6756 158.195 30.6223 158.042 30.5456L157.147 32.3344ZM158.124 32.6739C158.404 32.705 158.695 32.72 158.994 32.72V30.72C158.761 30.72 158.545 30.7083 158.345 30.6861L158.124 32.6739ZM158.994 32.72C160.058 32.72 161.002 32.3669 161.741 31.6271L160.327 30.2129C160 30.5398 159.584 30.72 158.994 30.72V32.72ZM161.741 31.6271C162.522 30.8464 162.874 29.8276 162.874 28.68H160.874C160.874 29.3991 160.667 29.8736 160.327 30.2129L161.741 31.6271ZM162.874 28.68C162.874 27.6139 162.623 26.5322 162.152 25.4431L160.317 26.2369C160.699 27.1212 160.874 27.9328 160.874 28.68H162.874ZM162.152 25.4431C161.701 24.3998 161.115 23.3134 160.399 22.1845L158.71 23.2555C159.381 24.3133 159.914 25.3068 160.317 26.2369L162.152 25.4431ZM160.406 22.1959C159.775 21.171 159.226 20.2165 158.758 19.3321L156.991 20.2679C157.482 21.1968 158.053 22.189 158.703 23.2441L160.406 22.1959ZM158.764 19.3427C158.361 18.5602 158.154 17.6919 158.154 16.72H156.154C156.154 17.9881 156.427 19.1731 156.985 20.2573L158.764 19.3427ZM158.154 16.72C158.154 15.7536 158.399 14.9179 158.874 14.1833L157.195 13.0967C156.497 14.1754 156.154 15.3931 156.154 16.72H158.154ZM158.874 14.1833C159.338 13.4659 160.055 12.8601 161.088 12.3904L160.261 10.5696C158.947 11.1666 157.904 12.0007 157.195 13.0967L158.874 14.1833ZM161.088 12.3904C162.092 11.9343 163.419 11.68 165.114 11.68V9.68C163.237 9.68 161.604 9.95905 160.261 10.5696L161.088 12.3904ZM165.114 11.68C166.154 11.68 167.151 11.8037 168.106 12.0487L168.603 10.1113C167.478 9.82298 166.315 9.68 165.114 9.68V11.68ZM168.112 12.0501C169.032 12.2803 169.729 12.6686 170.247 13.1871L171.661 11.7729C170.847 10.9581 169.81 10.4131 168.597 10.1099L168.112 12.0501ZM170.276 13.2148C170.707 13.6129 170.994 14.244 170.994 15.28H172.994C172.994 13.8626 172.588 12.6271 171.633 11.7452L170.276 13.2148ZM170.994 15.28C170.994 15.6776 170.915 16.1037 170.74 16.564L172.609 17.276C172.86 16.6163 172.994 15.9491 172.994 15.28H170.994ZM170.74 16.564C170.581 16.9802 170.352 17.3079 170.056 17.5674L171.373 19.0726C171.93 18.5854 172.341 17.9798 172.609 17.276L170.74 16.564ZM170.059 17.5643C169.877 17.7221 169.606 17.84 169.154 17.84V19.84C169.982 19.84 170.751 19.6113 171.369 19.0757L170.059 17.5643ZM169.154 17.84C168.653 17.84 168.333 17.6696 168.079 17.3256L166.47 18.5144C167.123 19.3971 168.055 19.84 169.154 19.84V17.84ZM168.09 17.342C167.784 16.9101 167.594 16.3134 167.594 15.48H165.594C165.594 16.62 165.858 17.6499 166.458 18.498L168.09 17.342ZM167.594 15.48C167.594 14.7304 167.711 14.0999 167.923 13.5714L166.066 12.8286C165.744 13.6334 165.594 14.5229 165.594 15.48H167.594ZM167.91 13.6027C168.185 12.978 168.425 12.5987 168.612 12.3957L167.137 11.0443C166.737 11.4813 166.391 12.0887 166.079 12.7973L167.91 13.6027ZM168.322 10.8256C167.894 10.6116 167.367 10.56 166.874 10.56V12.56C167.065 12.56 167.206 12.5714 167.306 12.5874C167.411 12.6041 167.441 12.6212 167.427 12.6144L168.322 10.8256ZM166.874 10.56C165.748 10.56 164.734 10.888 164.011 11.691L165.498 13.029C165.735 12.7653 166.134 12.56 166.874 12.56V10.56ZM163.992 11.7124C163.338 12.4827 163.065 13.5116 163.035 14.6537L165.034 14.7063C165.057 13.8217 165.264 13.304 165.516 13.0076L163.992 11.7124ZM163.034 14.68C163.034 15.3898 163.164 16.1008 163.41 16.8085L165.299 16.1515C165.118 15.6326 165.034 15.1435 165.034 14.68H163.034ZM163.429 16.8586C163.691 17.5001 164.023 18.1473 164.42 18.7999L166.129 17.7601C165.779 17.186 165.497 16.6332 165.28 16.1014L163.429 16.8586ZM164.431 18.8169C164.797 19.392 165.163 19.9943 165.531 20.6239L167.258 19.6161C166.879 18.9657 166.499 18.3413 166.118 17.7431L164.431 18.8169ZM165.533 20.6277C166.4 22.099 166.978 23.2644 167.294 24.1396L169.175 23.4604C168.798 22.4156 168.149 21.1277 167.256 19.6123L165.533 20.6277ZM167.306 24.1714C167.637 24.9994 167.794 25.7937 167.794 26.56H169.794C169.794 25.513 169.578 24.4672 169.163 23.4286L167.306 24.1714ZM167.794 26.56C167.794 27.4534 167.548 28.2582 167.046 28.9997L168.703 30.1203C169.428 29.0484 169.794 27.8533 169.794 26.56H167.794ZM167.035 29.0167C166.571 29.7334 165.84 30.3553 164.771 30.8538L165.617 32.6662C166.949 32.0447 168.004 31.1999 168.714 30.1033L167.035 29.0167ZM164.781 30.8496C163.776 31.3065 162.461 31.56 160.794 31.56V33.56C162.648 33.56 164.267 33.2802 165.608 32.6704L164.781 30.8496ZM160.794 31.56C159.627 31.56 158.518 31.4111 157.463 31.1168L156.926 33.0432C158.164 33.3889 159.455 33.56 160.794 33.56V31.56ZM157.448 31.1126C156.484 30.8603 155.732 30.4254 155.154 29.8259L153.715 31.2141C154.576 32.1079 155.665 32.7131 156.941 33.0474L157.448 31.1126ZM155.167 29.8395C154.69 29.3256 154.394 28.5681 154.394 27.44H152.394C152.394 28.9253 152.792 30.221 153.702 31.2005L155.167 29.8395ZM154.394 27.44C154.394 26.6326 154.598 26.0074 154.962 25.51L153.347 24.33C152.697 25.2193 152.394 26.274 152.394 27.44H154.394ZM154.977 25.4892C155.274 25.0592 155.624 24.88 156.114 24.88V22.88C154.952 22.88 153.994 23.3941 153.332 24.3508L154.977 25.4892ZM156.114 24.88C156.56 24.88 156.896 25.0416 157.194 25.44L158.794 24.24C158.133 23.3584 157.215 22.88 156.114 22.88V24.88ZM157.194 25.44C157.507 25.8572 157.714 26.4781 157.714 27.4H159.714C159.714 26.1886 159.441 25.1028 158.794 24.24L157.194 25.44ZM157.714 27.4C157.714 28.1366 157.588 28.7937 157.348 29.3827L159.2 30.1373C159.547 29.2863 159.714 28.37 159.714 27.4H157.714ZM157.337 29.4127C157.074 30.1228 156.858 30.6534 156.688 31.0171L158.501 31.8629C158.704 31.4266 158.942 30.8372 159.212 30.1073L157.337 29.4127ZM186.366 1.4L185.754 2.19128L185.763 2.19782L185.772 2.20417L186.366 1.4ZM185.846 6.48L186.471 7.26087L186.473 7.25875L185.846 6.48ZM179.726 6.92L179.114 7.71128L179.123 7.71782L179.132 7.72417L179.726 6.92ZM177.166 14.64L178.115 14.9562L177.166 14.64ZM175.686 13.52L176.393 14.2271L176.406 14.214L176.419 14.2005L175.686 13.52ZM174.606 15.48L173.674 15.1175L173.67 15.1272L174.606 15.48ZM173.686 17.92V18.92H174.378L174.622 18.2728L173.686 17.92ZM172.926 17.92L171.985 17.5821L171.504 18.92H172.926V17.92ZM174.046 14.8L173.108 14.4543L173.105 14.4621L174.046 14.8ZM175.446 12.4L174.723 11.7088L174.723 11.7095L175.446 12.4ZM177.486 11.08L177.812 12.0254L177.812 12.0254L177.486 11.08ZM182.446 11.2L181.954 12.0706L181.954 12.0706L182.446 11.2ZM183.766 12.56L182.863 12.9899L182.867 12.9986L182.872 13.0072L183.766 12.56ZM183.846 16.28L184.793 16.5999L184.795 16.5962L183.846 16.28ZM179.686 28.6L178.738 28.2801L178.736 28.2876L178.734 28.2952L179.686 28.6ZM179.566 29.96L178.692 30.4456L178.704 30.4682L178.718 30.49L179.566 29.96ZM181.086 29.88L181.667 30.6937L181.686 30.6804L181.704 30.6663L181.086 29.88ZM182.286 27.76L183.22 28.116L183.222 28.1111L182.286 27.76ZM183.126 25.52V24.52H182.433L182.19 25.1689L183.126 25.52ZM183.886 25.52L184.832 25.844L185.285 24.52H183.886V25.52ZM182.886 28.44L183.828 28.7764L183.832 28.764L182.886 28.44ZM181.366 31L180.675 30.2774L180.675 30.2774L181.366 31ZM179.326 32.2L179.051 31.2385L179.03 31.2444L179.01 31.2513L179.326 32.2ZM174.286 31.84L173.71 32.6578L173.728 32.6699L173.745 32.6812L174.286 31.84ZM172.966 29.56L171.978 29.7121L171.978 29.716L172.966 29.56ZM173.486 25.68L172.537 25.3638L172.536 25.3687L173.486 25.68ZM179.846 4.96C179.846 3.75227 180.224 3.02233 180.842 2.56274L179.65 0.957255C178.402 1.88433 177.846 3.28773 177.846 4.96H179.846ZM180.842 2.56274C181.572 2.02076 182.511 1.72 183.726 1.72V-0.280003C182.167 -0.280003 180.787 0.112569 179.65 0.957255L180.842 2.56274ZM183.726 1.72C184.798 1.72 185.419 1.93195 185.754 2.19128L186.977 0.608713C186.14 -0.0386185 185 -0.280003 183.726 -0.280003V1.72ZM185.772 2.20417C186.08 2.43204 186.286 2.78285 186.286 3.44H188.286C188.286 2.28381 187.879 1.27462 186.96 0.595822L185.772 2.20417ZM186.286 3.44C186.286 4.39662 185.938 5.1214 185.219 5.70125L186.473 7.25875C187.673 6.29193 188.286 4.99005 188.286 3.44H186.286ZM185.221 5.69913C184.493 6.28185 183.564 6.6 182.366 6.6V8.6C183.942 8.6 185.332 8.17148 186.471 7.26087L185.221 5.69913ZM182.366 6.6C181.331 6.6 180.694 6.39235 180.32 6.11582L179.132 7.72417C179.984 8.35432 181.107 8.6 182.366 8.6V6.6ZM180.337 6.12871C180.035 5.89493 179.846 5.55659 179.846 4.96H177.846C177.846 6.07007 178.244 7.0384 179.114 7.71128L180.337 6.12871ZM178.115 14.9562C178.309 14.3716 178.454 13.7305 178.334 13.1705C178.266 12.8556 178.104 12.5173 177.78 12.2702C177.465 12.0292 177.107 11.96 176.806 11.96V13.96C176.812 13.96 176.699 13.9608 176.567 13.8598C176.426 13.7527 176.386 13.6244 176.378 13.5895C176.374 13.5692 176.386 13.613 176.365 13.7559C176.344 13.892 176.299 14.0789 176.217 14.3238L178.115 14.9562ZM176.806 11.96C176.056 11.96 175.434 12.3217 174.953 12.8395L176.419 14.2005C176.631 13.9717 176.756 13.96 176.806 13.96V11.96ZM174.979 12.8129C174.475 13.3166 174.054 14.1396 173.674 15.1176L175.538 15.8424C175.904 14.9004 176.203 14.4167 176.393 14.2271L174.979 12.8129ZM173.67 15.1272L172.75 17.5672L174.622 18.2728L175.542 15.8328L173.67 15.1272ZM173.686 16.92H172.926V18.92H173.686V16.92ZM173.867 18.2579L174.987 15.1379L173.105 14.4621L171.985 17.5821L173.867 18.2579ZM174.984 15.1457C175.325 14.2204 175.73 13.5512 176.169 13.0905L174.723 11.7095C174.042 12.4222 173.513 13.3529 173.108 14.4543L174.984 15.1457ZM176.169 13.0912C176.649 12.5885 177.195 12.2381 177.812 12.0254L177.16 10.1346C176.23 10.4552 175.416 10.9848 174.723 11.7088L176.169 13.0912ZM177.812 12.0254C178.47 11.7986 179.198 11.68 180.006 11.68V9.68C179 9.68 178.049 9.82809 177.16 10.1346L177.812 12.0254ZM180.006 11.68C180.918 11.68 181.542 11.8379 181.954 12.0706L182.938 10.3294C182.123 9.86876 181.121 9.68 180.006 9.68V11.68ZM181.954 12.0706C182.413 12.3303 182.696 12.6401 182.863 12.9899L184.669 12.1301C184.302 11.3599 183.705 10.763 182.938 10.3294L181.954 12.0706ZM182.872 13.0072C183.061 13.386 183.166 13.8301 183.166 14.36H185.166C185.166 13.5566 185.004 12.8006 184.66 12.1128L182.872 13.0072ZM183.166 14.36C183.166 14.8868 183.078 15.4202 182.897 15.9638L184.795 16.5962C185.04 15.8598 185.166 15.1132 185.166 14.36H183.166ZM182.898 15.9601L178.738 28.2801L180.633 28.9199L184.793 16.5999L182.898 15.9601ZM178.734 28.2952C178.615 28.6657 178.529 29.0236 178.5 29.3521C178.473 29.6597 178.483 30.0701 178.692 30.4456L180.44 29.4744C180.481 29.5488 180.489 29.602 180.489 29.6066C180.49 29.6114 180.487 29.5882 180.492 29.5279C180.503 29.4031 180.544 29.201 180.638 28.9048L178.734 28.2952ZM178.718 30.49C179.047 31.0163 179.579 31.28 180.166 31.28V29.28C180.166 29.28 180.179 29.28 180.201 29.2851C180.224 29.2904 180.254 29.3004 180.287 29.3176C180.358 29.3555 180.398 29.4049 180.414 29.43L178.718 30.49ZM180.166 31.28C180.732 31.28 181.256 30.9876 181.667 30.6937L180.505 29.0663C180.356 29.1727 180.248 29.2324 180.177 29.2629C180.104 29.295 180.106 29.28 180.166 29.28V31.28ZM181.704 30.6663C182.041 30.4014 182.311 30.0203 182.536 29.6226C182.77 29.2101 182.997 28.7032 183.22 28.116L181.351 27.404C181.148 27.9368 180.962 28.3432 180.796 28.6374C180.621 28.9464 180.504 29.0652 180.468 29.0937L181.704 30.6663ZM183.222 28.1111L184.062 25.8711L182.19 25.1689L181.35 27.4089L183.222 28.1111ZM183.126 26.52H183.886V24.52H183.126V26.52ZM182.94 25.196L181.94 28.116L183.832 28.764L184.832 25.844L182.94 25.196ZM181.944 28.1037C181.577 29.1324 181.14 29.8325 180.675 30.2774L182.057 31.7226C182.819 30.9942 183.395 29.9876 183.828 28.7763L181.944 28.1037ZM180.675 30.2774C180.168 30.7624 179.628 31.0738 179.051 31.2385L179.601 33.1615C180.518 32.8995 181.338 32.4109 182.057 31.7226L180.675 30.2774ZM179.01 31.2513C178.386 31.4592 177.773 31.56 177.166 31.56V33.56C177.999 33.56 178.826 33.4208 179.642 33.1487L179.01 31.2513ZM177.166 31.56C176.124 31.56 175.368 31.3467 174.827 30.9988L173.745 32.6812C174.697 33.2933 175.861 33.56 177.166 33.56V31.56ZM174.861 31.0222C174.4 30.6972 174.079 30.198 173.954 29.404L171.978 29.716C172.173 30.9487 172.732 31.9695 173.71 32.6578L174.861 31.0222ZM173.954 29.4079C173.828 28.5852 173.954 27.4626 174.436 25.9913L172.536 25.3687C172.004 26.9908 171.784 28.4548 171.978 29.7121L173.954 29.4079ZM174.435 25.9962L178.115 14.9562L176.217 14.3238L172.537 25.3638L174.435 25.9962ZM191.643 32V33H192.392L192.603 32.2813L191.643 32ZM184.563 32L183.605 31.7154L183.223 33H184.563V32ZM192.483 5.32L193.442 5.60458L193.443 5.60216L192.483 5.32ZM192.403 3.32L191.603 3.92L191.603 3.92L192.403 3.32ZM189.963 2.68L189.015 2.36377L188.576 3.68H189.963V2.68ZM190.243 1.84L190.231 0.840074L189.52 0.848751L189.295 1.52377L190.243 1.84ZM196.043 1.4L196.2 2.38771L196.213 2.38555L196.043 1.4ZM200.963 0.199999L201.923 0.481251L202.454 -1.33062L200.657 -0.751861L200.963 0.199999ZM202.803 28.6L201.824 28.3974L201.823 28.4039L202.803 28.6ZM202.763 29.96L201.85 30.3661L201.859 30.3869L201.869 30.4072L202.763 29.96ZM204.203 29.88L204.785 30.6937L204.803 30.6804L204.821 30.6663L204.203 29.88ZM205.403 27.76L206.338 28.116L206.34 28.1111L205.403 27.76ZM206.243 25.52V24.52H205.55L205.307 25.1689L206.243 25.52ZM207.003 25.52L207.949 25.844L208.403 24.52H207.003V25.52ZM206.003 28.44L206.945 28.7764L206.949 28.764L206.003 28.44ZM204.323 31L203.692 30.2248L203.685 30.2306L203.677 30.2366L204.323 31ZM202.043 32.2L201.794 31.2317L201.779 31.2355L201.765 31.2397L202.043 32.2ZM196.283 31.2L197.123 30.6567L197.123 30.6567L196.283 31.2ZM195.923 27.4L194.951 27.1671L194.948 27.1793L194.945 27.1916L195.923 27.4ZM196.603 24.56L195.639 24.2953L195.635 24.3111L195.631 24.3271L196.603 24.56ZM196.563 21.68L195.737 22.2433L195.743 22.2524L195.75 22.2612L196.563 21.68ZM193.963 20.56H192.963V21.4472L193.844 21.5529L193.963 20.56ZM193.963 20.4L193.901 19.4019L192.963 19.4605V20.4H193.963ZM197.723 20.44L197.637 21.4362L197.648 21.4372L197.658 21.4379L197.723 20.44ZM200.963 21.16L200.569 22.0792L200.579 22.0831L200.963 21.16ZM203.043 23L202.155 23.4586L202.161 23.4698L202.167 23.4808L203.043 23ZM203.283 26.28L202.306 26.0692L202.304 26.0774L203.283 26.28ZM202.563 11.6L202.222 10.6602L202.222 10.6602L202.563 11.6ZM201.723 12.08L201.099 11.2991L201.093 11.3036L201.088 11.3081L201.723 12.08ZM200.643 13.68L199.71 13.321L199.71 13.321L200.643 13.68ZM199.843 15.92L200.789 16.246L200.792 16.2362L199.843 15.92ZM198.843 18.16L199.71 18.6597L199.714 18.6527L199.718 18.6456L198.843 18.16ZM197.203 19.88L197.751 20.717L197.751 20.717L197.203 19.88ZM194.443 20.52L194.467 19.5203L194.405 19.5188L194.344 19.525L194.443 20.52ZM194.043 20.56L193.06 20.3811L192.822 21.6871L194.143 21.555L194.043 20.56ZM194.123 20.12L194.052 19.1225L193.278 19.1778L193.14 19.9411L194.123 20.12ZM196.763 19.32L197.341 20.136L197.353 20.1282L197.363 20.12L196.763 19.32ZM198.283 17.6L199.156 18.0886L199.16 18.0814L199.164 18.0741L198.283 17.6ZM199.203 15.44L200.156 15.746L200.159 15.7364L199.203 15.44ZM199.963 13.28L200.892 13.6514L200.897 13.639L199.963 13.28ZM201.123 11.6L201.768 12.3649L201.773 12.3603L201.778 12.3557L201.123 11.6ZM202.443 10.88L202.711 11.8435L202.711 11.8435L202.443 10.88ZM207.123 12.04L206.352 12.6757L206.357 12.6824L206.363 12.6889L207.123 12.04ZM207.723 17.44L206.869 16.9201L206.861 16.9339L206.853 16.9479L207.723 17.44ZM206.283 18.84L206.715 19.7421L206.731 19.7346L206.746 19.7266L206.283 18.84ZM201.843 18.48L201.136 19.1871L201.145 19.1957L201.154 19.2041L201.843 18.48ZM202.083 13.72L201.364 13.0254L201.358 13.0319L201.352 13.0386L202.083 13.72ZM204.563 11.96L204.967 12.8749L206.055 12.3949L205.395 11.4053L204.563 11.96ZM204.123 11.6L203.627 12.4682L203.677 12.4966L203.73 12.5191L204.123 11.6ZM191.643 31H184.563V33H191.643V31ZM185.522 32.2846L193.442 5.60458L191.525 5.03542L183.605 31.7154L185.522 32.2846ZM193.443 5.60216C193.732 4.6181 193.819 3.54126 193.203 2.72L191.603 3.92C191.627 3.95207 191.768 4.20857 191.524 5.03783L193.443 5.60216ZM193.203 2.72C192.849 2.24807 192.314 2.00568 191.807 1.87272C191.285 1.73582 190.661 1.68 189.963 1.68V3.68C190.573 3.68 191.008 3.73084 191.3 3.80728C191.606 3.88765 191.637 3.96526 191.603 3.92L193.203 2.72ZM190.912 2.99623L191.192 2.15623L189.295 1.52377L189.015 2.36377L190.912 2.99623ZM190.256 2.83993C192.478 2.81282 194.461 2.66368 196.2 2.38763L195.887 0.412363C194.266 0.669651 192.382 0.813839 190.231 0.840074L190.256 2.83993ZM196.213 2.38555C197.964 2.08461 199.65 1.67364 201.27 1.15186L200.657 -0.751861C199.131 -0.260309 197.536 0.128723 195.874 0.414449L196.213 2.38555ZM200.004 -0.0812519L190.684 31.7187L192.603 32.2813L201.923 0.481251L200.004 -0.0812519ZM201.823 28.4039C201.75 28.7679 201.703 29.1077 201.694 29.4106C201.686 29.6932 201.706 30.0436 201.85 30.3661L203.677 29.5539C203.714 29.6364 203.688 29.6401 203.693 29.4694C203.697 29.319 203.723 29.0988 203.784 28.7961L201.823 28.4039ZM201.869 30.4072C201.991 30.6515 202.178 30.8849 202.449 31.0517C202.72 31.2182 203.012 31.28 203.283 31.28V29.28C203.315 29.28 203.4 29.2885 203.498 29.3483C203.595 29.4084 203.642 29.4819 203.658 29.5128L201.869 30.4072ZM203.283 31.28C203.85 31.28 204.373 30.9876 204.785 30.6937L203.622 29.0663C203.473 29.1727 203.365 29.2324 203.295 29.2629C203.221 29.295 203.224 29.28 203.283 29.28V31.28ZM204.821 30.6663C205.158 30.4014 205.429 30.0203 205.654 29.6226C205.887 29.2101 206.114 28.7032 206.338 28.116L204.469 27.404C204.266 27.9368 204.08 28.3432 203.913 28.6374C203.738 28.9464 203.622 29.0652 203.586 29.0937L204.821 30.6663ZM206.34 28.1111L207.18 25.8711L205.307 25.1689L204.467 27.4089L206.34 28.1111ZM206.243 26.52H207.003V24.52H206.243V26.52ZM206.057 25.196L205.057 28.116L206.949 28.764L207.949 25.844L206.057 25.196ZM205.062 28.1037C204.706 29.0993 204.236 29.7815 203.692 30.2248L204.955 31.7752C205.851 31.0452 206.501 30.0207 206.945 28.7763L205.062 28.1037ZM203.677 30.2366C203.092 30.7324 202.465 31.0584 201.794 31.2317L202.293 33.1683C203.275 32.9149 204.169 32.4409 204.969 31.7634L203.677 30.2366ZM201.765 31.2397C201.022 31.4553 200.302 31.56 199.603 31.56V33.56C200.505 33.56 201.412 33.4247 202.322 33.1603L201.765 31.2397ZM199.603 31.56C198.133 31.56 197.444 31.1534 197.123 30.6567L195.444 31.7433C196.296 33.0599 197.82 33.56 199.603 33.56V31.56ZM197.123 30.6567C196.742 30.0673 196.581 29.1128 196.901 27.6084L194.945 27.1916C194.573 28.9405 194.652 30.5194 195.444 31.7433L197.123 30.6567ZM196.896 27.6329L197.576 24.7929L195.631 24.3271L194.951 27.1671L196.896 27.6329ZM197.568 24.8247C197.769 24.0923 197.882 23.413 197.873 22.8061C197.865 22.2004 197.734 21.5983 197.377 21.0988L195.75 22.2612C195.793 22.3217 195.869 22.4796 195.874 22.8339C195.878 23.187 195.811 23.6677 195.639 24.2953L197.568 24.8247ZM197.39 21.1167C196.73 20.1494 195.47 19.7336 194.083 19.5671L193.844 21.5529C195.124 21.7064 195.597 22.0373 195.737 22.2433L197.39 21.1167ZM194.963 20.56V20.4H192.963V20.56H194.963ZM194.026 21.3981C195.258 21.321 196.462 21.3341 197.637 21.4362L197.81 19.4438C196.532 19.3326 195.229 19.319 193.901 19.4019L194.026 21.3981ZM197.658 21.4379C198.795 21.512 199.76 21.7322 200.57 22.0791L201.357 20.2409C200.3 19.7878 199.105 19.528 197.789 19.4421L197.658 21.4379ZM200.579 22.0831C201.349 22.4039 201.849 22.8662 202.155 23.4586L203.932 22.5414C203.384 21.4804 202.498 20.7161 201.348 20.2369L200.579 22.0831ZM202.167 23.4808C202.46 24.0159 202.572 24.8353 202.306 26.0692L204.261 26.4908C204.582 25.0047 204.533 23.6374 203.92 22.5192L202.167 23.4808ZM202.304 26.0774L201.824 28.3974L203.783 28.8026L204.263 26.4826L202.304 26.0774ZM203.563 10.44C203.096 10.44 202.644 10.5068 202.222 10.6602L202.905 12.5398C203.07 12.4799 203.284 12.44 203.563 12.44V10.44ZM202.222 10.6602C201.817 10.8074 201.442 11.0241 201.099 11.2991L202.348 12.8609C202.538 12.7092 202.723 12.6059 202.905 12.5398L202.222 10.6602ZM201.088 11.3081C200.47 11.8165 200.023 12.5086 199.71 13.321L201.577 14.039C201.798 13.4648 202.07 13.0902 202.359 12.8519L201.088 11.3081ZM199.71 13.321C199.437 14.0302 199.166 14.7913 198.895 15.6038L200.792 16.2362C201.055 15.4487 201.316 14.7164 201.577 14.039L199.71 13.321ZM198.898 15.594C198.651 16.3118 198.341 17.005 197.969 17.6744L199.718 18.6456C200.146 17.875 200.503 17.0749 200.789 16.246L198.898 15.594ZM197.977 17.6603C197.658 18.2129 197.223 18.6724 196.656 19.043L197.751 20.717C198.571 20.1809 199.228 19.4937 199.71 18.6597L197.977 17.6603ZM196.656 19.043C196.186 19.3505 195.487 19.544 194.467 19.5203L194.42 21.5197C195.694 21.5493 196.834 21.3162 197.751 20.717L196.656 19.043ZM194.344 19.525L193.944 19.565L194.143 21.555L194.543 21.515L194.344 19.525ZM195.027 20.7389L195.107 20.2989L193.14 19.9411L193.06 20.3811L195.027 20.7389ZM194.195 21.1175C195.423 21.0298 196.501 20.7311 197.341 20.136L196.185 18.504C195.746 18.8155 195.064 19.0502 194.052 19.1225L194.195 21.1175ZM197.363 20.12C198.11 19.5604 198.711 18.8826 199.156 18.0886L197.411 17.1114C197.109 17.6507 196.697 18.1196 196.163 18.52L197.363 20.12ZM199.164 18.0741C199.566 17.3273 199.897 16.551 200.155 15.746L198.251 15.134C198.03 15.8223 197.747 16.4861 197.403 17.1259L199.164 18.0741ZM200.159 15.7364C200.392 14.9853 200.636 14.2906 200.892 13.6514L199.035 12.9086C198.757 13.6028 198.495 14.3481 198.248 15.1436L200.159 15.7364ZM200.897 13.639C201.11 13.0837 201.405 12.6702 201.768 12.3649L200.479 10.8351C199.828 11.3832 199.35 12.0896 199.03 12.921L200.897 13.639ZM201.778 12.3557C202.073 12.1 202.383 11.9347 202.711 11.8435L202.176 9.91648C201.544 10.092 200.973 10.4067 200.469 10.8443L201.778 12.3557ZM202.711 11.8435C203.138 11.7248 203.457 11.68 203.683 11.68V9.68C203.216 9.68 202.708 9.76853 202.176 9.91648L202.711 11.8435ZM203.683 11.68C205.033 11.68 205.851 12.068 206.352 12.6757L207.895 11.4043C206.903 10.1987 205.427 9.68 203.683 9.68V11.68ZM206.363 12.6889C206.977 13.4089 207.283 14.2436 207.283 15.24H209.283C209.283 13.7831 208.817 12.4844 207.884 11.3911L206.363 12.6889ZM207.283 15.24C207.283 15.9448 207.131 16.4907 206.869 16.9201L208.578 17.9599C209.063 17.1626 209.283 16.2419 209.283 15.24H207.283ZM206.853 16.9479C206.599 17.3964 206.26 17.7245 205.821 17.9534L206.746 19.7266C207.534 19.3155 208.154 18.7103 208.594 17.9321L206.853 16.9479ZM205.852 17.9379C205.386 18.1607 204.856 18.28 204.243 18.28V20.28C205.125 20.28 205.954 20.106 206.715 19.7421L205.852 17.9379ZM204.243 18.28C203.37 18.28 202.851 18.0582 202.533 17.7559L201.154 19.2041C201.956 19.9684 203.037 20.28 204.243 20.28V18.28ZM202.551 17.7729C202.165 17.3878 202.003 16.9841 202.003 16.52H200.003C200.003 17.5492 200.401 18.4522 201.136 19.1871L202.551 17.7729ZM202.003 16.52C202.003 15.6698 202.274 14.9827 202.815 14.4014L201.352 13.0386C200.453 14.004 200.003 15.1835 200.003 16.52H202.003ZM202.803 14.4146C203.467 13.7265 204.189 13.2183 204.967 12.8749L204.16 11.0451C203.125 11.5017 202.193 12.1668 201.364 13.0254L202.803 14.4146ZM205.395 11.4053C205.175 11.0746 204.872 10.8328 204.517 10.6809L203.73 12.5191C203.736 12.5221 203.74 12.5243 203.741 12.525C203.743 12.5257 203.742 12.5254 203.74 12.524C203.738 12.5225 203.736 12.5206 203.734 12.5184C203.732 12.5163 203.731 12.5149 203.731 12.5147L205.395 11.4053ZM204.62 10.7318C204.305 10.552 203.949 10.44 203.563 10.44V12.44C203.56 12.44 203.561 12.4394 203.569 12.4415C203.577 12.4439 203.596 12.4506 203.627 12.4682L204.62 10.7318Z" fill="black" fill-opacity="0.75" mask="url(#path-1-outside-1_310_395)"/>
</svg>
