<svg width="49" height="48" viewBox="0 0 49 48" fill="none" xmlns="http://www.w3.org/2000/svg">
<rect x="0.75" width="48" height="48" rx="4" fill="#A7FFEF"/>
<path d="M33.75 33H15.75C15.1977 33 14.75 32.5523 14.75 32V24.4868C14.75 24.1978 14.875 23.9229 15.0928 23.733L18.75 20.5443V16C18.75 15.4477 19.1977 15 19.75 15H33.75C34.3023 15 34.75 15.4477 34.75 16V32C34.75 32.5523 34.3023 33 33.75 33ZM21.75 31H24.75V24.9416L20.75 21.454L16.75 24.9416V31H19.75V27H21.75V31ZM26.75 31H32.75V17H20.75V19.1273C20.9844 19.1273 21.2189 19.2094 21.4072 19.3735L26.4072 23.733C26.625 23.9229 26.75 24.1978 26.75 24.4868V31ZM28.75 23H30.75V25H28.75V23ZM28.75 27H30.75V29H28.75V27ZM28.75 19H30.75V21H28.75V19ZM24.75 19H26.75V21H24.75V19Z" fill="#0E4F43"/>
</svg>
