<svg width="32" height="32" viewBox="0 0 32 32" fill="none" xmlns="http://www.w3.org/2000/svg">
<rect width="32" height="32" rx="4" fill="#E23535"/>
<path d="M24 26H22V24C22 22.3431 20.6569 21 19 21H13C11.3432 21 10 22.3431 10 24V26H8V24C8 21.2386 10.2386 19 13 19H19C21.7614 19 24 21.2386 24 24V26ZM16 17C12.6863 17 10 14.3137 10 11C10 7.68629 12.6863 5 16 5C19.3137 5 22 7.68629 22 11C22 14.3137 19.3137 17 16 17ZM16 15C18.2091 15 20 13.2091 20 11C20 8.79086 18.2091 7 16 7C13.7909 7 12 8.79086 12 11C12 13.2091 13.7909 15 16 15Z" fill="white"/>
</svg>
